<mxfile host="app.diagrams.net" modified="2023-09-19T12:28:50.256Z" agent="Mozilla/5.0 (X11; Ubuntu; Linux x86_64; rv:109.0) Gecko/20100101 Firefox/117.0" etag="bPgSQuqXpFjvRAPg_x9F" version="21.7.5" type="device">
  <diagram name="Page-1" id="YDluGaktq6JAbOG_fgam">
    <mxGraphModel dx="1705" dy="994" grid="1" gridSize="10" guides="1" tooltips="1" connect="1" arrows="1" fold="1" page="1" pageScale="1" pageWidth="850" pageHeight="1100" math="0" shadow="0">
      <root>
        <mxCell id="0" />
        <mxCell id="1" parent="0" />
        <mxCell id="CeXZWkVqTg6pYlPyMge9-1" value="" style="shape=image;verticalLabelPosition=bottom;labelBackgroundColor=default;verticalAlign=top;aspect=fixed;imageAspect=0;image=data:image/png,iVBORw0KGgoAAAANSUhEUgAABG4AAANzCAYAAAD4Il6hAAAABHNCSVQICAgIfAhkiAAAABl0RVh0U29mdHdhcmUAZ25vbWUtc2NyZWVuc2hvdO8Dvz4AAAAudEVYdENyZWF0aW9uIFRpbWUAVHVlIDE5IFNlcCAyMDIzIDAyOjIzOjA3IFBNIENFU1TKuK9RAAAgAElEQVR4nOy93XMc2Xnm+VTWN6oAAgUQIJpsokk2Wi25Lalblluz1tie2BlPeG8m7PVc7Dqsq93Y2bvdq4lY+2Jj/oD5E2YjpNmr8Yb3xtLE7NielmMk0bLVUotud5PsJtlNNL5BEFUFoL73IvFWvnnqnMyTVVmVVcD7RDCyKvN85cmsYuUPz/ue1Pe//+c9iEQikUgkEolEoqH0oPIAbx29lfQwRCKRSHRJ5SQ9AJFIJBKJRCKRSCQSiUQikV4CbkQikUgkEolEohEkbhuRSCQSjVMCbkQikUgkEolEoiH1oPIg6SGIRCKR6JJLwI1IJBKJRCKRSDSkxG0jEolEonFLwI1IJBKJRCKRSDSCxHUjEolEonFKwI1IJBKJRCKRSCQSiUQi0ZQqk/QARCKRSCQSiUSiWZUsBS4SiSqVStJDEI1BR0dHSQ+hLwE3okQlX3Ii0XCqVJaTHoJINDNaXpb/a0Tj07t4N+khjEXy/4xIJLrqun//J1MDbxIDN6+/vonNzc2kuheJRCKRSCQSiUQikUgkmnpJjhuRSCQSiUQikUgkEolEIqZpch4KuBGJRCKRSCQSiUQikUgkmlIJuBGJRCKRSCQSiUQikUgkmlIJuBGJRCKRSCQSiUQikUgkmlIllpxYVngQiUQi0SRVq1aTHoJINLOq1k6SHoJINDOS/29Eomiq1ZL7zDQaDXzrH307sf5tNXXLgdeqVWxvbyU9DJFoJpTkl9yk9fY739Tur1WrePToowmP5mpJ5l4kEolEIpFIdNnUaDTQaDSSHoaVpg7clOfnsTn/Jh49/OhKPZSKRKLhVJ6fR7k8L98XCag8P5/0EEQikUgkEolEosiaJWgDTHGOm8033kS5LA8FIpEoXOvrN5MewpWVfE+LRCKRSCQSiWZJ9Xp9pqANMMXgBnDhzY31V5IehkgkmnKR60Y0eQk0E4lEIpFIJBLNiur1OjqdTtLDiKypBjeA+1Ag8EYkEoVJAEIyknApkUgkEolEItG0q91uzyy0AWYA3AACb0QiUbjEdZOcZN5FIpFIJBKJRNOqdruN09PTmYU2wIyAG0DgjUgkCpe4bpKRzLtIJBKJRCKRaBpF0CZIx8cvJjSa4TUz4AYQeCMSiYJVnp+X74gEJOFSIpFIJBKJRKJpU6PRCIU2s6KZAjeAwBuRSBQscX8kIwmXEolEIpFIJBJNi2Ztue8wzRy4AdwHs83NN5MehkgkmlIJ3J28BJiJRCKRSCQSiaZBlw3aADMKbgDXmi/wRiQS6SQQYfKScCmRKF612+2khyASiUQi0czpMkIbYIbBDeA+KLz9zjfFoi8SiQYkYHfyku9ikSg+ZTKZpIcgEolEItFMqV6vX0poA8w4uCFtvvGmPDCIRCKfZHnwyUucTiKRSCQSiUSiJFSv12Nf7nt5uRJre6PoUoAbwIU3ktdCJBJxCUiYrCRcSiQSiUQikUg0SbXbbZycnMQObaZNlwbcALLilEgk8ktcN5OXzLdIJBKJRCKRaBJqt9uXZrnvMF0qcAMIvBGJRH6J62aykvkWiUQikUgkEo1bjUbjykAbALiUme/owWFn+4uERyISiZIWuW5qtWrSQ7kSuurhUuXyPMrz83j86FFiY8jlcsjlson1LxpdtVodzVYrsf6zmQyKxYIkSBYNpaMXx2Nru9nUfy6ymTSyWe9+XVhYGNsYRLOtWq2OWn0yD/vqfUnK5/PI5/MTGcNl1WVdOSpIl/Z/ZIE306NyeR6bbwyu8PPo0SM8fjy5h5sba9cn1pdourS+fhOPHn2U9DCujK46KMvnCxP7UahTGRBwM+NqtlrGB9RJKJO+dIZs0YRUq9Unfu+qD8fyQCwyaZLQxnEcgTZj0lWENsAlDJXikrCp6VCtVsWjh4MPzZubm6hUJpepe5x/ARJNtyTXzWR11cOlKpXlRPtP0qkhujwSt41oGCUJrQF5KBaZ1Wy2JgptCvnBP6DI/Tm6riq0AS45uAHcB4jNzUG3h2iyMsGbd9/91sTgTbPZQq1Wn0hfounTVYcJk9RVDpcip9EkobTo8ilJt002k06sb9FsK4nfWOK2Edmo2WxN7A+4Am3Gp3q9fmWhDXCJQ6W4yvPz2Nx8U0IlElatVsX29tbAA/S7734L9+//BEdHR+MfwwVpL5dLY+9LNF0qz8/jxvorEj45IV3lcKlaNdnzTvKhXxS/Jg0Bqycv5eFCNJRy+QIq+cJE+zw/82CR3Lcik26sv4LK8mRSJnyx9dnAPoE2o6ter1/65b7DlBi4mbSVvDw/j7ff+SYePfzoyj5MTIPooVmFN5ubmzg8HD+46avXkfvgCmp9/aaAmwnpqucVevfdbyXa//s/+2mi/YuGV7k8j99955uJ9f/06afyPSmKrBvrryTibH3vv/xF/7U8GIt02tx8c6JOYBXcpNNpuTdHULvdRqPRuPLQBrgijhuuzTfeFHiTsHTwplJZnjjMk/vgakpcN5PRVQ6X2t7ewuZ8siG6V9nxJBpd6bSES4miKelwZHkwFul0Y/2VRH+PpNNplEri8h9W7Xb7Si33HaZLn+NGp8033pSkxQlrZ/sLbG9vJTqGpH9kiJKRXPfJSRJCi0TRNQ3QUxITi6JoGn5TC7gRqUrKBUYSaDOaBNoM6kqCG0BWnJoG7Wx/kWguCMp9JLp6ks/+ZHRVIdk0OF2m4eFfJBJdDSX9XS/QRqQqSWizuLgk0GZENRoNgTYaXVlwAwi8mQY9evRR4vBG7oHLJRsn1/r6TXGDTEBXGR4knaBYJBpWmbS4bUT2Svo3lCR9FalK2mkDQKDNCEpque/j4xcT7zOqrvz/zvTBlpwXySnpfBByD1wu1apVbGNw9TJVVz157qQkuVaS0Xx5ATuQ77RpEwfGQZ+LJMFfWpYDF0XQfHlhovdrtXbiey/QRqRTkukYms2GhJsOqaSgzaxI7irIg3vSqtWqePTwo8T/Om/7g1o0/drZ/iIU3JTn5wUqTEBXFZBdxXMWhcvm+2Zn+wuBbqKZkXzXiaZNST/PCbQZTgJtwiV31oUE3iSrWq0qD9CiWLW9La6baVDSQFYkEolEIpFINL2q1+uy3LeFrnSOG1Xr6zclWa1IdElkk/yaXDei8UrmWCQSiUQikUikSqCNvcRxo4hWGpK/wotEsy+b/Eniuhm/ZI5FIpFIJBJ9+ukcyuUuAKBWc7SvU6kOrl9vDdS7e9ddZWhvrzBQh0T7Dg/TyOd7KJe7/X1B5VdXz33jU+usrp5jb6/ga4Pq0H4SP25qL84t9Rm1rnpO6vyMo2/ebqVSQ6PRmHpoU6ksJz2EvgTcaFSen8fb73wTjx5+JOE7ItEMq1arolatBobrSK6b8UvCpUS22t/PAsDAj/bLPoZ/+Ic5fPnL+qVP6SFlFD196raxstIceHCJq+3XXjuPpb1azcHBQW7k9mhcc3Mpq/J7+94812oOdncyKJW7KF/8W71uP56nT/MoFDu4sdaONOYHD4pYud6yrkf9lMtdlEvh1/Wv/ssCvvzl0377/Jy5fvKTcn/+b9wwj8VUTp0rtV+uvf0CdnYy/Tb29oq+47Wag93dDEoX5+frZ/XMNw7dWIOOffI4h1K5O3Ds009L2N3NYG2t7fu87Oxk+vt5HT5+U1kaK5V1nKw3jk9yKJW8cdRqDj75JOfrh9q7d8/7DKv11HFEeU99Uvs7OxnU6w7u3Wtqj/F6NC719Sef5PC1r50PvKYyvA9+Lr/4RQH37jUBoF+WjpfL3X5bfB8vt7bWxuFhGp9/nsa3v33e31erOajXHayttfvlf/GLQr8t2k9bAAP7Rt2WlM8pHw/f0nzTudKcqG3V685AmzZtU5u2WxoLjcHUJwDfNaI26J4hra21sH5jC++8I0t+R5GAmwBtvvGmwBuRaAo0SqiNuG6mQzo49ud/fr3/cDzMA6X6Az9pPX2aR63mYOXinGwfpsJkergaRbWagwcP5gAA11eavgfUYRTXtaCHE8CdP/pRHjdssB3D2sWD5jjHUKs5qNUcfPd7/j6DHpiH7UM9rzj6oB/kf/b/ZmJpN672qB16WInazvwCsLOTxy9/mbm4F+et69N8/8VfROt7ZzeDnV3069ncd48/yVifY6eTwYMH+X77prJ373aws1PE7m4GT550fXDAVG5vz+tf/T4I69dx3Ov1y18OHnfnoOn7XNJx6ofGoasfdIxfY37MdQh0B+AJbdVx3LjRxs5OBr/4RaFfnv7t7GQu7sWi71zpobpc7vYhxqNHWdy718DcXBe/+qtu3e3tNNbWWlhdbaLb7eLx4yzW1tpYW2vhzp3zgTK8HdN7tTy9v3Oni8eP87h7d7CseuyTT/Lo9dxjxSL65YpF9Pu7fl3/2ivvtrO9ncadO+f44IMi5ubauHPnHNvbbtluN43t7TSuX2/i00/z+OpXm5ibG9zX7aZxcgJcv97s193by+Hp04xv3wcfFHH9ehfdbg8nJ8DcXMdXb23N2+7uZtHtdlGtpnD9uru9c6eNajUbuqXy1Fe3627n5trY3c1iba2F3d0symW3f16m2+1ibq6DbreLXq/n2/JyvV4PxWIbvV4KvV4PqZS7rdfda1GteuPn4+v1sv02T05gtZ2bc+vNzVE7TXzwQRFf/eoZPvigiLt3G6jX0+j1ehfn3exfo263i52ddL/s2lobW1sprN/Qf0+JzEp9//t/3kui49/93f8uiW6H0vb2Fj579izpYYhEY1Gz2Ux6CKEqzy/g7bffsSqrg62bm2+Guj7+/u9/iaPDw6HHeJn1j3/zt0duo1at4v33/67//qOPr+Nv/3a1b7Wt19Oo1x3fg0qp1EWplLyFttu1/2+S/qIHAHt77l9UCUAAQKnUCfxLVRKihxC6BoD3YJ/keNVx8XlcXZ2MG4bGQNdy3PNC9496znH3t7ubGUsffL54u8XicCCH5n1vL9u/5sNc+1HbGaW+Wtd2nvf2spH6U/uxKW8zJtt2bcZr0xZvZ9jj5EJQj5vqjlLHnT9v7p48yQ+0o2sjyr563cGdO+5qO/W6g729rK8PmldTHZv3VL9ed/DkSQF37pyjVOpqj7311mn/XOn8+XnzOvw1L0N13Xbc/mgsd+40+mVLpU7/OH1n3bnTwIMHc/19APrl3nrrtN/20VEGe3vAN77R7O+juSuVOv25pi3Vp7bV41G3NG6bdukeonvKZkw6946prm0bUUT96fqh66Brf22tjb//+xL+4A+e4s0v7Q/df9zaeO0OXnvtrvbYD37w/QmPRi8BNxY6OjrE/fv3kx6GSHRlValU8O6737IqqwM35fI8Nt8Idt08evQIjx8/GnqMl1lxfF+r36P/8T9+XVuOHlrV1/zBYhrhR5D4edCP2Gk+n7DxTgqamMbFxzfKw/ww4g+ek+h/Ev2Nq4+42+Xt0f04TRDnOHeMxeZiaF0+Hzb9RgUy9PmwBUW2gGgcAIcUN8CJ+1gc+3X7dBCG4IiuLsEUPodBsIbXUUHTsPCG11PLqWDG9NoG2Kyutnxwhvqk+jqIo0KZO3ca+Lu/y2F1FahU2kMBGi4OOwj00R871H0mkDMKhLGto/bD60b9rREUihUkDtII5PD5dBwHv/mbWwJuIir9h3/4h/9nEh1vbm4m0e1QOjs7w9bWVtLDEImurIrFIm7dumVV9vGjh0in07595Cqan18w1js6OsLR0dHwg7zEiuP7mn+PPn58A0dHZW25XK538cOri6WlTv/Hay7XQ6vl/kA6Ps5gayuPet1Bq0UP8+mpgh9c/Jxsz4fqTdt463UHW1v5/g+wSY6VxkX3RanU6c/hkyeFiYxJnRfqS+0/rntxEv3xPmhO6TqP0n7c7fL2+HWnz41tW7wdeviLMia1Pj0gd1NdLBbToXX5A/6TJ4XQftX+wurQ54TKh52baS7UsqZx6Mqpc6OWo7aojG58YX0FHY/j2N5eFrlcb2A+eZ2g8qVSxzeX/nl2zzWX62FpqdOvv7TUQS7XGyjHnSfq/PEyrZYLUkqlDpaWXLfq1la+/77VcgbeU7+8Pfd9x9fW3l4WrZbT//y5AKHtK1cqdfvtr662tftdwFPArVvu77Lj4wxWV9s4Ps6g1XJw61aT9evCllu3mjg+zvTnVt2Xy/Uu2mlhayvvO+Y4Dp4/z+DuXXefO0+pi//TUqjX04GuGTpO8+zOT9u3XV1t9funLUGSVstBq5Xy9Xt8nLk4t5yvLRozgH4d6pfq8HFQ2Xrd8R1zz7PTr9NqpQCktP8nUl0qu7WVvwBkBdy50xh4H7Tln0/6Tubj9eCcmzNnZaWOlZXpyXGzuLiExcUl7bFp+cOugBsLCbgRiZJVFHDz8ccfoVgczAlSq1Wxvn7TWE/AjVlxgpvHj2/g8ePogc06oMPhBwcK0wJAghR2PtMKc3TQJKmx6gAT9a3eC+Majw5OAJMBOSoMieNc1escFyjStTstEIePiYMGGndYfboWaOStxxAEj8LqqdclqE6U8jQXpLCytgAnqD0VfADDARySCvFHATgEOdT9AAZglK48BzAq1NEBIIIufB+V4w4zAigq/CIIxAEP3Zu691Hhzepq2whvAA/AUB3e161bTXihSe3+HN661ez/n3HrVpOdR7tfloDO0lK73xbfxyEOzTuBkL29LDY2mnj+PAsghZWVtgbQ5HDrVhNbW/kBmKKCB92WyqtbDmMIpnj3Sqq/j/fNYUwUcENl6Vzc66kHNvW6czFHTn+8NAaq6/7fkup/t4ZtCUaFAR0ad7ncRb2eQSrVwb17LzEtEnAToFkCN8+fb8kDnUiUoKKBm48BALlcTnvc5LoRcGNWnODmb/7m9RhG5CqKO4c/FEyrO2eWYE7YWHUQbRJzroKcoLmLezwqSBo3yFFhiHqucfQVBIpGad8Eh4aBT3FCHH6e/HsjrI1crofW0hFuL6d9YwDC54jmgvqN4sKxrWMqT2PXlQ0DM7RPLae2Se2RRgE4pjZUiKFrn6SDO4AexoS5bGzdNyrUoWtBACJoHwBfXdWho7ZP9xJ/z4GPDu6MAm/IcaKCHN1rKsPhC42Nu2moLMEPAhscynDYoUKcJ08KPhCSzaLvuuH1CKKQ+wZI9e8Rmy2HMOpWBTgcwPC63IGjwh7u1uFlVBjDyxB0MQEbzxGUY315oIb6pbo2W527hrYA+teEQM7duw2cnmZwY62KjY3pWQBIwE2AZgncyAOdSJSsIoVKPX6EZquFcrk0cKxWq2K+vIBcPj9wTD7nZsUFbt57r2MMkYpTOqjAH6JnyZ0zqzBHBSdJhViZ5k43nlkHOeq5xuWWUc8nLuCijpvfL/zaRGkzDojDQ2M46Ahr4zx9jkKnMPAQz0FX0LmoITk09qB6ap0w544ujCrovHSQQncPqW3qysUBcHgbOggbBJyC4E5YPd6fvz0/aKH9OlATFibFP18qmNE5bdSwqCBYQ+2q8IbKh8EbABfgYDBsisrpQI7uNQ+J4udNbhoOdyjciICDbp8uPMoPKPyum2vXOr5jfMuhhtuXf8vDptT6rlJGgLO3l/OFXOmgDIc9qpuGgxv1u8C2DA+JIrijghq617krZ2sr35/nqGFTBNtUoLO/n8Pv/u5zzM0lkzNPJwE3ARJwIxKJbBUV3JB0rptms4Hl5ZWB/fI5NysucPNnf5bc8t1R3TnTAEJMmiWYEwTQJuGCUZVknpykQM64wqp4+3T/jer20Y15WMBmgjhRgBAHHWEgqNAZDNFVQZeti0d92A8DLLyvKC4c9bxM41KBimksYeCFnxvJFuAA3vVSAYfueJz5b3h/fD+HL7buG1OYlAp61NApHdDhzhkTrOGwiL9Xy9O9wGGQCmWo76Ulc/4bXoe/pjI6YENumrB8NkHhURyi6MKPms009vbSePPNxoDrRt2aXDR0XBcWpea3cZXqX78gV42ujA244eFOPEcOOXl0ZYLcODx8jPLbDObe8cKk1Lmj/TQfOtBDn7VyuYcvf/lIwE1ECbixkDzQiUTJahhw02y1kMvltImKda4b+ZybFcf39Y9/nMbHH5/FMJp4ZXLneJZpB3t7OYE5ExrnpJIM68Yz6Tw5JpCjwpU4QM64w6rG4cbh0GTUvDhhQMhmbCYQBABbrSqWC/rwXF5fdfHYnIepT1M91VVjShCsOy9bZ00Y7OHtmcpFBTg6J1GU41EBDhAcPmVKXqw6gEzuG9VBo9YnMKOGTvF7xwbW0EO1zk1D5Tl4UXPgmOBNUAiV7nUQsCE3jZrPZmmpDSDVhx1B4VHqMYIdNIZXXmlidzeDSsUNC+KhSzr3jW5LnwsvBE4PdDjIceUBHNVVw1eligpu1GMEbKhdHobF3UgkDnXu3Gn4cuPwsCm6n9UwKVUcnJrCp+hzde9eE7dfPRZwE1ECbiwkD3QiUbIa1nHT6Xa0iYp1rhv5nOtVqVSs5z5I3/teB2dn0wdudLos7pxZhDkqPElijOpYJuUQUuGHGtYVZ7/qfcEfsONw/uggx6ihaWFgyLY9XSjUKBCnXk+j0ClYg5igkKigumqfYUCG9q+u2q9ipbYf5KwhsKA6Q3Tl1P5HATjDHifp4Iq73w8Yw8COCmRoG+S+4f2anDp8H7lbdE4bXd4bHawhVxBBFzVESw1/0q0opYM36opSBG9yud7Aa55gWQds6HuN56cJCo8i9wYHNRyykNODXC00L81mGicnKbzyigcr1KTEQVseLqUCHQ5yTABHLaOGTlEZOsbrDQN11NAonQuH5tdTsBsnSriU2W3jJie+ffsYi4tNTIsE3ARIwI1IJLLV0OCm07V23cjnXK8ocx+kf/tvgefPe4lDglF0Gdw5tjBn0rloVAWNcdKJj01jGXfeniRAji6Ea1THkQ7KjRqypQNDUcOgqExcECd3ax+dk1J/LICdm8b/YG+XD0cds21y4iguHBtnjQlwqOOIAnBGBTRBsIUDDfUYAQodjDGFT4Xt598JJqijWzZct0/ntNHBGnXFKDWPjWk5cDWMahh4Q2BGfc0dNNwlw8NqPKjkD4XShUepjho19EkNneKum2fPclhb81wlrlLaLQctYe4aXXiUqUwUEEPXnlxHpvJqiFTQUuAciPF7nTt19vayfbBFEImHS/G5sN0Crtvm7t0Gnj4t4r/5R3tT5bhJIYUbN9a1xwTcCLgRiUSWGhbcAPauG/mc6xUXuHn0qAXHqfn+sjQLrpUwXQZ3jglITRPM0blyaHyTTnwclCfnMoAcda5N+WuGPTd+DnG4cXTQaZj2RoU45+lzLBdyRhBjA3HUfDhhbqLBMJ3wZcWpPGmYFaZ056KCIV05GzijtjUOgBN3+JR7roPJi1UQpEIdggxq+JU6l9xpo4ZOqc4aAD5YoyYh1q0opQM0UeGNCnII0qgOGnV1Kc/p4w+PInCg7tM5ary29TluaJ5cqOL0XTeU1FjdBoVP0X3NYRxBGp53x5+nJzcAYuiesHXXhIEbmgdy0wTlxPFCuDBwTDceXbgU1VHdOOrWPcfswOfClONmcXEJ5+fnSEKFQlHAjU5xWe8nJXmgE4mS1UjgpkP/2fjzDzSbrj2TlgeXz7lecYGb997roN0+vRSgw0am8/T+wqd3jlDdpDULMMdmfJNw5UQJ9aLycfYbBnJG7dOUvyaOVbl00GWU5cZ18GWY9sIgjq4dWlWKn5vfGWHnpqG6OsdLWCgV7y8sjEwFCVFWmLJNUMzHHhXO2JSZNMAJ2j+JJMWm0CnVWUOQgUKfgt5zmDMKvDGBHMBzeHBgw1eXCsp3w2GMLhkxheLwsChdjhsCCRsbDZ/rxp0/vauGQxk+Np2DJo4QKCpPsIU7aFylfPv4EuYmFw6HOTxBcdAxWm2KxFeXIpjmnn+OlfNWqFJhjzePHowz5bhJCtoAAm6MiutBYFKSBzqRKFmNAm4ABC4Pvr5+E4B8zk2KE9wE5bi5KkCHzpE/5M/KOU47zAkLA6NQmnElG+ZSxzEJoKQCFlOfVHZY6WALMHpYlQkQDZt3J6i9UZcH18Eg3apSJBpHVCeP+vBP4w+bi6jgx1R+lLI0dlIUOKNz6owKcEzjCAM4QHiSYu6AMYEaHZTRhTvp9oUlKVZhDQdJ1E7YClOqE4fOgbto+DEV3nAwo7pq1Nf1etrntuEAhocFkWuGJyhWQY0aFsXBggpgPNDhsFw34UmJKYSLwxk1B48rf5iUDtIQkOFQRwUyAAbADb1Ww6HoPHUhUnyfC2nSPmBD56CGVOnCpdQwKZMLRyf+uXHdNm6Om1LpDOvrp4F1JykBNwYJuBGJRFE0Krgh6ZYHB1zXzePHj2Ymee4kNSlwY9IoQGdagEeYZtmdM0swR53XSY7NBJTGGeZlC49G6W+cYVU6QDSKG4e3Nyxs0sEgGtNp5hTNaiFwTCYnjw1I0oEBm+TEUeqo5cNCo2yhS1Q4ExRqNYrDxnMADIJTv8NAD1NMSYp1YCcI1AQlJNbtU502FBalAh2dG0etoztO8EZ14nAQox5T4U0QyNHls6HwKIIzBAo8EJLyuW14guJh3DYm140Kd0wumzCQQ44gV16uHF6f6qlQJ2gf3VM6cKMLn+JuHSrL73MV+uiADT+mAhoV6qjJh+k66bZUjnLcfO3rL7GyIuAmigTcWEjAjUiUrOIAN6blwWu1KubLC9jf3xdwo1HS4MYkG6BjShY8LdAjTN5fW2fLnTPtMCdobJNKfKwCgEnkyZkkyIk7rMrGPRNl3DrYNMwY+Zia1UIksMQhjg4khUEcft/Y1KM6pCgrTPHyYWWD4FBUOGNqa1SAwwEGiX9v8WO8XtTwKdN+wO/i4WVVYKQ6ejgQCgqdUvPYqEmK1fAnqq8uD07wRXeMw5sgF44KbDiI0SUrHofbxr2PefLhYNcNhyQq0OHjV3PZcIDjfR+ljC4bes0hDN0XdJ5AOLjhq0jR3KjghodGqaFUBGy8z5HZfeONycLsnJYAACAASURBVJ+kWP28qFt+LcrlHjY2qgJuIkrAjYUE3IhEySoux01QouKz83MBNxpNK7gxyRbo1OvpqYQeYYriQJqm85pmmKNz5UzCERM2BuprXOFVkwA5pnPioGGY89GBF9XlY9umbSiUzZhMOW3C2uDnEyWvjQn+BNUbBAXBCY1NEMLkwtHBoSCAY+rfpq1RAQ4ds11JypuPTv/e1TlzVNjizpfj22frvlFz5/DPEu9bhTW6pMQ8b0xQkuLV1fYAiOHHbOGNuj8sGfEk3DaUhHhjo4HtbQcrK3q3zdJSZyAUitwsVMadd2+sJoAT5KihhNKuPJhjC24Ivujy3XDnjBo2FVSOAx6/68fvvtG5aUzuG5p/nuNmby+LL395ep6vg8DN0dHhVDwjCLixkIAbkShZxQZuOt5fEjqdbv/f2dkZavUaOy4izRq4MUkFB7rlvIHpdbGESQdGpt2dEwXmTGrpb3VstomPqU6cMoGVcSwHHtRfXKtJ8T50cGxYUBSnGyeoLcAMQ45zx9aJiaNAHNv+dfVskiHTOKMsK24DfGxhD/VPClomPKxMHADH9hh3YZjCpFRHjSl5MTDovtHltNEtEa4CHV5PXTJct+S3Gv4UlMuGJym2hTf8dRxuG+8zQSFKHsT50pfOtW4bD4YMLvmdyQBHR+m+64ZgCcELmmsdyKGwJ94Hr09hUlSP9qkuGw5zCMDQPWQ6zsGNLdgh5wx339A503hUYEP3OfXNAQwHXfy1yX3D3TmU42ZurjUz4GZr67mAm1mRgBuRKFnFBW4AN2Tq7Px84J9AG70uC7gxicMD9UF91oHOsO6cScER2zHza8EdMJOEOWFgbBJjCupfTeBLY46zP2o3LgeSCklMoWJR55FDg1HbNEEUFQjZJCaOCmKC+g+rq/bJz19Xhzt31H7ouK59G+DD2w0KfdJBEt63qUySAGeU/TzvjFqWQxa+T1eXAx1T6JRahx/XJSnmTh0qy5MUDwNvRnHbEKghZwgtN80hDgdEJpcNhXrR9tatls91w10wvH81bIqHS7nz7uWZITDDXS20j9onN44Kc1SHC42Jf89S7hoeFgWg/5rntuHjoOPuXA1CHBOwAdCfSx4WRvf0MDlvKMfNW79Sxe3bx5gWCbgxSMCNSCSKojjBjSia4vq+fvKkg52d5P/Ts5UJ6MyCkyVMYRDCBEeo7jSMV+dASRLmBI3JfR///Kn9jztPjnqucYMcU/ujhFXp2hzW4RMGhI5zx1hI54OaGBrE6OraunioDilqKFVQ8mQV+IS5cKKGUZnOL0mAQ+KQ2xbUmHLVeP/X6J02uhWlOKzhfUTNc0PvOaBRnTg8STF35agrQ9m6bQjOqCtJ8aXBCeiYQI0KcXjIFHfZ0FwQZHBBldOHJqrrxtZtox5zr4UHfup1x7eP19XBmqWlju87jo+RwyBTKBWHMCrEMUEeapP26YCN9z7lG5cHyHIMCAW7bmjrum56mJtr4fV7LzAtEnBjkIAbkUgURQJuklNc39d//dcdfPRRG8D0Ag1bRXGyTAv8CFPUcwL8Dy5JaBphjjqmsBCrOMcz6Tw5kwQ5cYVV8WszihtHB8x2qm0cfnbNup1RIY4pFAswh0VF7U8FVWHOGhsXjgl0BMGZKEmK1YfGsOPqeMMADn9I1YVJuX3470+CB6aExGFOm7jy3OhCo0xJi015bpaW2j5gc+tWM7LbxrSSFI1LDYuicd+507iAU16IEoc4OpcNhzuUZ4a7apaWujg4SGFlpYuobhsKl+IAh+8bBtYQZNLBGv5azWfD72sV4lAZXbJiDmeonLrPBGo4EFNdN+5cmVeYKpd72N7O4lvf2sW0SMCNQQJuRCJRFAm4SU5xfV//1V8Bu7vnM790d5BGATrTev5heWimzZ0zbTAnzN00jhAnLrXvcebJGSfIGUdYlQ6+DJOUmMZWXKnj9nI6khtGN5ZRIQ6fExpfWH9h4CeovDo21YVjgi703hbOkMIcNLr7Iei46jIIctnYhkMRaLFdDhywW2VK577RAR0PknQG2tHlueGwRZfnhkBGHKFS3G3jXteUD8pwGEP73Dny8t2YIA59t1J91SlDW3LE0LZY7OHoKI2VFc+NQ3NLbQW5bYaFNTz8iAMiE6zRvdYt+R0EcWg/1aX50kEcXR4cFdTQ/PD7Uf3sEKyhe3NtrYXT0zQ2NuqS4yaiBNxYSMCNSJSsBNwkp7i+r//yL1twnJoRaASt9DStUMNWNkBnlpYunzXH0TTDHBtnDNWJQ5OESLYgZ5i5NrWtnoNt2yoYGqY9ynNjasfWJTQqxOEgKiy3DR8vrxO0tLhafphVptQ5sIUzJvihtkOwQT2PIIDDIYo6Bn5M/Z4IAjK24VP8Pg5aZSrIfcNDsXgZvuS3CmR0S4IHhUq5bbfHFipFbhwCOrSPII8bkpRSHCD+cCoX2LT7dT03i7flx12Y4rpuXnml4wMyHFJEgTUcxqjQh/LJBIVBDfMa8Bw19JqDGX6v07i8HEjBiYtViMNBDd2rQe4atSwA5PPAr/3a/swsBy7gRsCNSCSylICb5DTO5MQqALhqUCcq0JkGCBIkkzuHJxbWwSmqO0lNG8wJAirjHMsk8+TEDVtMbavumWHCqoLaM41TXVlKbUc3r2FjMkGcILBCbepgSFA9XscmNEp11vDy6nmp52GCQybgofYfVsZ0HnEAHA45THNhC3CCwqdoToOSEnP3jQ7OABhYElx9H2VJcApxGleolOrGIVBDsIDCcHgYleqy4TDHZstdNy7AwIBLJiw0iqAOTzrMgYgKaFSwo3sdB9Ch+zgM6HAQE+a68c43GMzQMZpnes+XAz897eHevZeYFgm4MUjAjUgkiiIBN8kpqVWlokCdILDBf7DMikxAZxZXupold84wMGdcY9S5ciaR+DiqG2gUgGQCRqOCnLjDqoLcOBwKRUlMrHPE2LhpdEAiDOKY6gX1aQJGpjq2YIbK6sYC6F047sO/PjRLBTA6h40Jwujq8/MLAzj8XNU2STxEifaH5bmh/WrbBHp0K0iF5bWhceiWCB8mVAqwd9uo8GaYUCm+NDiBAA5xuMuGJyam/2doS/tpyW3VdfPiBbC0NOiS0S33zV0rQStEERii+aZ7VH1N9wu9pja9nDZmQMPHVir5w6J0r8lpQ/ciD7uyDZ1S72u6t8NgDtU7Pc3gxloVGxtVTIsE3Bgk4EYkEkWRgJvkNI3LgQeBDfpxC7g/fC4T1OHnzc/9sgCdaXTnhMGcSY5RN1+TSHys9juOPDlBzp9RQY4JRA3bLm+PHgiPjzN4tNtBtpu1aos7NHRwYhIQxzYMS60TlLOG9tlAIlvYQ/ceKShEKshh4/4LT0QcBnBUGGMCL/SQagtqbMKn+D7uvgE8IGRy6JhCpfh7euBWocwoiYlt4Q0/rq4qZQqVovJUhhIS6xITq8uBUznuunE/z0AuB/gBj5eEl64ZlVeX+KbjQblrdK9VZyBBnDAnDoc9/DNm+5r3oQM6KrDhn5kgUKNz2dB1KJW62N/P4Zu/fiShUhGV+v73/3ziv+IqlQreffdbk+52aD169EgeBkWiBBXlO+MHP/j+mEdztRTX9/W/+TcNHB4exjCi4UQ/uOhhhf4CBuACGPAf8Z3YHnqTFj9P9Zxn5Xxn4Rz4uLwHtcmPL2gc4xqDrk8K04irz6A+eDjQsO3SdtS5orG5Dy3DtaVrw/Ych63L69nMK82XbT8c9hB8sBlHULmgsfLxmdrhbajHg9q3PTbs/jj3qe/rdaf/AK17r6tfrzu4c6ehLUvnr76mOuprKvPkSb7/2XDz3Jz7vtd1+wgAPHgwhzt3zn1uEH7daQymrQ7AcDi0uwusreGiv3MfeKN21Pr8uBtm1uqHnPH96mtTO3T/8uuq1lHHROX4+NS2baX2rft8mPbpjg2272B+HnjttRf4nX/2LNLYxqnFxSV87evvaI/dv/+TqTBxCLixkIAbkShZCbhJTpcF3ASJPxSq7y8r1JkFGBIm+kHNX0/T+KcF5ngOAm88cYMVrknAo3GBHHWuRmmTQ4hhx6drw3YOR4E4Uc4/CvSJWjasnDrWMECjaycM4PDxjgPgcHjIr1FcsIafB39PQEU97joJs/2xUHt37pyjVOr2oUsUYBMGbwjK8O+LJ08KeOut0345miuCIm+9deqDOCqYMW15OQ46PMBBny11aXI/oKF9nqvIDGFMr3ldDo51cCYM3OhgDW9TB3hsX9P86I7bQBxdGcdxsLJSx+//3vQ8Xwu4MUjAjUgkiiIBN8npKoCbIIVBHb9df7pBh41sgI7u/bRo2oHUNMCcsDGMAj5MUoFI3P2ZnDOjth8FvhznjrHYXAxsaxRnD3eRhI0l6Dyi9K2CkbA6UcrbQBd17EFwxqaMLcBRj08C4ASV1UEdwPvcDgN0bN7T+YQdUyGNCxLS1vAGQP+4aR+1SVLdNeTS0W1ViMAdOzogQ64b1alictjw1+7Y0oGvTRCHyqlS4RAfD+9Xd0wFQ6b2+TH1O1QFNqVSR+vK0QEaDn3oerz11ik+/LCMf/Lb+/iN33iqHVMSEnBjkIAbkUgURQJuktNVBzdBukpQZ9aBDj0s8NcCcwbHMGlXziyBnLCwqjBwwxUFCNmMJUp9HQCyhThR6qjlw1w7Ye4a23I2gIa2JpdNnADHVId/J6nlbaDOMLAGgM8xo743hU6Z3DYcxlA5urd0r4eFNxzMEHDh0jlq1C133qh1Bp0rnuvGJkQqisMmKGSKyqrHooAbnYtHPcbvx2Fek2zcNiY5joONjSp+7RvPsbzcMJabtH7rt/9b7f5pATeSnNhCjx8/moqERCLRVVXU74xp+HK9LJrG5MTTIlOy4NVV/6pJgDlhMD0kT0vSYJOiLl1erzv9pWqn4Rz5ddKNPcmEzrqVnMKWA497XOrKSWGJj0ftX+2Pn6+aNHiYvkzt1+vDJ1Q2rVZF81PoFKzb49fbdrnxoLHQPEVdKly3uhWV0Y3ZVEfXlxqaFbYqlXoeurHwcny+/PA4uAzNvTouftxUP6gur8fnkhK+uufu3XfuXNolMKbvBZt9vB9eZm/PTVRMy3zz1aHoPSUf5omF1ZWk+DFKWkyfMUo8S6CFv3bH5iYc5u3oEhLzZLZukmA/kKGEw3zlJS95r34VKSrnLUfe6Y9FTf5bKvWwu5vCygotEe5fRYqgCL2ma6fur9fTviTCHMZ440z1y6nHvNWe3M8zJSbm7aqfD/7HJDXJMR3j8+HOSacPtzwY5L2m+5ikK8v30Vj49eJlACCVSuHlyzz+8be3oGpxcQnn5+cD+yeh1167q90vyYlnyHEzLZRNJLqqivqdIa6b+BTX9/W/+Bdt1Gq1mXFojFOqe8XdzpaDJUy2bqRpPD+du2gaxpy0M2eSIVZBfcVxnuNw5Dw8rmOxuTi0i4Y0qhuH148yZ8M4cXgd2yTFtLV111AZXTne/7AOG97XMC6boGNh+9VwlCBXjlqWh08N474xuWtM71W3jeqq4ZDH9NrkvAlLUswf+FUHDi8T5Lbh73Vt8nCevb0sGo0e8vkeyHWjC5Fy69qFQnn3rP//QV1+G9VhY/M+KFyKQptMIU58DOr58M+DrQMn7BiFSt29e47/8X/45cC4k9S0O24E3FhoWi6WSHRVFfU74+joEPfv3x/jiK6O4g6VCnqgBy4PuBhWtlBHTZo8K5pVoDOtuXOShjmeM2b8IVZqX3FCo7AwKBvxUKk42tO1ExXiDJsXZxiIowNGYRDHJh+OLeyxAT1BgCbs+DgBTtj+Yfe5Lsis71rQvJPjR/eezl0Hd9TwKLp2vB8OedQVpLgriLusosAbkm2eG6qrhkpxN5AujOrzz1N49dWeFsJEea0DM6Z8MzYaFuyoIEeFLFFfq2Fmun18Xrkcx3UZ/v7vPcLGRnXouYhbAm40ev31TWxubk6626E1LRdLJLqqGgYeyOc2HsUFbv7kT6qoVoP/c1ZBBe0TsOPKBA+Aywd1pgmOBCnMnQOMJ9nvKGMa5xyG9T0OV44OGo3ajwkSDTt3JgATtb1h3TRBYxgG4oTVi+KsieLaUWGPCc6E9R3mwgnrxwRdVAdQkgAHMCcvHuY9zWMQsFHL0WsdyKFxRlkKnJIUmyAOhzPqVleGwwW3L/++INdNFFATdOzkxD3HYrGNs7OMD+p0u104jufWofd0X1ar6L+nOsViGwcHee37ej2NlZUGDg7y/fpnZ1ntsW63G/iapDvuOE5/n9rf/Lx7Hvm828bv/94jrKzUMS0ygZv//J//v7E8U8zPz0cqL+DGQvIAKBIlq2HgwSiumzDAMMs6OYl2bsvLFfze7/3+yP3+6399NPL3qAp2zs4yF1vvR6q79X7QFYstFIvtkfqddunmheYE8D8czuJ88Adzfm6TOK92OzoAqNed/hj5eIvFNvsxPdnroBsTPSzQeHK5JtJpJ6iZkfs+OioCAFZWGv1+beeh0+kGji+ufnSiBxV17ni7dZyihLlI7anjrFTscyjQ+dKYwtpQ54+PwbZ/mz5bLf9nhs7x6KjYL6frp9VqoVpdsCpL/YeVOzoq9vuvVM4GyqjtqPcJ1T04KKBSOcPKij/vBrWva9t0LMp+6p/E9/Oy9Zp7XZy00z+HoPb4+7OzzMW5t33Hz84yODoqolhso1I587VXLLYGjlE9avPmzWr/9erqUf/aVipn2Nqa739+trYWcPPmCfueHNxH18qt6x6jsdA4zs4yVluqx/e32x3Mz/d8x9yxtPH8eRq3bnV8+9TXfJx0DuqxYtH8f0mzWUCp1EG328XZWRbFYouBngxy2TNkc9k+EKEygPt75+Ag33+vluHvK5UzNBq5gX4ODvJsLlsX853tQxdeDnC/rwjQbG+7wCebzfiATqVy1u/bcRwfxKlUzlCvL2F9vYt//jufzITj5mc/+xnee++92Ps7ODjAt7/9G9blBdxYSMCNSJSshnV9DLsi3AcffIBcLh9eMAE1mw2cnFSxsrIyVP2odP+11zbwT//pPxuqL644wE2YVJCjAo1isYV2u41CoYVsNqsFPUnr7OwU2WwWmUw2vLBVe4NzwufD3boPKjZ/uT85eYmFhWuxjG1U8R/F9bqDWs1Bs9nE4qLjOyd3O9w1zmbjuQ4AcHTUxPl5Hrlczncd6OEXmKw7h/66C7jzd3zswojFRX2+pThFP/BpHujBIKjfWq2GfD4f6ZpQP/TXf+pn1HPTjb/XfYm1G3OR2+XXYW8vO/QY+bmqbbRaLTQaDZTL5ch1w/qkOaD7+OZNc3nVyQK493yr1cLZ2anvuyVKiBQvpxu3bRlTX6enpzg4yOPkZF5bPyzEatxOm0LhAMXiHF68mAutO8x7CisCMBA6RefLy5HriJwzOzs1fPWrXpJ1vnLUMPlt1NAoeq9u1aXAuePG7aeLk5MeHKeGVOpaf5/qugHSaLdT/X26vDZcYSFSupApU/jUyQmQydQxN1fq79OV5aFPaq4aNS9PUMgU/3zyOmq4FV3309NTHB0VcetWyjeeoFCpvb0sbtxwnVT/6n/5cCYcN+NaYfqnP/1bfPObv2ZdXsCNhQTcxK+TkxN8+smn+PrbX096KKIZ0CjhOsN8fqN+kU5S1WoVW1tf4M03vzSR/iYZKjVu1esODg/dH5+FQmEA7OjCsNzt5MDOyclLFItzsQIDk8Lyzbhb/8P04eEBlpeHg4bjFj38pdNLA+E6QPJhdqenpwCAuTnPlTFN4WGnp6c4O8ug0yn5xjOJsYTl6lldbcXy2TCFQFEfo7R7UN1H0VkbObQqjrAqDioAYGnpFK1WE6+9lotc1wQ6dPWihGHx8mHjI5hAbQaFUoWFXIWV0YVR8c+uLaQJOhY3wPnsszZu3kxhfV2f6NhULyjXjS4ZcVDolJqomM/hy5fHaDSux5KcmMRz1FA+GxXeBOW3oXNeXj7H8XEbhUJxANq44+jik09c0ODWtUtGHARt+HmHwZso4MYG5ugAl3qcXzsV5PD7em8vi8VFF7ocH5e0nyW1XRKFgM1KqNS0gJtElgOvVJaxvLw86W6H1rQsAXaZ1Gg0sLO7g4P9fdxYX096OKIp1yhLUs/NFbG1NbjcYJC++OIL3Lz5ylD9jVvNZhPV6vCOm6iKaznwv/zLJprNZgwjGl65XA/Z7Dnm5jpYXHSXyAxbwpuWt6YfteNexrvRaCCbzSKdTocXHlFhy5kD3l/QaMnj3d00Wq3CVC5n3u120W63MD+fN56TaenySZwPhZBw8GCzzPqklipvtVrIZrtYXEz7xqMbS9zj0C2Jzq+Ve+9lkMlk+i6yYfpU51pdJtwDO/bLhFO7TecAt9dLvrHTfFGbNuM2LfUdZXzqXLq5NLrY2yv3r51pLLxuqeQu/a2eh65vdcw0p6Y6/vIOdnfTODryoKZuGXAaj2nZcyrHl5ZX+zeV4XNP0I366nQ66PV6KJUy/foEKbyH8MElwU3HTMuIq/tJYUuAl8sv0Wjk8dlnc/19NH56oOfLflMZWtZd956XL5W6fdBCS3PTMfoc8aXA+evj4wy63TPcvu21lcv1+nXdZbv9iYLVfXzJbn6taHluvkw33x4fZ3xQxV0S25/f5uSkh06njWw2d1G+0192m+pms110Omk0Gm47ND4dtKE54pCG3gNgfbhLftM4vSXMnf7S3blcD40G4DgtZLMe1KQyXHwf1VU/5zRnHNbQexrX8bH7/UpLhNNy9hzI0byWSl1sbzvI55tYXExf/B+V7n/eXLeff7nxet0dZyrlzvHt28dYXEz2tyGXaTnwo6PxuMajPm+I48ZC4riJX59//jm2t7fR6/WQy+Xw9ttvJz0k0RRrVNdH1M+wOG48XSbHDaB3PdgqyKECxOPomKTjZhgdHh6gUFgNdOok5WrRhVvYKMx5FJfbZNjx6cY1jjFG+WwkkQB5d7eOdruEbDar7XMUxwxJ5/yxdbxsHT/HzUU95Na5WGzaDBuf7fnze880Fpv5i+qqsa2juuVs3TW0DRqLjVsnyCkDAJ991sHBQb4fDqI6Y/g4ohyL4rThUh04c3NHePXVNJrNfB+amdwyvD0OF1T3DfVTr+uXDVcdNi5k8bt0qI1Hj+q4dm3RV4bGoXPZ8PmgfW+9dRqYnJikC81RYY3qqmm3j9BoXB9w2qiuGx5prkIbtx//d3IUZ41pX6fTQavVxPJyTlvWtl2+pTHxMtxdQ+JzBehXl1JDpYJcNnz+b9xwAdv//r/9DNMkcdxoJI6bq61Hjx7h2bNncFIOnLSDTruD/f19rIvzRmTQqK6PqK4bcdx4ukyOG0DverBVkEPFyyXhd+zQX8ltnR2TdNwMo7OzU1y7VjTOg861pHOLjMMxQo6bfL4QXpjJdF3dH7aDrqNhnS/Djk83znG4c6J8NnRjGbczp9s9w+JiGgsL0Pb55EnBd97D9Kdz/qiOF1P7rXrTCL3C2gTsHDnq+FTHkGls/N7TOWrC3DH8PFQnkMn9Yqqj60t1y9m6a7hbhbfLz1/XnnqevB06J9oPANnsOVZWGmg2CwPHw1wzOudMVAcOARUOtfiDcbvdRrNZQLud7jtWVFiltlevp41uG14+l+vhzp1Gv++lpbbPYUPH6vV036Wzt5f1vV5cPEKvN98vs7eXRS7X6ztqaI6OjzO4davZbxtA/7rTQ7/qwCEHB21brdTAfl6fu3Jozre3U7h1K2WENuS6OTtLI5OxhzalUqfvnlHhCrliTPvo3Ofm2jg/72FuLu3bT+3ye93kuiH3Erlr6vW0ryx3L1E7/B4jUOadl/d6bo7CqL3vFroG5Mwh0ZwtLXWwv5/Dq6828au/uodpkjhuNBLHzWg6Pj5Gs9nE6upq0kOx1g/few8/+vGPsbKygsVr11Aql1EsFpHP5ZHOpNHr9lAoFvC1r30t6aGKplBxuD6i0HJx3HgSx008UvPp6PLrAECv5zpu0unBZaWnQaPkuFFdGu42PqfOqI4WW+mupY37ZVLjU8dkO75xfDZM4xjGcWLrRvMebMfjBDK1f1Ddx1fuLY7U5qiOHFM7S0unVvfesG4cXb2wsfM6NjluaBuUv4bK2DhsaGvjwjk/d8ENfTbo2tPxpJMVn5y8RLV6DS9ezAWW030XqGV07+kcbI7pct08edLAnTteQm8OyUolL4yGjvPkxVxqXhvu4CAoQFsqpzpseD90/vn8PjKZysV4zEt981w3JNVZY+O0MW298/T2FwpNNBrn6PUWfO1Q+/y9N6bB/vh4+LVTx8GPkYKcN8+f91CpnPXzP5lcNurcz8+7x/7Xf/UBlpcbmBZN2nHz0Ucf4+bNV6wXDhHHjYWmzXFTKBTwySefYGdnBzdu3Eh6OFbaeO01dDsdfPzwIZx0GmnHQcpxkHJSfedNu9XC4eHhzJyTaHKKw/WxvLyMo6NDq8+yOG48xeW4+cUv2nj4sNv/AUF/kZm0RnHcjKJcrjfgUlBdE6VSF2dnHTiOg/PzbP8vovRX/uPjjM+9kMQcnp2dDv1gH3b+PKeJeu425z2qoyXKeQzjfjk/71385TY79us27PhOT908MnGNTzcOcj6oYwCCXSe2brQgJ5DunooKckztn7zoYX9/IZKDRm1zVEeOqZ0nT/Ko1QAgH+qoGcaNo6sXlpPH7y5x0Go1sbW1oC3Pywblr6Gy/OHR5LBRnS2qq4cfb7fb+Oyz0gVQ7/bva+5c4fX5MX6/RXXaBDlw+L5Wq4VXXulhfb0bWI5cLqrbBhiEdf5wKX+uG3LYqMdKpa42102p9AKHh4v9ueOOmuPjTD9/Dn23ugDI20ciF8etW008eVLA0lIHW1v5vkuHtrTfBtq4TpQ28vl8ILSp1x30egDgoNFw+veAd2310IbGHQZtyCGjwpZMpoNOpw0g73PWULv0ntw9PE8Oz8XDX6vOGz4Ofox/V/vz1Hh5bFqth5Y7zQAAIABJREFUFqrVPBYWUv3zVz+PdB3p/243xw2wsVHFN9652o6bg4NDLCzMI5+3W8lWwI2Fpg3cAO4NdHx8jHq9juvXryc9HCuZ4I3ThzdpF94cHAi8EfkUFzywDZkScOMprrn/T/+phYMDL7GdmvSXQ4lxgomkwE2Y6MeM49SwuJjG8nIvNFlwEmBnFHATJFuoE5Qwutvt4Py8i3I5fOWccSkImDSbKbRaTZyezk0k2XCU8bVaDtptdwn13d3SWMc2LMzp9c6HCiPUhT8FJSWOeq7UfiZzjNdey/rOZdi2bUFOGHSidpaXz9Fu15FOl/rnHBZSZkqSzCGHri6HGkHhUVyFQhO53DlefTXt60dXXoUZprJRygUBoVKpi2z2HKVSB71eTntcV9/2GActAHzzbQtwXr7s4vnzeTiOMwBrqByJ5oIAjApkwt7rgA2F4fCwqlbL6b+u1Vr48pdTvhApgjeUqPjWrabvngpLSkyQhtriW11YlAna1OsOms0GKpVsH9QA8PXrJSvuYW8vjUrFv1oUXTcOcdx6fihis6VzpLq1mgPHacEEblTww4ENyQRv+D66hnz+/ImLu8q8uffCtWvu6/PznK+M+pml+aS2UqkUrl9v4PV7LzBNmnZwI6FSFpq2UCkAuH//PlKpFFqtFq5fv4433ngj6SFZSxc2NVcsItcPm+oiXyjg61+XpcJFruIK1wHsPs8SKuVpEqFSaugJ7ePv6YeQ/8dA9OW6kwqVstWwyYmHSZzsbqO5DaZpOXD1vjk56eH4uINCoQggmSW1g6QLlbIJadK9H4fUz8a4kyGHSe3/8LCJbDbXX/I4zr7jSLZsk5xYbXvYcxgmpEn97A4bFsXPY5hExbTlIU+mMEI1pCmoD9uyBCVp3KYyfF7K5ZcAvM9GWBumUCk1xIrXM9XRhUqp7RQKBygW5/DixdxA2bBQKFP4FL33rpc+2bGakJiHQlHo1BdfVHF6WsHrr3sgTw2HUsNsKClx0HLgBE/ccRS0y3+boA0PTaLkxDYJf6vVFHK5FPL5bv84jZde01zowpS4TEmDeblOp4NMpo5ebwEmqXV0ffFxmcbIoU3QlpdNp+soFtuo1a719wOD15P2UX83brSRSnXwP/9PD4znlYSmPVQqE/sIRGPX+++/j3a7jUwmg2w2i4ODAzipFF6fERj2m7/1WwCAH/34xwPHcqk80uk0zs/P8fOf/1zgjSh2bW5u4v79+0kPQ8TE//Jpkg7uuD8S44c7syj6S5dJKsjRzd2kQcGoUu+bpaUWVldPsbDQG7hf+Pmq90SS52q6bipIUHMoePXHN3bT2Hj+A88RED/MUftfXn6JbrfcTxDLryk9IAzbt+5c+TXQnaf6UFLomEP0dA8w/ByC2g1qT33wfvBgbuC4TRt8TDZtqPPF6wZBKd4mr1MoNJHJ9JBO+xMQm8rr8tyoZet1Bw8ezA2chwo/dO1xyAEAH320gJWVBgoFPUBR+1EhCQED113mQQ5dPQ6N1P268wGAhw8XcfNmCuvrg2VVOAQAb711OlBmby87sHoUvaewJSpP9XlIEx0rlbq+dp48KWBu7hQrKw08eeKVefBgzrei1J07574VpQj6mOANhzIcKgRBG2qXgxgAODoq4s6d1sBxHcBZWuri+fMMbtygMQwCEu7c4fekCmq87/hBaOMPX8pieVkPd3TwxwSD+BhM0MbLOdQZgKF8S+d4duZfbYvmnOqrn1Hat7ubw6//em1g7kTBEnAzA3r27Bn++q//GteuXUO9Xke5XMZccQ7I95DJZpHJZLB/cICU4+DevXtJD9dKfXjzIw/eUBBALu/Bm08//RR37+ptayLRMKpUlvH665tjIeei8WkUuMP3ZbMpdLtdLC97P4yvAtwJAju2UKxU6uLlyyI6Hf8yxNOooPslCGJNC9SxBTpJOGF0D8t8HOp8xjmmUqmLxUU/SDD1HSfMUeEGQQF+7KTTgW0SABWGcAeL2m7Y+NVxmkDOy5dFBGUp0MEgGk+YQ0gHWNQwHfWc+f7j4w6OjrqBdYaBOIDnjvHAQqc/ZxyiUHsqSAGAcvkUBwd5XzsEIFQnCnejqACI17UBNbo6uvKnp010uzktrFHhDHdMqJBHBTrqewIo/AGeHyPwQvUAFxI9ferAcZz+kt5u6JUe1BB8ISDDy3EQA/jhjWkL+P+PU6FNvZ5GsdhCvV7sz4uX22Yw+W+77eZyaTT8cIYgjgpQ6Nx4/yoQor6C3DkmmcKteDs2/Q06hNzz4feiei6rqy08fw5Uqxgox9vl/09QuRs3WviHfyjhn/+O1WmKLiTgZga0sbGBjY0NfO+730WtVke320Wv10Ov10MeQCaTQTqdxv7+Pk5enuDtd95OeshW8uDNjwaOEbzZ23OTVgm8EcWpzc1NHB0dTl0IpGg02cCd/f1zOI6DTsfLg6LCnavm3AmbN/0qSk7ofE3rXIVBrCCok/Q52gAdYLzwZNhx6dwlccGcILdMnDDHBFwA96/2Dw7nfG3buGd056Bz+8QNcoLGZ3LUhMEY3TEbN06p1IXjNLCwcDoAjeKCONSuf4ntQaeNCkxKpQ5SKVysKuWFhwW5bHh93XhNThteT53bIIDT7Z5jdbWFbLZlbCPIbUPzQw/ZqitjdZVcFxhw2BBs4W0/eZK/uPfceZqbO0e363fZ7O1lfSCHO3X4fREULkVldLCGQxvuylGBzupqCzs7XnuqW8Zty++QWVpq45NPCtjYaLBjKsjR57AxuWH49zc/dnKSBuCHTap0ThsV/Oj6M41JddeYtgBQqZzh6Kjoq8fBGwB2X3mhbbu7OayttQPPKwkdH7/A4uJS0sMwSsDNDOmPvvMd/Ol/+A/Y3tlBt9u9ADhuPphsNgvHcdBoNvD++++jUqlgY2Mj6SGHiuDNfx2ANynk8jmBN6KxSUKmrqbcH2xdzM2ZH6hsnDtuW/HkjZl28R/C6fTZwNKdUcHONM/TrEKdOIBOKjVQfSzjmoQ7Z9h+bUGLrp9W7gQ3FxdGcs/o2lUBiArAbEGO+9k9xTAgJwjGhNW3ceMsLfkf1nXQyDZEylSWu2M4xNHBG97ekycFNJsOVlYauH3b344O8qj1g1w4ahgVlwpW6MFaB3COjoooFlNIp/3XwOS2AQYBjgpk+PkHuXHq9XRouNRnnxVx82YKq6veEt2lUtcHsIDBcCk3F445XIrfM3xLUvPgcHjD769isX1R3pzbhu/nrpt22+6L0wRVTM4aD6R0fI4gtS19neBxqGV10Abwh8W6db2VH8lNs7iY6ZelzwC/3z0nj7eqWr3uoFzuDrQvCtelBTe1ahVly0Q/s6Q/+Jf/Ej987z387P33+86b7oX7JpfNwkmn0Ww08dmzZ3AcB6+++mrSQw6VGd7AD296PdydkVAw0fSrUllGpVIR141oQDbOHYE7nmwcO0HzNCtgZ1So02oBrVZxII/HNIx5by+LFy/c5JdLS2nftYh7rMO6c2q1PEb5SWPqVxf+NAzMoRw3un5M0EXtK0jqOILaDBqzyZGjhkUFtcPhRJSwKlO97e0yrl3r4fx8MKFpGJjRjTcKxAkqRw+f+/vnODvLDpTRQR71eBDgCXLahLlzePlC4SWq1Ws4PPTyLAW5bUYJl+JtqDCJwxUeLvXGG8eoVq8hnU779qugRgU05NoICpcKEkECmgMCCCT63FSrGczPe//3uHUHw454vfn5DnZ2stjYaATCEhXShIVEqXCnVHJz3BSUFFo6eBMl1CoM2ujcNTx0ihxV1SrQ7Q46gniuG2+sHrw5O3N8cyqy06UFN9XaCaq1E6yv30x6KLGLQMff/t3fMefNBbzJuaAjl8/j6ZOnODg4wNtvT3/olA/e8HXOUuif097+PnrAzOTxEU2/3n33W/jBD76f9DBEM6hxwZ1aLY9KxUE2O7mH+3ErCB4AwyVOpnanRTaAxHFcJ1KvNx1OHXXMa2vuqlK9Xnnsjhib8QD+e+PsLIMPPywhnY433EoHJ4aBOefpc+s+oiY+jtKmyeljkjrvUUGOySETFlblcyu1Wvj8c/d1kIvHxr1jcs5Q2yrwMZXj+93yDdy+nTaWMYEY3VhMTp8gUMPdCSpwmZs7x6uvtnDz5qm2bJjbJgjy8Jw0PHyKHEsqzKEHen4elDxZnRcCNRwcDBMuZZJNmJQuNMrr23PZeHC0M+C68fdpl5vGVFYf4qT//Jr6Uv//1JVTAZEO2gDQ7nP7cM+72SxgZaWKWo1WcxxM2Ex9cSfV/HwHe3s5HB7mB1y8IrMuLbgBgJ3tL7Cz/QU2N9+8dO4bAh337/+NC24UeJNJp5HP51Cv1/Hhhx/iK1/5SsIjDleg8+YC3uzv7wMQeHPVVKnYpnyMLklULBqXhoE7juPg4MDN8aX7a19SD/njVFxgJwlHi43o/FqtFkqlUywseD+9oiQbprYmNV5VNqFGuvdxjaVQqKNY7CGbzRrHonvIH0bDwJxC2ryqlCrV9WJqn4OXsDk1ARjAfUCu1yvodPSrk9m0YwtyVFhhG1a1stLAwoLnquB9hkGcsPK6slFy3SwsuJ+/27cHIYya+DjoeBDgUY/pQqxM7T196uDDD8tYX3evixfG5GidMiTT6lLqw7o7Dj940rlxeIgUBy1vvHGMnZ0lLC7Ct18FNRQaxQEND5ca1nFD4Tuq44b2FYttrYPF+971h09ROXLdrKy0BxwsNlCl0Ughn+9py8UlW7hD15y/1gEc/scnNwcP0O12+8e8a5nuf5fow6UyKJU6Am0i6lKDG9KjRx/hxvorl859Q6DjJ/fvo9vpuCFT3S7Q6wEXyX1zuRxevHiBjz/+GF/60pcSHnG4/PDG/2Um8EY0Dkmi4sko6K9aV1kq3Dk5OUOxmEI2Oxhb7rdEOwP7LivcsQU7juOg2+1aOXamZU6ihDKZzmlSUMcG6FCCU3WMuvdxj0Udhw6ujDKGMJizdTCPxe3hkhPryoaFjoW1rcKhw8MjdDrrkduLE+SY6uZyHTjsvwiTi8cUIhVUXoU3PEzKFuJ89hm07alOFd4OP25KaEzbIKcN71cHw9z9p1hdfYFa7ZoPzFDuGV7WBuBEfU9jVduna+I6bty+dKDGgx7DJSg2KcxxQ9+dZ2cZzM97kIZDHF34FO0j100m0+vnujGBEh2kiQvaNBqDeXaitG3KuaMCHHVuSI5j/n1H88wdN4A3l7PiuFleruDx46RHcUXADeC6bwBcSniz8dpr+L///b9Ht9tzQ6fIeZPPI5PJIJvN4vDwEI8ePsLmG5tJDzlUfXjzX/8r2+t+KQm8EY1Dkqh4/NraAg4P5/rvTQ+b0xgGMw0KgxfAaHBH3TdL4o6Ws7MGFha8H4GmcDVTfh3aNw1zEQRK3K0d1Jk2oDOuMY7iFBp2DPxBZGGhiuXl/FBhVrbno0ssHJRTJmi8wKDLJ06QoxuPCbAcHORxfJzB7dsZbd86+EPXMsyNEwR9bCHOyor7nUKhUjpnjwm2eG0FJzQOAjVhcOejjxawstLA8nIHb72ld+aQ4gQ4upw23H1DwOTVV2t4+XK+77jhCYqDlgSn+4s7c3SOG56E2P9dHuy44RBGhTTqMbc9f1ly3VSraRSLwZ89Aim2LhuCMRnDkzpvJw4ApMIYndvGnc+0b3ty4v7BxJS7R+e4Abw5nSS0SafT6HRmO6/OpQU3zebgfzg721+gVq1i8403ExjR+LSxsYH/44//GN/77ndxdHR0ETrlJi3O5/PIZrPIZDI4ODyA89jBvdenH3YQvPnxj388cMwHb3qYifMRTbckUfH49cYbXVSrp/33ugdqHWgAgmGDuv8qaxi4A+gf/Kk9dd+sSXU0qVLvQ124kr+d5CFX0DkFQR3duYzzPGxAim6MkwA6Ni6hOGAOaRwwR3Vf6Fw0YecQ5PKxDdcywRh1PLr61PbSkusaOT9f0fatOjCiuHF0EEcHZ4IgzsKCu7LP3Nxg0t+wUCkam8lpM2y+Gx5GVS6f4uAg74MgOreNDcBxz0FfhgMbL+9LV1vWHYNb7vPPy1aOG13olMkxQ1KhTRC80TlodK/pvQ7YqMfIaRMGZOh4GGQhYEPlzs/TaDRSvuTE4wixMoVO+cvonTVnZxn0eoOuHSoflOPm4KCElZV6bOcRpFmHNsAlBzc7u/uoLC0il/Nuvlqtivd/9tNIoVOz8jD3R9/5Dv6fP/1TbG9fLBfec/PeoNdDJpu9gB17ePnyJd75xjtJDzdUBG9+FARvDvbRQw+vv/76pIcnEolGUNgDNUn96xiJx1n72718jpI4ZQt33O3gw3W9XsH2RTgItee1PXvzbAN2gu67aQM7YVAnCJg0mykUi20UCtmxQp1hgU6vl0exmMfCwujzOw53znn6HK1WayDMERgO5thegyD4whMft9tFdDqDqzZxqWBI11YYyDG5eqKAnKCwKrVeGJgxbYOcOyrEOTwEPv+8jN3dnHWo1Cj5bnj7pnpqDh53ufK0FuyQbAAOX8ZbvYbeg7f/c6qDO3QdVldbWFlpYG9vHuvrnuvI5LhRIZ3OrUEyQRsTvOHwh66/zkXD36vnq3tPuW7y+TZM4o4b0zFduWy2jbOzaLCH92ECPEHwx+S8MYWBAYOgy3PmOGxuB3PciKLp0oIb0tGLY5RLcyiXS779lzV06r//gz/AD997D+///Oe+pMUFAFlaLrzVxPs/ex9vvzM7q0354M3F9xHBm4ODA1QqFVQqlQRGKBKJxin1x1eQdMAB8D9sN5vuf3tLS/yvS7MNH+JW0MP/4eERlpedQLjjtTP7cCcMdNmAHarfagGZTCax5MlB5+I+nHoPHSZooXs/qfHt71MOo/zYHDqjuHN0wCZIOoBigi5RzlHnyqnXHXzxRfTEx1EdPrpzsgE5uZz72VhY0Petq6cbvwpobMKkePu6EKhSqYtUqoGVlUZ/xbWgUCldyBUHITzfjclpowMvpjw5q6tuDp6PPlrArVvuD2TuetEBHxuAo0tYrMIcU3l6QKdjBwd53LzZApD2taO2qS4PTrBFLUfHONhRt2o+G+qPh0vpYcNgHhc1jEjdZ+u6AfQgRYU53JnTaGSQy50Z2+b7VVdPo5EyQh1bx46t80bNk6ODMvx6OI5bLpUywy7RoBIBN8vLk33ArtVde/5VgTcEO/6Olgu/yHnT6/WQI3jTbOCHP/whXnvtNdy+fTvhEQeLwxv1a4bgzc72joAbkeiKy8bFc3rqLXkMBEMer13Jx6PKZq5NcIfvm3W4EwXs0Iph+/ue531SUCRM9HAKAHNz6l+X7UKbdO/jHF+nQ4m79WMbV8iVrTvn8PAGtrM5nyMoat8m6BIHzKlUzvr5JMISHwe1aQIxUZMV8/qdDn02wp01ar9By44P48bhbdP5pNOuoyUK7FFdMRzS6I7rnDZBx3i/KyunWFlp9JMTc+ijgzXDABx1ye+w47wt7rhRV5Xi5YPCpLhUaKMDLoMOD324VJBMjhsdyKFcN0An0F1Dyud7WoiiwpZ8vofT03Q/140O1PB++D4dnBn/KlaO9rUK0Wo1B2trrZlITDxNuvSOG1Ktfopmq6VdFrtWrV7a5cL/5qc/deENuW+KxT7syOfzePr0KfL5PNbW1oxtvXz5Eo1GA6sU9JqA+vDGsFT4tcVrkx6SSCSaQbXbLRSLc8hm7UK1ADsnD0kgjyeBO/4H8bDlwIHgRMO695NQmBMmSahjC1XGMSa17/T6M6ynX8GLF14S9mFBi6mfuGBOmLNI16YOwuj2R82Ts7ra8n02bJw1vE3ucqE+w3LdqGFYJohDYOH83HW05HI5UBgUd8p44zW3Z5PvRs2Xw+GGLtkwnQclJy4U7N02wGAyYt2+YVaYImBC+Wu448YUGqXmseHQJtg9Y4I20eCN7v9x/l51lKjK53s4PHQAuHU5TGk23THTylW8Di9LoCYMvnCpYVEmGBSkZtMZGFuQ3Ln0u5ZrNf+80Xz7Q868/+/L5a64bS50clLFvCWHuLTg5ujocGBfs9m6dO6aIBHsuH//PjqdDnp8xalcDpl0GoV8Hg8fPsTOzg6+9rWvadtJpVL4+OOPsf3FNr72dX2ZSSgI3nS70/3jXSQSza5sAAQpKOmyul8HH3q9DLpdB9lsMuE0k1ZccAcACoUmMpkezs+9UJawtpNWGBRxt9O7IpYt1NElfR7nuG2AjinsadTx6BwfcTuDhoE5FCYapU1dHp6wECu1naBxBeW5IZmcMv650/dpgj865wygT4q8utrC6ak/VErn2okL4lB9NdSKH1MdPJScOMxtA8DnjFFDmnhYzLAAR+egWVlpoFotYHHRD5Y4lFHdN0EhTxzOUBvqVpevRoU3fmgUDHJ0LhtV5LrJ59tK3ppBKNJopNBsOsjlulqAQ68bjRRyuQ6aTcfXTpDbhreltkcQKZfzf+6iJDz2roN/677Wr9SlXrtUykGvl5mZ5cDHJVtgQ7q04Ebkii8X3lPCppDLI51xnTfVahX7+/u4fv36QBvVkxPkczlUa1V8+OGHWtfSpNRfKvxHP0LqItnN66+/jldffTWxMYlEIhFpVMhzcJBHPp/H+XlOaXd2XSejyhbutFotHB0NPoyFOVjC2k5KYeet3j86OOJvZ7LnGgfUiXvMwwAd3n8QXFlsLgLFaP3yB+VR3TlhMGdrawHHx3OR2g9y09jmuAkCQtQGh65qGyrYiApygurotjo3Tqs1h/n5l1hY8JIWe+PX57vhfQ8DcfhYwkKpaNWr27cH3Talkn6JcJ0zJwjqRHHcqNfOddxg4DxN+W50uW3UB3//te8ObAnQkLzvl+4AcCgWW6APrw7OBOW6ATzo4YKbXCAE4cCGXC7VaroPcChUSoUypra4THX8S4cPQiTdPhu5c9GB4zhQF2xSw6RU9427TV1paDOMBNxodNlCp/TLhbtJi/PII5PJIJfLYXd3Vwtunj17hvRFmRcvXuDjjz/Gl770pQTOxNVv/tZv9QGOSCQSzap0D+aFQh3FYg/ZrGchVv+aRQoK1VLbnWZAEYdKpS5arS4cp4GFhYK2jK1zZ1bgTlSwExaClk5n0O12MTenthS/bKEOd6ecn6ewuJjGwkLqoo34rosN0FHHowKQ8/Q5iog2eeN25/DzSqe9xOLDhlkFhVhFceWocOb4uIOjo26/jSAYNAzIiRJWpYM+juPg4cNFLC/nfGVVQKO2OQzEMYGgIMDz2Wf+Va94Hb7cuGmJcAISNlAniuOGXr/xxjGq1Ws4PAwOkyLxMCnA/12mhk6RaB8PjfIf48mGu/32dO4QHfBRX+vUaKR8rhtVbg4cL2SKIM78fAeNRgrVarr/2h9qlcbcXHcAyhAAAvTQRg2XUh0+YTIBKPX/y+PjNJaXBx1L3OXkn98ugBTqdefKO26iSsCNRgRtLhvA+aPvfAff++53cXBw4EtanM/nkc1mcXp6il9+8AFenpzg7t27yGQy+PTTT9FoNJCDm/E/m83i8PAQjx4+xOYbbyR9SiKRSHTp5YcIwQ9rko/HrDjDsqYhTClMNmBHPU/HcbC7W7yolwzAMkGU3d068vkCms1Cf7wm4BbXtYgCdOJITmzbZ9SEwqb2bcOsosIc1VET1lapRNB1MHlyGAyKCnLU81fDqlSQ4zpu3Bw86fSSr6zOZaNCFt6eCfSYwqVsc96USk2srJygVrs20KYOwnAXTljOG9pGddxw8PLw4SJu3kz5XDRhYVImaEP3i3qsVBpcWYrKcgeODt6k02lks+cAsr4yNlJhSS7XRbWaHQhbUqEJuWwI9ORy3Yu66f4+gji6PvP5HppN970J2vB+h1HURMb63EHOwP563cHpaQblchfPns0PDW4oX2un00GjcTXgj4CbAF0maEP6o+98Bz987z38/Oe/QLdzkbS41wN6PWSyWVSWl7Fw7Rr+r3/377C8soLFxUWUy2W3TD6PTDaLTCaDg8NDpB4/xuuvv570KYlEohnQ48dZnJ7mtT/+LysoSEI2cII0DORpt4vodLID+y/LtbOdP/XBXQ33cdvwzw0tB86XPE5S6gN3uXwGAJibc3+sT1vi5GKxjWKxi8XFwXAcnbsoKGRs1HHqYEVpdRdLuQqazbxxHHEDnbjcOWEwJyooCgqx0oGhpSV/eRNc0dUfFuRwCKA6bNTyrRYwP28uawI0fOxBYVpRc97wPvb2snj2bA7FYgvLy+aVp0wuHAIvujAqDlCiOm74+CuVM3S7BSvHTRi0Ueee7gVdcmKqq34HqPDm8DCLdjuLZpPucf1qUqpMOWXm5ztoNnvI5z1oA8AHbeg9QRvAc9BweMMdNfy9m/umO9A3ldUvMe45e2icYTK5bmiO6/U0isVzAF54t8nJxI+Xy26o1MZGNXQMOqXTaZRK7mrRHTVO6xJLwM0VVH+58J/9DN1ux8150+2h0ANuXgSh/vGf/Ik/tKrXQ68H5AFkMxmk02ns7+8jlUrh3r17CZ6NSBSvqtXh/hMRBWt1tYXT09bADyFT4l7AHPYTdkxkp2Egzxdf+PfZJl2+bNcrKNSHpIKPs7MMGg13yWOvnenNXRR2jtMEdoLu5bBwJ3/98UAddRxxAZ0ofXW78z7oqj4I27Q9LMzRgSGe+Hh7u4xWK4fbtzPadoLqh+XaMYEcXSJiU3k1VIqO6+CLDtCQq0SXP0cta5PzRk1cTMmJ1Xp37jT6dcJcOLowqrhCpo6Oin3HDc2pTciUe3940CYsOTHdKzxJMZUn6eDN4aF7z6XT4bCGy5RU2IUvDnI5D3gQZOHQRIU2tM3lur42X750jGFSBHSoD/W9mkfHtMJV0DlyeMOBDensLItezw/OADO0ofw2X/nKy6HcNvm8mwvwKkrAzRWVulx4pVLBr7z1K74yFFp1eHjo5sTp9tBDD72L0CqCNycvX+Ltd95J4jREorEoapZ3UbgWFoBUKvxhl8ugApEtAAAgAElEQVSU2wXQu0KAcNhzduau2rS4aD0MEby5rFTOsLxcCixrG27ktju94GJUqQ++S0stnJ0FLwcO6AEItRe0b9IKAjthK2K59ScDdsLGaZPDJo7xjQJ0ovav6+v58zMA5X6fBC6igKM4YQ5/QHcTizcBLBrbUR/oTa6esDw5OjcMEAxy1FAptQ/VZUPnQO3ahEupeXNsIc6DB3PIZlMoFts+V41ab9whU7T0tw7gVCpVn+OGz4H3kO8lDOZwRZ1Pfu1094D6mt97BBzIVeMBiDbq9fRFmOOga0eV6rTxryBFoCOFZrOLXG4w1ImgDZVXoQrgLdFdraaRzZo/kwR0OLShXDsc4lBflIhYl2+HS3XZ0Hma5sYMaPzv6T4/PU37rqmNKDQqk7m6+OLqnrnIKskvhVa9//Ofo9vrodvzQquyuRwcx0Gj2cT777+Pt99+e0IjF4lEV0HqX1xtFAZ7Tk/dv9Q8fx6+ahPfH2UMV11Rwo2811cz6bKtc8fdBkMQai9o36QUdg9EXRELAHq9DIqGVZtGGWdcUKfQ0SfFHnYMQStdDQN0isU2lpf1YWY6cKSDHbbjHwbmFIttLCyYQ6xU0BTkyjHV9VwZwflu1DphoVJBy4OHuXHUMrqEyabj1M9nn3WMxwie8BCmoJApaofDF5oXHbChc6Clv3WA5+lTBwcHeayv68Kh0v15pddqGRXa6K6xCbL4Q6X8ThB6f34+WNYG2gD6PDDuPtd10247yGR62vAlnstGFzIVtqoUH9P8vLciFcGYg4NMf7UrwO+6UZMUB+WzUY/xuSkW3c8H7de5bgD//+F7e1mkUimcns7j4KCElZV66DmaXDbNZgu1Wh3ZbDxI4/j4BRYXl2JpaxwScCMKlT+0qttfTrwH9J03zUYTP/zhD7GxsYGNjY1kBywSia6swmDPyYn9qk2A/wejhHLFqyhgziYfT6fTQauVw/JyTtvmrEIeGxA2a3BnGLBzeprHzk7pIrfB+Jc6jwp1Pn+Zw7VU2ZecmMY2zLgmBXTCwMsw7pyoMMeU/ylqiJT/tbmuKU+OCeRQqFShUDTCGd6+yfETNVzKBITUftLpU6ysNHD7dnoAvgCug4Y7dIJgDZXncIbPS1hOG/X9gwdzmJs7x8bGKZrNglWYVBi00eW3obmlUCmuQacfT1LsvqdEv2GhUjoniu64mzzYQbvdAeD4ct2odVXHjeq+UdVsOhchWfCtSkWvqU3uuiHgRK6bajXdP2eSCnP4uZnAztlZFkDTB9BUQMbnlPalUimkUik8+2w+FNyYoE2tVketfopsxj68bdYl4EZkJYI3P/3p314sJ97rA5xcLte3r33++ecoFApYW1tLeMQikUhkp2GcPYAZJgASyhW3bOBFq+WGIqXT7l/LbMLrwpxWswJ5RoE7tK/ZzKBYbKFQyCuficnPhe58POiahQ6cAFAexsZ3DjowsXzSRLFY8yUn1jmJRoU6NkAHGHQIUWJxmz5t+oiapycI5jiO68jY358LbcsUIgXoEx+bwqToHPi5qPVozF6oVMro4lFBjil0KyhcStdeEOghiHN+Dnz00QKWllzHStSQKb6fw5gojhteRn1/eurg2bM5rK/73Uq20IZfFx3I0Tmt+P+1/nn0O0Dq9TRSqS6KxRaazcH/y3VhQdx1ozpp1CTFBwcOABeykChMiYdDkQum2XQGAE69nsWclxrN56oht83BQWYA2gCe62ZlpW1MTEzQx+036vdRB8fH/veAOVRK1Tfe2TG2bQqNajZbqNXraDaD83RdRgm4EVmL4M1PfvKTi+XEPYCTz+WQTrvLhT98+BBffPGFhE6JRKK+bt8G/v7vkx5FvLINCeKSUK7xK8p10cGMKEmXg/ZPm8Lm5fT09P9n792aZLfOK8GFe16LdeM55CHlIk1RF49t2XRH9zwoSD3ObxhZ8sPMD5h+mg63/0xL1vQ89bzNTMRMhHXYjpElSyJltWWKoiQe+vDw8LCyLnkHkADmYecHfNjYQCJvlVmn9oqoyASwsffGzqysxKq11ofJxEajkQ+eVJEicj83vQZVahhgt8HJdZU6VaTOKuu5iGy5vhbb6wQj11HnqG62F5E5RIwcHNiVyhxVXypljUx28GNVuTll56msUlXkDB3n86xjl1qkxuH98OOnpz5OT/1cOXCVZUruV1VR6vXXp/O1sHKKGzE/q0DY0Jz49crb5+ceXnklBKD+J0cd0kYmhvjrpYKs8qC+VMcnEweep1a4LFLgACioVLIqUhE8z8B0Wq6g4Rk0cpvBwILnJXDdCEFQVJzQcR5kzAmcXs9J7ZEq2xRBKHNWqzAl1qdoRePHZYXTaGSh0xHWuJ/9/CUleVNljbq4vCrsvyvQxI3GUiDy5kdz8kaobmIgSeB6gG1Z8FwXo9EIv/jFL/CNb3xjxzPW0NDQ2B9oK9d+YVMkT9na835dN4Lv27Asc2/XvNmcodVaTIqIx8W5RLsid3ZB7EytKZpoVbapIlfEY1HNIo+/7DrSmJaVDxavGnMZQmfT6py6NitATcao+qhLBpWdp7JK8XPk9lUBySpbleq43KYq9+aDDw7ScuDtdhY4LJ/7+us+W4N8qfB2209zb2geXJ1DGTYUQkz75X2q7dNTH2Fo5cqBy+B/y3jfVdv0OtBrXgZZbUPn0XazGWI0cmGVcDRlAcRAnmzJrEZxamfqdsU4s5mBVitS2qHKSm6r9gWBmdvPy4efn2e39UTa0DxOT2cYDCw8eeKi241yBA4ncahPeR40R04SAUIVM51m9jOVqkYFQd5EGA2LhNbh4RHeeOPNwv7eRQ+/+tWvavX/vOJOETfHx8e7nsJzgbffeQdnr72GH/zt3yJJkozAAZC4Lmzbhuu6GA6H+Jd/+Rd8/etf3/WUNTQW4uLiYtdT0NBQYt+sXLzqx11CXZKnjGg7P/fg+wm++CILsS1b731W8WzClpX1tRtyZ5EqRjwuR+ysGk5M8+GPVfNZROosQ+hUjbkNQqdKnTObBZhO1VaudcmcReeXWayKiqCkVk6OPMYiIqfKVpWpXcyUDOHKk3v38uXAOfFSReKUkTVEulB7WZ1DgcacgJGDieXti4sWTk99pbKGg5NR/Jr5epXZp+ooYzhZIytuHEdti1oEmeTgVZ6E/QiwbQOzWbFqFEFFiHAEgYUXXoglhY1awdPtRilpQ+1PT2cpYfPgQaAkcFQZPDQWJ234/Gi9BPHVWbhWGWEaYTy2MRpZmPrqylIdRXXXIAwULW8Gx8cnOxub404RNxqbw9nZGb79l3+Jdx8+xOXlJZI4RjzPvAFEyJzjOLi8uMCHH36Ir3zlKzuesYaGhsbdwjJqEsIidc9g0EQYFr8kaytXhjKirawcuHh8vvJ4tkHuDIcemk0vDbDd1vUumntZRaynF2207LZyfutYseoSLECRZOHnBUH9r/zrqmjK5lvV75Mn6muoY5FaNL9FZI5MCqisUhSevEpOjjy/KiKH91lmq+JteDlwImrKSB5ZQUN9cntUmeKmyiJVpoyhfaenA+XxKgKH5kPbqnNVf4dU7wnqS/V5qrJUVUFFsMgBxbKqRpTRztrw6lEEFWGTkUBqqxSQ2aV4dSpO2rhujCdP3JSwOT+3cXo6S9tSMDIvFU7jytdaFVDcnov5liW+Gt7dy6lZB5q4ueV48uQJHjx4sJOxz87O8J3vfhff/9730OtdpMRNkiTwPA+O48B2HPTOz/Ebw8CbbxZlbxoaGncDx8fiv6uyjHafbjY1Fqt7er0BTk7yXyC1lWt1rGvVAm4vybMsuWPbDsIwxLNnrXRf1pc6d2cb11k27/a9Ho7cJL3Bqsqyyfez+muySDnE1+jioomrq6w6lDyHOuOvQ+hUjdNuxzg+zlu5qC+CShWzaTKnLPOmLDxZJjL4Oap8nbpEDlfF8HUoCzCmcuAy0VNmjQLylabKSBxVBSqeNaOyTfHXjuY3nQrF4auvhunvtCrbpswuVWWVkomcRcSBirBRocy+BBQDiWkfWY5UxAxgYjabwbbN1L5URtbItqzrawvNpnoegrAJ4ftWOh7NQ6hlBJFD5A0g1DYnJ2FK3vR6DrrdiBE46uuW53ZxYSvbkhJHVjflA6GVQ2gsgCZubjna7fbO7Ujf+e538e7Dh/jFL36RqziFRFR/sGwb5+fnME0Tb7zxxs7mqaGhsXvwL1xA9c282FZ9ydfkzz5h01ausnBg0X85oVOVIROGu/+vXhiGiKJ45blQVRI3n1uNo6Ni27I8Hqr+MZlk5ButqeO4SJI4Demk/c1mlrd00+DX7Ps+4jhCs1lOHNDS0rWqrlMmEjZ1fcbMRGiEhddJfn3kuX76qVhvmmsZsbPsPF03/14xcI3DI3pfFOfAx2+3Y0QRjRsuHNswgM7cKdFhjglOmkwmNh4/dgCYBcKl2QwRhiHG43GuX94XPed99nr2vBxxnoDhc1bNrawPIgHofDp3NgvhuiGazSA9N7ue4nmdjnqsn/+8KbWfotOZpW1FQH02J7qmZnOU9iuP325HcJwZGo0Af/iHGVFD44k+AhwchLh/f6Y89od/eJ32+/gxzTHAyy+PMBgYGI+p/Qztdoz79/20bbs9w+FhgNlshvFYEIT37oU4PAwwHs9wcdGE5wGHhyOMxyYuL5twnPzxe/dGGI9nCAJxrljXAO12hMePLQAB2w/cuzfCbCbOffyY3iFBuraCILExGIhQ6dlsBt93MRrxEtjZ+zsMYxiGmb7n6X1DbQ0DGA4NuG6CMDQKf5eSJMZwCAAz2PYM0ylgGCbC0JwfT+A4Bq6vbXQ6UwSBBc+L4fsJDMOA75swDCN1LWTjGgiCBFEUYTiczY9HCEMbQSBCiw3DRq+XoNPxcXHh4fBwgvHYQ5KIvh1nhqdPXdy/f41Hj1q4f38I17Xx9KmLTmeGdnuCTsfCYCAoAc+L4Tjlf8eTJJrP0YLrRuj3LcTxDNPpJG0znarPNYww/V2zLFsZPlyFfn+ADz74dWH/a2dfwvGx4g/hhqEae10MBoOlBBiauLnleOGFF/Dffvnf8Jvf/GanihYKLX7v/ffntqks98ZxHFiWhS+efYHrqyu89Rd/sbN5amjUwfn5OT74YNezUCMIfJyf9wCID/xt4+zsDP/u3/33a/fz+PEQlvV5aiMgyNuTSf7P0vV10f/89Gm+DX0R4Gg2Q2lbfIkP/Bi248M0g9I2u4Q/9eFPfZiW2r++a0zGE/RwvtE+5UBI/p6oen/I743RyEI0Axx3kntP0OtsWVbhNebvgW0TgFEUw/ensG7gtTXnQ/CYAEVkAIBsTa+ukvncpphM7JTkGY2yu39aL76ON7WG2e/FuHDMNBdf62QiboZ9P9u+uqp/fYuuLZrM4Mc+ZrNqYm7RXOV5Xl3Z8xtFN53PKvMLQ2HVWzQHGt+2xe/Q+bmH0ailHHu5nJsQwCQ3BkBEhIde7xSNRjM3xuK8m6zPi4tMkvDoUXG+5Zk3og8+J37Nx8cTxLEF24rQbPJzi2PTefK4stWprH02R9F3VTvRl2gTBMDlZQtPn3o4Pp6kY927F6Z90JrQ8a99rZ8e++CDg/TYl740hGmamEyc3Dlf+tIQvi9utP/1Xzs4Pp7g+HiSlmq+uGim+wCqDtacr1+cazMauWi343QbsNPnz55lryMpe6hEOc1FtMlIMyJxACKtss//yQS5bXpf0Gs9mTgwzQBJEsMwiiqcIBCEjSBtBFnhujOEoZWqbizLRiONuLKRJDF834RlAY0G0m3DcGEYQKsFGIaFJBF9tloRwrBcARRFESzLhGGYSBIHzWaE4dCB40Sw7QTDoQPfd/DCCxEGg06qpPG8BHFsotUy0e+3cP9+gvPzLl5+2YfjAINBA5YlqlA5jiBjgsBBMr+HI3ieeP0Mw4TjRAgCA+12AsCC4wDX1y6SxIPrqpU6hNnMhTN/KYy55Obtt59UnsNxcNDFK6/sxmUCYCtj9/uDpb7La+LmlqPf78NxHZx/8QX619f4i3/zb3Y2FyJvfvqznyGOM9tUkiRwHRemZSIIQ7z33nu6VLjGXmPXfxyq0O+LD/hXXnmAbtmd2AaxqVD3VquFk5PTjfRVB6NR/ssfYTwewXFcBIEHLnwYjaz0RpWwC/VPv3+NZrMFxymSUfuAHs5v9HVcBuLG1MfBQd5ukX8vNKVjGYnS623XyhWGISzLxMHBC7Xa3xSIHOt2xU19qyVJeiC+jIu1cufP+Zpm6p5eLzurTOEi76uLsU3zq67cVAaZBMyQ3WyMRm6JAiy7trLrMgwb9gsxuuZ6n8vqecpzzK+/PD+VPSkMw1rvveL4CYDZfCwrR3QNhyY+/3w5WxQgblzla+v1rtFoePP+3cr+VX3zPl99tTjfRX0V5zSbr20LURTh4sJCfyAWR7ZZZefSedm4n39eVAS9+mqYa//smbhmmiO1dV0aq7pdsxnipZd8tFpWaiX83e/yaqC33grT6xmNTPzud5byGM333r0Qr75Ktpf8/q9+NUqJLbI5vfoqAOT3ua6JVquFx48TnJ76ePVVA0ALw6ED1w1xdCSOP3vmzG1UHbhuVj5akDbtdB2ePXMwHLq57asrsc6um61xVZlwAIgiN1Wj+b4By4rgOC5mM7uQXeM4QJJgnhcD+L64dbZtoN0uWqYAIAyd9B8SYSjO8bwE7XaMyYSTPECjkcD37VSdI64le2+LjJwYs5mTZuY0GoBpCmVqtxvhhReEZSoMrTl546DRiAEYCEMRVNzrOQhD0fbzz5t48CCAaSYYDNw5IZjANAWp6/tWbh1msywHx/dtNJt5gsbzYjSby/1DotOJMR4Djx51cXZWn7hQfe917OVydVbFtr5za+LmDuHq6gpJksCybYRhiL/7u7/Dm2++iVfFJ+iNg8ibn/zkH4XqZl5xCkkCx3VxeHiIV155ZSdz09CoC9f1boQUWRWDwWCv57cPKLPv9PsTNJsG6vAi/KZebJdXZ6pqs+gmnx+fTGyll11jddwGK9dtwDLruEoeT3GMm8/jqcqMIZSFKvd6HThPXViWpZz7pq5nUa6Nam6CSDjGZ5/lM1poXnXnVDdTR5XrUzfrZlGGDr8mua86mTdyf3XKg2dVpWzlufLYPMtmUfCxat5VOTlcwcODkSeTFo6OLFBGDg8pljN0eEUpIJ+dQz+UZ8OzaohQ4aHHVWHFlHNC4cS8DVUn5Fk39DpwpQ3NS36uqj5VJ+NGhuclpdaesiwbObxXRlWobxxbcytX1geVEOfgAcejUQOWJYiTIEAaKBwEZhpKzMOG6TkAPHgQpPk2PKSY2vm+MW8bpfNw3fz4/LrpWnilqSCw0M7/v6QS4jW20elESxM3dx2auLll+Pu//3t885vfxLNnz/Db3/4W4/EYnufBtm2YloVms4nf/fZ36PV6+MY3vrGTORJ586Mf/QgxqzbVTIBXXnkFB4p/J51/8QVOX3zxpqeqoaFxQ/jkk13PYHmoJPrLYlnyZzz28PRpG5ZVTgiUzUVn/2wWywQHE6qCmqkc+HhcLOcsj1nn2D5jmbWrS/IEgY1mM0Sj4ZWu002sUXk48ec4co/hOE4lgZL1s3lyp2rde70LNBp2bl6LgpNp3zrBxdk41aTO9XUTjYaZ9rVK39uoSNVuR3BdIAybKemqmouKmKkTfMzHK2uvKl3OiZxOZwJgguHwhVx/+VBkP0f0yNWmZJKHyKfXX8/Oo1LgfD8PK84ImGwf/S6cn3s4OjILpI4qoJgeaSw5yJiuiRM4vG0dqKpDqUgJFaoIHaoixcfh7VutCNOpgTg2U1KESBaOfMBxVBgzCMwceQMgLe0tkzYAco9E7BDh0+s5oMwfGqeszLm8z/MSzGZRKamjCi+mcOLRyMKjTw4A1LdLqRDFCfZTo7x57IS42Zda6LcR3/zmN/Huw4f45S9/icOjI3S7XcRxjIbXgOMI8sZreBj0+/jgXz7A177+tZ3M8+133sHZa6/hf/vBD3KBxSrSBgCefv45Li4vddlwDQ2N5wrLkj/9/gjNZlKwSlURAoSqCk5ibE3+bBtVqhRVOXBAV+WqS/KMx+O5zaD4X/V9qKzViDL/Q51rqlMOfdPkzqJ5lZU6X7ciVpXyhY+nIrcWjbWMqkbVJ1+Tsn76fRNxHCsJFkBdXYrGpT6WJXPk9mWVpp49c9DvH8G2R3jxRbUiR1VWvExxI5M1XKlDVaTk/YKgsXKEDV2jCAT2cHrqI4ryVip+DTJpU1ZxSqW4kStKcRWODCITZEIhCAw0m2qCQpAncWm1pTrIW4/EeIBZIEiArIy4PG/TzO+Ty45zAqjbjVKyRlbdEHHDrzWvuqkGraHI0ckTPvx5nb7k7xwa1dCKmwW4uOgtbnTD4EHAURQhiqJ5IHADruPCsky4roveRW+nocVnZ2f4H7/9bfzt97+POI5x+mJ5LsLR0REePXoEQ5cN19DQ0ChgVbsPxyasX6PRMfp9XqlHkz/rYl+sXJZli3+0JPtr5Wo2Z2i1FtuZgPLKWqr9VQSJvH9T2Edypw6xs8xcFs2Dj2dZE5yc+LmxeN8y+SKPs0lCh2+32zFcl/Kz/EIfZaQMJ1A46pI5KoJGZem6d09U5PrXf41K2/3xH49zfRXLhmclwIEiWUPHZIsU2Zp4fxlhk5E4vZ5aZdNuR5J1KkqVNjRfTtrQcRqLEziqNVZBRSoEgVXLPk0oU+Lw47LqhiOOTZhmBMAsEDRiPtV5MbOZgdnMgG0n820rfU5QqW7keQwGFk5PZ0ryqC5UyiP+SG3KSBwDuy8KcZugiZtbijRL5h//EbPZDHEUIYpjJI0EruvCsi04joPz83P0+338xY4qOZ2dneE//s3f4N2HD3EpJ38yPH78GLYuG66hoaGxNWzC+vX4cR9HR9lXh03k/pTNRRNA1di0levZMwemaWI4fD6sXOvatVQqHtGfmii5DKKN51NtitwBgDjuIoqy381VyJ0qyxLNZZE9rC7BVHXtizJv8ucvn3tD2S50PlmlptPMvrMMKcQJnHWVOSrbVKMRwJ6Hd7/+ep5cUuXkvP76FNxWVEXkcLKGq2voPJmgUqluAGGVEgHEZnrN/FyZQJMtU5z0IcKGkzo0/zpWKZlECEMTSWKlobvC7hSlz1Xn1AVZmnhfAGDbCcZjcx4iLDCbFQkhmZChNvy8KhBpA2BuicpInUUEkZxzswjyGsl2NNlCZRgG3nprs1Uqn3c8t8TN8fEJLi4udj2NrYLsSP/7f/7PqfImnpfi9hIXti3KcIdhiB/+8If48pe/vPPQ4kePHuHs7Czd3+v18OjjRwjDEI5tw7IsPHv2DAA0eaOhoaGxZxClaDer/tmc9cvB9XWA6bR4c7rufJ8XVL12IicDaLXyX763aeXal9ejLslTthbPnjm48D1cfdpJ86luKnS5LrlzeTkB0MnNWRxbjVgpm8uqxA6p+VSql2XGqRtkLG/XsUpxQqd4vprQqavOkc+rQ+YQ6fHZZyYmk1hJ0pAtqionp4rIUZE18vh8vjJh8+yZg4ODKdptH0Aj3ZeRMnGOnJFJG07eyOfKJI0qzHgVyEQF3yYygsgPUW0qTsmIIEChrQpxbME0I8xmZkrOyCTNdGrO+7GgKqZHJA5X31A/8j6V/YrmGASiOhXP6aFjmSUqu05+bSLjRn2N1J9sT+MEz3T63FIRW8Fzu1pkt/noo9/seCbbxdnZGf7X//Af8P3vfQ+9iwtEcSzIm1h4MR1H/Aet2Wjid7/7HS4uLvCnf/qnO50vALz78CF6FxcYj0bodg/QareQeB4cR5BNX3zxBfr9vi4brqGhofEcYl+sX2L8xaqRfVaWbBurvFZVZM9ttnJVrcVJf4Zmc5jmU61SWWtbBFe7HWM6neHkpKj2INRV7qxD7lQRLiI8+d7Sip26FilxHcuTOiqr1DJ9lVmm6mbwqMgRmcxxXR+maeK114pWLpV1SiZq5Da8shRQJGuIZKFzaZ5l+y8vbTSbs9y+0chU5tpUPdL1qkgZ1dhl/xSoC1XOTBCYKWlB2TdZ+ex4TvJkbbIy2mo1jay6IbKm0YjT/UmSYDoV5A0RMtNpRvhQuzIipwzdblS4Rn59MtFC6qFiULKoKlUW+EzkDd9H+OpXLxfO8yZxXeEO2Qc8t8QNIMibN998E7/5zW+eewLnO9/9Lt59+BDvv/8+ZrNZqr5JkiQlQzzPQ7/fxwcffICvfW03ocWEt995B+8+fIh//eSTedWpfNlw0zTh+z7ee+89Td5oaDwHeO89B9Np8V9GZcF0VTcBq5yj8fxBdcMmcjLq1yWtQ/5woqGsTR1lDy8HXtbmecGqxNxtt3JNrSkc0A3melYt4GZJnk3aslatTrWIdFGNvSjrp45Nivov61tYkZJUzVfXLqWaYxWhU2XXqiJzosisVOaUKW44UcPDitXlw6PC+YvKhPPXbDSy8OqrmcpGtj4teuR2KRUps2h7GciWH05ccAKCK3FElabsHFKxAFCqcQAqDZ7PrOl0xDnTqYnh0EKnE81JGCNVtsiWKiJ7bDspJWzKbFFUWlwVWEzgGTVEVgHIlR0nUqvKVqWymy1TDlwXN3rOiRsCqW/2MWh4kyA70k9/9jNE89ybOI7RbDTguC5sy4Lrurjo9fDRRx/hy1/+8l7M9+fvvZcrG54AKdkU+D7effddnJ2d5SxWGhoatwt//uchBoNxYb9845ztL//SpfpvW1V7fvM2HrfheQ1YlqXJIQ0l+bMK6hBAZeXAs7F17s9dtXKtS/LUCV0eDjsIAhO8uOey17eMpUw1vypyh8qBl6veqsdetyJWFalzdRXh4iIu7Vcmi1QKm+zc+pWu6p4XxzFOT33cv58PIQaKJA1QrrgB8vYovp5lFin5GJ87ES2npwNMJjYAO1XMcGKH71uHvFFBpQJRodOZAbDSfBsiMU5PBVsyGFg5kl0JrpkAACAASURBVIODn0OKFE5qiDbqcQ0jy3wh5czVlbg9Pzyc4erKhueFmM0MOE4x74ara6ZTod5RkTdVKhyyQ8lrRSSM66qJn0Uhzbx/FXzfWIq40bgjxA1A5M3zX62IyJB/+PGPhfJmbptqJgkS14Vt27AdJ7UivfXWW3sx33/86U/TkuH047puqhT65JNP0Gg0cP/+/Z3OV0NDY7NY9CV9E+A3dsOhD88z4Djqm2fCOuRQfv/y5JDG7UMdAqisHDhBW79Ww75YuZLEhhc3MHK2a+ValeQxTSpp7aX78v1utjrVsuTOZGIrrVF151SH2KlSClURO+12DNP0cXDQgAxZJbMKqbMKocPPmUxsXF118MUXzcI5f/zHYaG9TOaoiBqVfUq2IwFqIocfA4DpFHOrVDNdg7Iy38uQN3xdq/4+87BhFRoNA1EUYTx2c/uJcCDSptuNUmIGQMEORfuobbcb5QJ5OfmRqWTE+njzYo0yadPpRLi+dtBqJTllDYHn2XALlRxezM+h+dEj30eoKlMuK2tct2i54uvD11Je30efHAB4UjimocadIW7uEt5+5x28/c47+Nvvfx+9Xk+ob9LcGw/2PAQ4CAI8fPgQX/7yl/HKK6/sdL4A8OMf/xhxEiOJM9uUqJBlw3VdfPjhhzAMA/fu3dvZXDU0NG4f+JfdKJqh2YzhOPVKCteFSjlU9UVStt8Qer1DOI6bBpxybIocuu036s8rNqH+Wcf6FQTiK6Hrus+9+mcbVq7PehY6rgfLKt5Ulo21bQKNkxn9/gTNpqEse1wVuizv21ToskzuWNYAJydeYV7LKnfK9y0fnCz2W4iiCLZt4MUX1VW56pBFi4ONl1faEE5Pfdy7N8TBQVLrHFLcLEPm8Pmrsm6oL55hQzg/F68rrypFKhtaR14OXEXW5AOM84+yAodbeyh7pgqOk72niWzhzzkRI67HVhIV3W6E09NZTp1D1iJqTzYnIlySxEifEzqdCFdXdkreWFaIJMmOk9Km0YhzuTb0mJUJz8aSwUkVuj6+blwtJGfccPLGdWNcXzt44YUioSWPpyJvzs8VqcsapdDEzXOMv/zOd/Duw4f4xT/9E2as6lTDa4jQYstEo9HA7377W1xcXOBP/uRPdjZXIm/+vx/9qGCbcgHYlgXPdfHhr3+NJ0+e4M/+7M92NlcNjV2i3x+gy43UGnsB9Y3t8jdiJyfXaDZbacApx6bIoWWVQ/w6rq+bypLCVedo3BzWIX/GY2GzaLVaS6t/7or1q4rwaTR8NJtW4Xf3Nli5liGybjKPp65yRx53FeVO1VhhGOLiIgCQ1XuvG5xcloPD51zVF82zrCT4aGTis89aCEMbJydubjzKrqExCFX2qUVkjqy64aocOp+vUbsd4fR0zKxSWRWpOsobmaShdZNVNqtk2hBhMRzac6uUACdlej0nJW2IkAEyRYqsyuEkT568KQYLE2Ezm5mYzYBOVvQNgFDfNBoxplMgikxEUXm2jWyFomN8XH6ciBeutBGETF5BBBRJF35NvFy6rCriKMu+uU02qePj451XrNbEzXMOIkR+9rOfCeKGyJukkbMiXV9f48MPP8RXvvKVnc717LXX8IMf/CBV3dAPSHnjeRgNh/jVr36FP/qjP9rZXDU0NDRuGpsih8qwqbyhRecsqwLS5NDN46bUP8tYv4LAQBzHODlRV5RZZ66bwNSaoglVAPv+WLni2ISzppVrVasWh4rkieNuoRy4GKea5Kkzn3XJHdcVVp+Dg+qqXIv6r2ub4nOtCmCmPsJQ2DAt60ip8JHPU5E0KnUOqWr4fFRkTn7+mQKGK2/IKgUg3c9VNtSfqgQ4R51sm0V5NrJFCIgxHNo5NRq3EnHSxnXjNPeGExXcZpTPtsl+l1Vlv+n5cGimZAsnXaZTE1GUIEkMGHPeJooyssayUFDdUNaNiszhFiqaG81XDhsm5JU0mU2KyJ/ZLMbVFdLgfSJ2ykqQ07mGYeD0ZFQ4dnW1X5Wm9gmauLkDIPLmR//wD7ncmyRO4HqCvHFdF+fn57BME2/sMLT47OwM3/72t/G33/9+bp5JksADYNs2HNfF5eUlfv3rX+OrX/3qzuaqoaGh8TyhTt7QslWbZGybHBqNjtHve4rWmhy6aWya/BmPJ5hM1Eq0TVT92if1zzasXOfnHjzvZq1cy5A8jx9PcHTUVFqjxPPVlTzrkDsA0O87CEMXJyduoZ+6lilV32WEDO2rsk7xPsjK1Wo56TlcbVOn0lVG1MSV6hwVmcMJosxeVW6VEoRNXCCWZCKHxiizSFWROGXWHALPeel0ZhgO7ZxKhocTE2nz4IFIGH7yxC3tF0CO2ODgdiiyOwGinDdZshxHEDJhaMA0E5BrOgyN9DmRNXFsII6Ra1eVbaMic+Q1o3lzhQytpWyZoudRZMO280odyhTyvIgRXHHhNbl/f1KyihoqaOLmjoDULH//X/8rLnq91DYVJzE814Pt2LBtW4QWDwY7LcF9dnaG//g3f4Pvf+97uLy8nBM3QoHT8DzYjgPHcdDr9fCbDz/EmztUCWloaGho1Ecdcmgd9HoXaDTUOWibVA6tQvTI5cDrnHPXwdfGMGK02z5areUtEZtQ/ywidi5HLbhHQtFS1mbbqLZyjdBsJhu3clWRYMtcf7M5qyQ/VHNelH9TNhcVIVVF7nBFizzuopBjvq+q2hTvo25FLOqPrFyGobZyySSQqkR42TllRA1vp1YOZcqb01Mfk4mN0chNlT4qlQ3PyaE+yqxS8uuwDLgSRGXh8bwEvZ4gajhpw7NtiMTh+4i4kC1Dcvlu2idsUKLst2UBYQgAgrABBFkDJJjNTFhWgjgWfYrnWTvLEiocy8qrdXh2DidrVOSNSh1DBA1dUx4mO1cogshqRSAVEuUM8ZBo140Rhhb+z//rdXz1q1phUxeauLlDoJLa7z58iH/65S8RzWaCwGnF8BJvnntjwfd9vP/++zvPkfnOd7+L73/ve+j1eogTkXuDufLGsQXRdN7rwfjNR/jym7stba6hoaGhsR/YNjkErKYc4uXA67TXYdSbw01YvzzDw/m5lwsW34T6Z9uv375YuYLATs+rk31Tp93mQpc9hOE1Dg7WU+4sVtgUVTaqPuX+Go0Avm/gxRflvuorbmg+pLpZZKOivBs+DzmgmEBVpaLIzeXb0HuFZ9zkX4eMtFHtq0PcEIlCyg8gH1gcBCbC0E5LYvPcF07akMqGnqtUNzJxwQkSXrKbtuWMGkHe5APEw9CYlww34bq0nqItkTfTqTFvK8gbKhsuByGrCBvax0mbrAy4mtTyfSOnaApDE7adnauyYHlegiAoKqFWJd/uKjRxcwdB1qn33n8fsyhCHM0tSYn4T4w1J2/2Ad/57nfx7sOHeP/99/O5N41GOtfz8y9gmAbeeOONXU9XQ0NDQ+MOYBVyaFE5cBnLkkPrhlFThkyjUcwZKTsn2/f8k0OLyJ9+fwKj46NrlofHr1P1Kz/28tavTWIbVq6LiybC0CnsX8fKtcw8F+XxPHt2jM8+a+XGrbJqrUvuUH91lDtXVxEuLrJwXRVRJCtugCJBQ+eqSZoiUVPWVr7Wy0thlTo6kvNt1OobWXHDn69yoy9blzwvSkmWbjfC559b6HR89PsGut0Eg4GwSD154qZEDZUClwmcMlAAMbdEySDShFujANHeMISqBhAEjWEIS5Tvm/N9og/TFMcdJ0kJG1LfyCQNDzEum5NM1qgsTjzzxvNYHum8vZz3I2cF8dLsd90q1e12MRjUD2jWxM0dRVqC+yc/mefeCOtUs9GA47qwFaVodwWa68/fey+rNpUkQAI4rlAJffHFF7i+vsZbb72149lqaGio8NFHDsbj5bNHim3r34zchZtJjecXN60cGo8nME0TUVR+M7KNSmV12gNIgzn3GY2owR0EBWxC+QOsZv3q9Q7hOG6qCNpF7k8VkaIqBw7cnJVrkYrn4OACJydEuGymslaZwqZsjLL+XdeHaUbpttzvMsHJZaoblX2rjKCS252ein8GR1FLSdgQmVPHMpWNkV/7RZk2QD6DhRMUjhOlGTfn53aBtDk5CecEhFNQ3JychOj1svchJ0RkgqTMMiXmkMxzbDL1jciv4ddoIo6BJBHtgEx1E4bG3FpFihtBApWRNVx9w0OLZeUNrVNerVSE58UwTaFu4pW3uHKJyC+Or35l/SpNlnkL/jhsCJq4ucPgVZwiVi68mSR4dc/UK0Te/ONPfzoPLI4huJsE7tziFQQBfvH++/iGLhWuobFX+OQT8V+28bjM31+fKC7LIqnb73Rq5G5eCNsihDTRpLHPkDNkgBitVnnlnGWxyTDqy8sDAIDrFomlu1apbBUC6OTkGs1mK8242XTVr6q5rEMA7bOVa9U8HmC18umy0ob67vdNxHMJRp1+OTlD/SxD7KgsUnxbDikOAg+mOYRhqKtOZYqbSBFYrLZKyagibcjew/NniFAIAqDTCVJVEFmmTk5CnJ/bKWkDCHUOqW9oHydtyiATNrKFCRAqGSBT0GRqG5EfI8gaYDYTuTMxe4vEsSBh6BzRV0YCVeXb8IpUZaHFPIyYE2T0aBgGgsCCaeazfmh9ab3oXF7Vax2YpgnHsWCZFWz5cwZN3NxxnJ2d4a//+q/x7sOH+Od//mdEUYQvv/EG/uAP/mDXUyuAyJt/+PGP58HKc/VNM0lLm0+nPt5/73382Z9r8kZDY59wcEA3hkXc5M1Sv5+/eSGU3WDKWFamXZdoon7LiCUZdQmhZdd2Ub8iYHK9csIadwebVA3dvz8GALRa+ZLbN1HGvg7Rcz5JcDTyShUtqnN2iW2of9axfg0G3bQi3Lrkzz5aucqCiVXjL1tZK45DmKaZkh9ivy/1UR3kLNu8OEEjj11G7JSrhyyEYRONhpW25dfFyRh5TJkk4qiyTnEiRw7WdV1RxYnyWMJQVJYaDDycns5wfm7DdTMSh8Czb1TgwcC0TWQIV73IRA5Xy0SRsElFkQnTFMHESRIDMBHHCQwjmZfSzq6PCBrTzCpMOU6SWqZ4vg1l65DCRjUvaqcq5a0iyLhVitaUEzZ83Twvr7o5O6tvE+JwbAuOc/dojLt3xRpKvP3OOykxss+QyRvxYREDSQLX9WDZFvxgP/J5NDQ0bg/qfrnf9k1XGbEkY1dE02CgvnmpwjZVR3LfRCyt26/G7cG+hFG3khbiOE6Jm5uoVLYP5NCqJAnHaGTCcUQ5cLG9vPpnE8qffbZyVY1pmkJxo1LbqPrLSJly1U0dcqdqbnlLVQTb9pEkbtpGla8jq2y4bYpfr+p5GXhFJJXqBohxdWWj3Q5yVqnzc2Gd8v38GBRgTCoUTm6oQoA5McKJHFLYkEqm1YoxHlP1KMx/DAg+hJM6wjZKuTcAkCSYZ+Jk1ioRcpykjzQXDploqgKtl8qSZhgGDCMrJQ4gDXnmSh1+fhCYaDSqrW0q3EWVDYcmbjRuHbjFK0mSjMAB4GK/8nk0NDQ0toFdEU29nvrmpQp1SSbRtv7ntypvhYildfrdFtFUVg583X41to865NCz0SWO3GMs4FxLsSnlUFn76dTA4aGlVPPtOoy63Y4xnc6WsiDJ2Lb16/q6iSgqVj7ibXZl5YpjQcR0OuH8WF5to+qrbmWtKuVNlRKIW6WazRmurky8+GKcnqOqIiX3wduUETxlWJTJAmQKGseJMRw6ODpCgbyhPlRqG5UiBciHApO6hVuSAKGEAQRBE0WClAGQKm9Mk/YJqxSRN4KkwXx/1s4wsjLhIt8GqQKHZ98QkTQcWrDtBI1GnCOZykKL+ZrK5I3vZ1WlgEx1Q+ulCiX2fQONRoL/5/99Ff/z//QvpWNyXF1douGt+AH7nEATNxq3EmdnZ/j2t7+N/+O//BfEUSQInLlU70tv6NLgGhoaGvuCVfMsVsEqxJKMbamZVOXAN9Hvpmxz06mHOI7QapXfUK3Sr0Y9bFs51O9fI447SjXftiqV5fdXk0OyWm559d1+Wb8WzSVTr1Sra+rMzTRNnJ97GI/rW7m46oa2V83jWWRb6/dtTCZGjojJW6aswpqprFO0vU4J6Yx0iNMg3U4nQBhaGAy8tPpRPpTYSkOIZTKCgytqAHVuzHRqpEoTWXVDiplMcQMApLoRx5IEORUOqW0sSxA4ppnk+iOQ+oYqVzUacWqXIqiqTcmqInkdxWOMJDFz7eWy6vyREz+9Xr2/1794/+e4urqs1fZ5hiZuNG4tzs7O8L/8+38v8nl+9SvEcYzj42N86Q++tOupaWhoaGjcUmxLzbRsOfC62BTR5DgOJpMsh2PZfKY6WEfNNJ2KL/iNhnpemmhajHY7huOoSITt2sqq3iNEhMhquZuoVKYmVNR2Kcua4OSkXToGxybUP8uQP2EY4vTUx/37xc+WTVi5yoKJVSSKivxpNAI0myFefNGW2ohHlSVKpfKpS9rIihBul8ofFyTDcGjDdaMcGcNDiYm0ITKC+gDy5Axlw9B+gkrFEkVCXZMkRkqwJImRKm+IfCHSJknyRAwHWadMM0nPp6pTRNbw/BtAkEzcKtXpROn8+TVx0oavIw8o9v0kZ5UqU9zwsuxkQzs7m6ovao6rq0v84v2fV7a5S7hx4ub4+Pimh9R4znFb8nk0NDQ0NDQ2jU0RTWEYYjLxcXDQ2MS0lLhJ29wm+l2GaEqSFxA1vYXB4sv2e9uIpkVkSBnqquVuIowaKL5Gg0E3tUrVaZ/tr1aklGEZ8ieKTPh+gi++aBXaVBFAGSGTKW+K8ygne+R1LQtjvrqKc4oe/lzuR6W8KSOLFhE5nGSoIm9E5SsztUqRysbzErhunJI2IpsFSrUNJ2c4IcL3RxFSK5PvZ204eSO2s0f+nB4p28YwiNDJSJskQZqTQxYpUaUK8zZI1wQQhM10amI4tFIVTln2jRzyTNtBYCkrUhFZQ4+qilIffniAR4+6ypBirbIpQituNDQ09h4nJ5rw3RWOj092PQUNDY3nBOvY5sZjkdvRat1cjt0yZNB4bGJsjNFFd2H7baiZgGpCaDxuw/MasCxrBRvS/qiZdhVG7TgTAJ3Sc3YRRk3bruuXqvkW2bqAauWNetxipg8nUeT163aBiwsTrVZWDpyfx9U9XLFDx8qqS9WpKMVLgXPyhiofuW6M4+PMKiXmK8YSBI6T2+aPHKRSIdJDth1FbAnHY9GGyBp6FGoZo6CsUZE39EhhxUlizJU3wgoFGLBt0ZHIwRH9E688m4nHqyvxnjk8nOHqys5l3siQy4LT+gYBUsUNt1Zx2xStG1mlaF6el+wVabPvRJEmbhag17vY9RQ0NDQ0NDQ0NDRuGMuomfr9ybwi3OKyz9tCFdE0HPrwPAOOs1xVOOBmbHO8HHix7c0STar90+kMJyebe203qRzq9x2EoYtGo5nbX5cc4tuqsuVyBk0d6xffjiITYZig1Spm+uSJJZ5xFOWeVxFgqmP5DJa8xYeXAg8CE6ZpIUniAkEjyJ78vrLMFw5SrcjkjWUBnhenahtS2ojwYYDn2ZDahrZfe+0RAODs7GM8evQaPv74NVAIMbUzDMA0DSRJAsMAZjMzJW9kISCVCieS5urKxuHhrJDTwyETMZldKobvW2g2Uai2xdVJnLTh56sUN/tOoOwKmrjR0NDQ0Ng6PvvMXBjKWoVlrAVVmExsxLEJx9luKcnbZm/Q0NBYD1NriiaKVpWbRNXnThTN0GyKjJt9+HySiQteDrzYdve2uTguJ5ZkLKcsU6toVFCRKgDZHMc4OMjfcG+2Utly2VJ8rmEYot/PW7Tkuan2lal/qlQ3KnWNbJECkNqkAODy0oLrGphOhT2KCJwgMNPS4ZysCILi9fKcG1Ld0COpbcLQyClvCES8CBJH7OOqm7/6q+/htdc+Zmc8xA9/+A4ePnwnbU+2KSJkaC4iNwfzUGKkpcH5vKdTM7VMzWZGSjzx8GK6fk7e0FonSYKDgwRhmLWj9SNrme8bCtJGqJRUihsNNTRxo6GhoaGxVQzW/Ju8zBfxRRiPPXhevRyKdbBq1Yvp1IDjuFufXxkWEWRV/xXfBeQbJF6yd98QhkAYNjGdOhsjIjeJMDRLy5Xvw43+vqNjdBGGobJqk0YRxfDp2VIKmJvG48flxBLHLtRMURQVFDerqo4WBzarqz9VwTRNeN4U7bZX+ve8ah0WqX04yqxRMvh+skrZtlCH+H42BqluqM+6NilSrgiiJhuL8mjCkNagOL8k5VYMvPPODyXSRuBb33qI1177GP/pP/1VjrwR54scHVEmPIHjJOm4FHosri0jaGjunU6UK10uq29UihvDMNDvG6niBsgTOPJrQOfJZI7GYmjiRkNDQ0Njq+h2gZdfjjEY7M5CQOj3R2g2k729uer3r+d2i5ufXx1yrOq/4rvAOmVhbxqmaSKe/xu17s3aTYICTlXKuH1Y5yAQX1ld1619zk0SZEFgII5jNBqrE5vbJCiGQw/NmuHJy2IT6zyZ2Li6im7ss2/ZtW42y4mldfrdBFSKm22ojoDViCZhlWqWqm55zs2ivlRZNyrI1Y/4PtnqNB57aLeFjIarbWRbFCdt6BjZoeQqUo1GjNnMYDYopMoXCgu2rGRul5IrSIntd975Ib71rYel1/jaa4/wb//t/42f/OR/yIUWyyACx5xfCs3B90XmDc0XyFRC3O7F14NXhiLFEpDA86ptZCoFFM2n1/NwcuKXXqdGBk3caGhoaGhoaNS64aj6r/guIM9lmZK9N42bqNq0DrKbv/38ajgejwEArVZ9O9KmlHp10Asu0I7baDRWJ0a2SZARcbgN4mYTROR43MF0un01JLDaOo9Gx/jss11b4dTkRhTZ8H0DrdY+qSGzLJswDBGGAVot9WfLot/TZRQ3wGJFB1eDAEAQzDAaZUpXOl9W13ClCT/GS2hztQo9tyxB2jhOklZ6sqwEs5m4bsNIUrImUcfLlOLrX/8cP/kJ0nNV5E0UGXDdJK1oBRipZYqIGZ7JQ4ohbpUS65SpbXhlqCAw4PtAGFrp2skEDtnL+NpTMPFtIW2Oj09wcbHb7Nv9/OusoaGhoaGhoaGhsQZukmT0nQSN2Qyt1upjbnO+IjzZwJ6KDfdeDdnrXeDk5OaIQBWqCI7LyyGOjuqr0baFfP6MsEUJYmmGJFl9/VYh27jaRgYndBoNYDabpFYzIh3KrFZVpcABdUUpUtXQo2kCth2nlikV4UKBxNPpBNPJFIdHR6VtOJJE9C9KgwOGQdWlkkLGDc2XUFVVSia8svFExo1h1FfeUcbNo0fd0nLgGkVo4kZDQ0NDQ0NDQ0NjDTRm+6mk0qhGXVXWZGJvzX5Ur8/qsQeDJsJwOdJrWwqvTVjn5Lmp+qxrlyoDKWeiyEIUJTmViKr6EQUVy5DVNkBGhsikDqlu4lgoYUxTZNFkahlRFQow8PHHZ3jttY9TQmk6nRQqh4nqUqSkyRDHBixL9E1zobGFsChJbVLcKkXbtp3kCBxeEYpChwFB5oShPc+4MUvJHZlE830DpqnzbZaFJm40NDQ0NDQ0NDQ01sTUnqK1xcpS61i/qirqbfoGfpV5jsdteF6j0iq1DaKhLsmwLDGyafVUWUUpwmr5Y2FhnnVeu0Wvwyb6qEPUlOXdqPJtaD8nXqji0WQSIwzjQhlrqirFK0vx8tYAcuG+RHYMh5ZEfhhplSjKuYkiE6ZJ+TO89Hc250ePXgOQZdzIpA0AfPzxWfqcq3YsK0kfk8SAaYoy5I6TpBWmCNwiJcaJcwQOUMz34WvbaMxgGCbi2M2VUuftVQHFNI+7rrbpdrsYDAbodrsL22riRkNDQ0NDQ0NDY6PYdL7MdGojjmMMh5u10mxqnkFgwIeDa9eb97tfIcBVFfVummRQYTj04XlGpVWq3d5dFkavN8DJyfYyZNYlOy4u6hFLqxAmxTbV7xf5eBjOYNtxLr+F3iPLlCyXiRpVm7JQYh6uyy1Qg4EFxwGSpBhEzPsgxYlsk+J5MLOZgasrO7UbUdAvkJXjjiIRRsxzbYhw4Y9JkuDjj1/DD3/4Dr71rYdK0ubdd9/Bw4ffApE9ZJECRDlxky1tHItcG6pyRfPhShsCz7mRbVNceUOPUeQiSRIcHcVQZcfLlaZo/U3TwPHxTIcTLwFN3GhoaGhoaGjceWwjyJbfWPBy4Ov1uZ15qkoKr4tNVnWaTiOYpglFzMNaaLfjjcxzPJ7ANE00GuG83/26Edn3DJkomqHZjOE4N5dLtAxZcn3dRBSpKq6try4B1idMms1ZLcJMfl/WJU54u/xz9bXx66GMmxdfjNPzqQ+6JrlPVSAxPbbbUeWaqipJccKGqz+63QhXV2KOrptVRuJlxfk5cuUkbpEaDi10OlGOsKHjcWzMSRMB0wTiWKhxABFQLGxSeeWMIGZElg0vC/7DH2akjWHkz8kTNpn6JgyNQsYNL2HO5ytbpWitOOFFaxqG0dx25qXrReHF4rXI3re8GpXnJbi4sDVpswQ0caOhoaGhoXHLsK1qOYtuMMpuXsr7u9l5rlP5ZVulo+nGhJcDXwerqBkWI4Tr+oWSwvuE8XgCYLmqUjcJ3xmjMWusFU58V6D6XJCtXDdhxwHWJ0zq/T4WLUnLog7BkhEcy6tYivvjwraKTMmUM/lQYhmTiZNWH8v3U2wrj6NS2pSRNyrShmfU8HaDgYUgADwvxGiUr4Ykq0o4ZPKG1DY82Je2OYlD1aWArCQ35dAASC1TGQkjVDkPH34LDwtVwRPIpA0nbExTkEFE2pimyLRJEmFREsHFpNQRx4JA7IvjBGEIWFYE/ifr+poTXiFcN8Jw6GA8tjGdznB0JIJvbBvo9x24bpz+zXPdBEFgwLYjJImJJInh+w48L7k14cSDwQCDwebnGQT1iStN3GhoaGhICAJ/Kx/Om0AQ+PD9YG/nV4Z+P8HFRbDRPieT5f9zPBpZaLWsmk4CsAAAIABJREFU+X+35GO7IUM4fL8D13VhqEpMMDSb27h5B5rN6i8QYRimZZnroNPZDhly/776Jqjfv8bBwXQrY66L2SyE64ZoNhffwM1m5a9vtJ0lxXAYw/f3c+0A8d6Lo7hybXaJJIwxioZ7O7/xeIzh0IRlVX8OL/pcnUwW3zos+sxrNotz8H0DjhPDNIN5m9mCPrJ1jkp+KV5+ubqPZdBsTGBZk8L+qeJXRrVGl5fFtS1bS/VrECs/92mdplMfwNV8n/o9yNdDHlse8+nT6uPN5kTanrHnYa79aGii1fQxi8Ri0dcX3obPeTJxctuDQdaW+h6NiuNwBIEF1xXvi9lMbAOA60YIAgvX1yba7RBBYGE8NhFFUY5Yp/PpPBlhKPZHkQnLiuH7Fjwvwvm5h253jDB0MBxm6hLDEHYlobQx5yqdJFdlShA5VHlK/BCZk0FFrCdz8iaZj5Wk33EEKUMqmhkAM+0vCBJYVjx/bsB1ZxiNxHXMZvmx2u0AQWAhDC2028HcFubAcUJ0u1NEkYPLS7Emnc4MnifeD6ORKEUehsitZ5LEaDQM+P7toiI+/fTJxvvs9+t/n79dq6WhoaFxA+j3B1v5cN4Ezs/P4Xnejc3v/v2X8Oabb67Vx2AAfPopMBptNh9glf9g2raFKJrBtotf9tpt9RfjdfGlL9W/eZhMxnAcRzm/fUC/P8HBwe5Lzt5GmKaFOKr3n7Vm8+ZVJWEY7mzsehjD9Cx43vZyRtbB1LpAK2kr57euOqTO+YsIF9/38cILRmX4L7D4c/X4eDFzqCJmFkFk3IBZuRYR3tnxVe1fyyhTLi6H6M4OarUtU7G88EIsbavblr8G2XtLnvvlZQjXPSw9PhpZuLoqn6Nt58d98ECteqFtwFOOAQC+n+///kshJhMDhnGQs0a99FLM+mgyFU+UblM/3S5yxzPbFJSw7Uxt4/sGbDt7Hscmjo4iDAYttFoxDCNBFM3Q6TipkqY5d4yapgG5LHgQmOh286qbJDHheTGSxMRk0sbRkfi7PxzSmlA1J6G88X1z3r/YR1WmBAwkibBWqf7JRMgycYS1KUmMVIFjmiJHhyo3eV6CJHHSnBuai23zHBsXtm2g2cwHE4trFr9jx8cRfL8J3zfx0kshgsDB5aWNdjvEyYmFwcCCYTg5axrlCwFIFZ2+b2A2284/y7aFbreLr33tqxvv94MP6rfVxI2GhoaGhNPT0618OG8Cn34qUudfeeXBjYz34MH643S7wNe/bmAw2LQFY/lSkv1+gGazBccpO3cbpET9PmezcD6//SRuJpPx3lpVgP2eXxiGiONob+cHiPffvr73KHi17vxuujrOdZygOWvBVaRzrmvHOTys00e1Haffv97QZ0udz93lx7AsE47jlM5vlSyWqnaEulah42N11aZ1sozKiI/RyFJeR1WJ7MGgiZdeyo4VLVwhVHky+XGz/WRrysYy2fM4Nwa3TclzH40s9Psi3+vkpJiV027H88yboiWKb7fbUWqPqqNilStKcfKFKkNleTaZVUoFnnXDSQgVeEgxBxElJA6j0twcjiNKklM4sWkaqTpGzr4BuEUqs0MREWRZ+epRWTCxmIucX8PnvwhBYOLkJEyDml96aYLLSw+DgZVm2wgbWjLfjtN1o7UkyK+TRjU0caOhoaGhoaGhobERbIswCQIDcRyj0ahftekm8kvoxv0iGKIxm+01MXcTWIY44W15OfBNZrFkWC9nptebKUtnl5EgdLzsmJhrJG3HuefF42qSaDQy4TgTtNtNlJE/fOyycfPv9/x7n/dHRAsRdBnBYs7nnV8n1/VxdTUD/RMjHzJsps+JxFERODJ5UwWebVNUykQpwUCP19cWOh0fQdAo9MXDiT0vmWfiJIXqUkBWjanTiTCbGbmqTDzrhuxRjpPAcRKMx6JdHBuw7RhRJCou8TwcQeAUs3DkUGKRUSO2LSvL0qFtrrahOfMwYhWhQwSX68YYDCycnITo9Zy0PPrTpw0cH/twHDdd06xsupWSN/z1EaHGwH/3R+e3It9mX6CJGw0NDQ0NDQ2NW451CZMwBK6u2mi1qq1IN1FOWEWYZFWb6GZuvyqRNGbFm759x65VLPx15uXAb+q1XaRq4ccHg24h+HyRzUl+H9e5rjpqGHme7XaEwSArB64iYmhsFZlTJGSyfvl1EZkkSJTsuUqpw881TUHotFp5YobmQNvPnjkFlQ0pbFTkTR0Sh8gaqnTk+0ZKQBC50OkEuLpylKWsOfHDA4t5QLFsKwKQI3CGQ4sdp0BipJWmskpPVGUqszMlSfZjWRmBk8+0yVuqTDNT4YhcneyYZWWqGipjzufMn9N10XXSWvZ6Tq48+vHxBBcXHu7fFwobInlk8obWT6icRCWq3sXt+9zcJTRxo6GhoaGhoaGxAuoGWo9GVmk58H2pjmOaJk5PfXQ61da+XREmhhEDiPe6atPUnqKF7Shu6lhnytoBQK93CMdxcxk3u1axcKxaDnwZxYt8HKhWvXDiw3GEVWrZ65WtQXWJGHk+8msg/x4+fpxZuagvbneqQ8gIhIVzSFkkq2xUChvZLkVWKdsOkCRmrq1KXUPP83PMEzWqc8og25qIfAgCpOTN1ZWFJAkL1aLKKkoBSNU3QLntiKtuqMIUESKWhZTAUdmmeLnwLGiY2hRLgAtrlHi+6DOSCBuqgsVJGg6+TSQMkVZc1TQauXjppSn6/Ra63Sin0CEih1Q2ZFHzfQPNJvD0aQfvvvsAb7+9n7mS+wZN3GhoaGhoaGjcKpTdnE4mdu6GYZU+8m02R5iUlQMvvynm2NwNcukIYYjJpGgH0aiPxqyBUbiaVaiqHbCaioXj5ORqL/OzaA14OfB17EZin5rsEPtWIx6n01lq5VHNZT1bUrUNSu5XvS9OFTc0Th3FjUptIxM7WZZNUWUjnyeTOe12jH4/ge/TeDIpU7RHLSJt5PWtKgsulweXrVLieYDLy6wUOClyADDVSL5vIi5ksodDVI5CgbTJEyQZ+0JkThgaiGMKFk6QVXcycsoaEUaczBU2IuDYNIHx2IRpJmg0yokYPscyixSA1BY1GFh48CDAkydugQxznAgXFy6OjoQa58GDAEGQJ8kIPLQ4SRK8/PJo70ibq6tLHB4e7XoaSmjiRkNDQ0NDQ6MWODFShpsgTMpuYrldQLTbTH7JJiCIER8HB1oavi9YV8XC2waB+Ep9dFRGvBTfi+r34HZIun5/412mWEf1Qr/L47EHz/NgWdbadqNlUJeIGY2O8dlnrdr5MItew2L/9TJpygiZXu8CJyenOeJaVr4s6ktW25DShtufODFDpImssuGWJwA4OIhxfe3DtosWqSzjJiNwVNk2ZdaoOuQ6V3t4XlSwSg2HNgwjTIN1eYCusPUkytycKtKGoMqOIQKHg2fRiG1AlAvPyoHbdgzT5NWnkjTTxjQTOA4Qhsb8eTYeBSbL5MxsZiwMI+71nJS8efLELeTbDAYWmk1BNvHQYq7QIZsUD3kmPHrUxaNHXZ1zUxOauNHQ0NBg6Pf1Hw+N/cNNV8gpQxz7OWJEhVXyS4p9rHZz1usNcHKyn+WiNVbHaGRiOrURx6LcbrZ/tyoW/j69CC7QmDVuZTjxIlXLOiG7qrVT/X73+yM0m8laiqBV82Gy5+p5t9v+nBip8xlaVKKoCBnVuCpCRtU39ZPPlskTS3KfsuKGEzOqeeVJnbBwDtmmylQ2MoEUxza63eLvlprAKZI1dfJsFoFXNeJWqSiKcHUFZeAwh0w68H4BFEicKusRbXMCh3JvgMw+ZZqiwpRQ1oj+LUvdbxQJAkcod/JjLJoLn4dtJzlSqtcTv5NcceN5Saqu+eQTBy+9NMX5eQcPHgiFDVmqCGXVuDwv0cTNErhx4ub4+OSmh9TQ0NBYCt1ud9dT0NgD7IIsmU6NQg4FsL3A12If1YSJJkY0FmGTKhZCux1hOo1gmiaGw2pF1U2qWDh2GU5cJ2S3qmrTNkJ2N4FNETGL8mHqYDZr4uoqguM4GydkVH2p8mmq1DIHB4JYKuunrA9Vts2zZ06OoCkjc2SVDe+fVDhE4gwGKsKP592IcZ49c3DvXpiqdlYhb8pKTHPVDQ/XjSKkGTeqSlS8T1l9Q6WuVSDShIgTUrhQhSnKmqFtx0lSq1QYGqlqJgiQCxiWw4Zl0HGV/anatpWdQ9f04EGA83MbQWDiyRMXDx4EqcWMiJzj4xGGQ7ugtslsZnGqZuKvBWCg3Y72ziq1z9CKGw0NDQ2NvcI2CZNFJWdlrEuYLJtf0u9f72UOhcbzB/l3JAxN+L5dCE9Wtc32r162uY6KhWM8ngAAWi31Tdk+YJ1w4m2H7PKqTTdBZKlQZUuiz+bpNAvHXjcfZtU5qfYZxqxg5apDyMjjZERKMYuLEyT8b4fct3yuIEayqldlREtRCcPVM/L4eUKHyJwygobbpUYjC7//fZ7wmc1mqVWKq2xU70OeeaMibcqe1wG3SXleAs8TahtAkBU8j4WgsvgsGkNF5pBlCUDOPiUexX4KKebkjOMkiCKhYOF2KgJvCxTJHE7OyCQSUKwuxfHkifh9pBLftE2kTbcbwTBMhKGVC2wG8tW3PC+SCC+B0cjCz39+irfeOleOv084OTnGRx/tdg6auNHQ0NDQ2CoGA+CjjxyMx0KpsWp+Sb7NauqSXZSc1dBYF9so2yz/nkWRCd9P8OKLxfOXJVnuIvo+YI1aGLUWZ6bIx4Bq4mUTIburVm2qwiLSg+8HqomY7LM5Xvj5vom5LauQqbJyyZajOuPIhErZ/OuoZu7dC+E4E7z6qlf7XD6HdtvPEUsqgibLtIlTZQwA/P73jYJdiq6Hk0KTSdEqlX9vxAWVTXZsedKG59RwcJsUKWy63QhhOEOjkWXccOKFlCNy0DGBV1EiVQ9BpWzhFilO5MxmmcqGKkRZllDcGEYMyzLB8+3lXBxqT/3x8WTQPtm+RFWhaK0ApAobIryIwKHnZJUaDJqF/CChtMlbyTwvSrc9L8Ef/MGkMD8NNTRxo6GhoaGxVXS74ovweJz32u8C27h50dAgVBEncjnwfVCxcIjw5DEODu7mV8M6dqOyYwAQelO04maplWtXdiOOMAxL1Xy7tiXV/WyuynlZNLdlFDLymCKY3ZurNasDf6vUMqrrILJE1WcVycPPubhoIgy9CvVMUXHDSR1VezrGQ4plpQxX2nCyh9aBbE/82mic7DrkOZerbEjdI9as/J9AMmnDiRwiFUhh4zjAaOQgDPP98ewauay1rMBRESBE4KhIG/lRDisGBAkTRUTGEKGTpMfEo5qUIUUNJ4lU1aN4JS2Acn6K6+q6MU5PZ/B9I0faDAYWOp3s94qrbsgeRYqbMiXSr371At5+e1TYr1HE3fzrrKGhoaFxozg4EP8x0tDYF9yEiiXbXywHrlUsm8e27UZ55G+ix+MYwGhvrFzy9V5ddQAAUeSxNuXXvw1bUhXkcuB1CRnZ1rOsWqcOEdRuR/OqVyYODrBQLcP7JtWJ3G+ZAqfKFlVF7hwfT3B01IQqhLiMoFkUPsztUNSu2MZM+xqNMqWNTPLIVil+7XxuRMzI+/h8ZDXQKqHFnJSRLVCqsGE560aVg6MK3y0Dz76hH07gEDHkeQlC9ivoecWKVATKr6HHslLfXAEkq4SIkJFtTb5vpFk3nLQBgE5nhuHQhuPk1yVT3HDiLFsjsV7qazk8PMLV1WWdpXwu0O8PauVrauJmAS4ueruegoaGhoaGxp3FMsTJ06dd9PvF8ORdqVg4dDnwxagiV6ZTD6ORiUajHvGQ7VMrQcS+zZIQ62TcLELdstUE+VotS7yPly1bvQ7q2pWAYobMuoSMPAd5/DqBv/z9obJKlVmkqlUz6vedbFWifvj8VIQRtb2+dtKKf2UEjcoSxedaFj5M6hZVrg23VpUpbZ49cxDHNl56qRhGTMSO/J6mfXxcea48wHlZZIqcGHEcwfNCNBp2wSalUokIwsHM5bfI4HYpalemfKFwYplg4Vk1lhWDlDBcRSPn1BBhQ88piJj33WpFKQFDAc1ccUNzF7anPIF1chKmRA8FFA+HYi7FUOJizo2shDo7GyjDie8SabNMQRRN3GhoaNx5aIJWQ2Mz2IaKBai+Ieeg/zoX22oVy01hHdVLnepGjQZvv1+va2PWANzF7da1JYnt5ew/47E41mqtV1JZnuciQqaKGMkHsy9fDryuWobGBorlseuOcX7uIY6bacW/RZkxVX3VtUbxfsoIIhWxw1U3iyxRZWROldqG59rIJA5X2tAxQGTdyeSOijjia8ItUe12lNuWLVRV2TdVwcKelyCK8qoWIK+6kckbyruRCR0ifUhlQiRGVhpbtFdVcyKorE2mGSMIkFPmAHmFjdyHbSe5/Xw8mncW0hyx/JowVSFxJRGFOdN5XE0TRS6SJASRWQRO5KhCnwHg0aMuzs/bOD3VVqk60MSNhoaGhobGHcMyxAlvOxhkipZ1VCxl1bbWvRHv9WZbVRDcBSzKclknZFelXqr7mmfEw/69vqORiatZBDdwkCTZzehN5cNsCpsiZDYx72VImXXmUDaOPIZpmvC8GQ4P6bUqJ2fkClLUXx2SZxmLEydoLi/Dwvxl8mUZkobaqNQ21SROlqNDx+7dCyWrlJleCweVAufrL/oku5mVblOb7H3KCeLi36ayEuEE3zfSjBtu7+HBwwCUZA0fg7JcuOKGnw8IEkVFuBChI5fsThITtj3Lte10IgyHFg4PZ7i6stNH6p8/loEHCWckCxE1xXOJzOHnZGRVCN93cnk2deD7Bj75pKmJm5rQxI2GhoaGhsYeY9cqFn4z5DiZomXf1A4aAquG7EZRhDB0cXJSVDzsW8jutrGKLWk67cA0TQyHjlINI9rtZq1GIxPTqY04jtPw5EVEiNjePCHD58TH/uKL8nLgdQN/64y1SJVTRqj0+xM0m0aqCKprkVpU0rtKfVOlvJEDf+O4iZdeKidpqG2Z4oaIorpqGzrOc23oGCciaX8cT1KrFFfa8HZ0TFbe8O1V7FFlFaZU4JYhTj4Q+SJ+ipk3/FwRemymZAgnf+g8TqrwMuEAclYn205gWTF8X624IfKG7FaHh3mCRwVeJYtsXoKsoes2EARJgXyhQGcibehaHSd7Tqi73p6XINF0RG3oldLQ0NDQ0NgAVlWxcPR6h3AcN5XjA7tXsXBMp1rRchPYRchuVlXqhRVnvV04joPJZLzSuevmw6iJGDmcWJS0vclw4roKGUEsRTBNE0dH4ti2CBnVHOqoZU5PVy8HXlc1Q2PVJYB4PzKxtKxFilddqkPQZOcttjoBwOPHE7TbzfT6V7dFZYqXMrUNnc9JHJ5rQ5aobOwYT5/mrVLZNRbJGXmbBxbL59XBIhLBsizEcZCW4FaFFatzbvJjyIoUfiwI8hWXZDUMJ2WIhCFFThznFTSk2Ol0xBhXVzYajbgWaQPkLVyUV9Pt5pVGRODI4OXCswBjOXA4315jc9DEjYaGhobGncM+qVg4Tk6u0Gy2lsp50Ng/qN43V1dOWg58HbvRTYTs7jPWzYcpI7E2sYabCidehpAhLMq8yYilzc1v3cBfjn6/uhz4KqqZuqHGddUzh4d+JbFUpoYpI1tU5y2yOvFzOLkyGsUIQ4ddf1b+m7ej+cjKnCpbFM1NVtsA+QDidrtol6LHZrPcKlWHvOFKG7GGWWCxnGlDbZYhd4DFVaG45UlVbpyyYUiZQ2QPV96oSm1z2HaSEjJchcPDiXnwMCds5GpTnBySrV6ZlStmVaQslsVTXAvPS9IqVLwv1xUZQfxYmcpJJrUAYDRUf8/SKEITNxoaGhoae4tNqFh42+nUgOO4ODhQj1dXxbKtaiz9/sa71FgBq9qNCKr3TKMRpuXA98VCsw+oS8T0+x7C0EWj0YCKsNh1PszUni4MJ94GIbNprJcts97n4mhULAe+rmqG9039LRsMDJBVqgXHyUiJRQSNaj2q1DdVwcQq5Q0naabTCzQa9wrzUpEwqjZ8znSckyVEyLTbUaXahufacPVPHNvodjNblEzO0HXyalL8eFWGjbz+/HwCEQlymesqqEp/8/5U+8hKJJQs+TaLxiRrFFAMMJYVOnLVKN6e26kWgZMw3DbF7WC0j7eXrz8ILBwcZHMsu1Ye3HxwoNW7y0ITNxoaGhoaW8dnn5kYj4vZChzLqFjE/uXLNvf711rRckewC7tRFe5KOfDt2JKAV1/151aum7Mi1cVoZCKZdjBaIkPmpgmZdJ7J5tUyy4xfNvZ0auDw0ErLga9KBpURNKsocsqsUnUIGjpfJmkWnZsF+3qFc1ShxACRLMdot7OMGZU1ivcnt5GtU/x1z6txMlUNzYGrbUiFkydwhFWKkzG8lDgPHRbkTaQkb+j5st8hgIxI4IRCVfaNyvJDuTBlFapU55W1ka1XAEqrQMVxgkjxNaisvWp70Vz5c7pGlR1MPl91HRy0xtyaBRCBU49c0sigiRsNDQ0Nja1iMMhv37SKReN2YhXVy2h0jM8+E1aQKtvaXbcbLYNFKhG+H1gtH6YO5HK9N4E66hMgy5CJ7Bj35hFBN0nIZHMqn+/lpfjKf3SUvxletjx23Tmo1quMFGq3/aVI9XXVM3X7431RBo8qR4QIh7LzF1WQWpakUbVttSY4Po4QBJ6yncoapSZqMsWNSo2jUuKUkTU8sPj4eALX7eSIHlUosRxczMmbjNiJc3NXff5UkThEINQN0F0WZeQNET6npzM8eVIhzZuDVDRRZGI2i2EYRqESFW9HY8tKGQpLJgtXGQRZs3BaKeRqWVX9bnO97xI0caOhoaGhsVV0u8DLL8cYDHZw56WxU6yjelmUF6SyG/V6Fzg50X75MlTZkqLIhu8baLW80tdhX2xJ62IZQiZ7HkvXXQwnntpTHLvL5Wpscs5Vapn794cA1s+4qRsEvK5ah4+zSlntqj7rqHGKVimRwTMaZZkudL5oX251orHL1DdV1aNkUkfOyaF25+cenj5tpzZgmajhtqUyxQ2HnG9DwcJkgZItU4sInE8/PcC9e9UVo1Tb2euVkTRqYicqbJeRN6p8GteNcseqVDV10e1G6PWy93GvJ9aYSJuTkzDdp1KvEBkj8m0SOE6sbNdqZVWdeK4OWbe4zYlbxuR1WJZYySt2smBj3o8mazYLTdxoaGhoaGhoKCHf6F9cNBFFTunx9exGt48A2DXq5MNUvSZcdRGGIXzfR6fj3srXoW5+DLAcIbMMFmXcVGFR4K+Y6+rlscdLFORaVTWzCjjxEMdNWJZVuBlf9lrXIWhU/Tx75mA8bmM2y4iRZXNs6gQUL6O8+f3vvVy709PBXBFk5eYt91VW/rvcGhUVSBxumaqjtrl3L4Tj9BGGzXRueWtUMeeGr0P2O1FO7KtybxYFGAMZ0TCbqQkdTuSUWYd4bs5gYM1Vxtn8zs/tlKR58CDAkydu+ghkNiwVXDfGdJo9l48B6iwaCkPm59A8VeTNJggWeb3K+qXXotOJK5VRu8LV1SUOD492PQ0lNHGjoaGhoaHxnGLTIbuTiY0XWLVoHbK7WWwnH6YeERGGMUxz/8q907WHoYmrq2JVripCZl171jJIw4kV2GXg7zLzURMmywcBl41XNZZpmjg+9uE4Tu1xFvW7LEFTZXUaDn0cHycFK5dsk6pL0qiIHVV7FclCc+KVo4ZDQX49fuxCRdQA1UROWf9lJE4ZWUPXJBM4cdzESy8Vg4kz61SUbqvIG/k5P1+luiFyQPRbXpJaRSzIBER9pUqcltCmkOIsG0dY7J48ceG6cUrauG6cVloi8oYH+FJosEy8ctKGkzOcxKE5yOohmayh47wcuAplmUBBYMAwUIsM4gTacGjCMIB2Z7/+5uwzNHGjoaGhoaGxx1jHbgRsNmS31xvg5MRbNGUNFF8bKgfe63lSu+WImOeFHFtWIRNFJnx/ilZr/9ZjNBLhxOcjC41GvqQzsN3A36o50RxGIxNBYCCOY0RRPgNqE6qZsjHpeVHhVFSq8KpNdfvl17Fqnk1doieKZgDcAklTPLdMgVMkdsosUnL+DLWtyrsxjACvvJKVK1cRQ6rKUmWqmro5NmSZItDYsoXqt7/N1DQyQdNux2kfKvIm6zsqtCmzSqlUOnUhW32qSJvieYKAEQodIyVkzs/tVGVDGTeyCofKaRORQ7Yo3zfQbgcAmrnxVBkznKhRzVlW3cjXK1+PTGLxvBp6HkVJmkG2qE/V6yH/TdQohyZuNDQ0NDQ0tohlVC8kx7esxTfz9FyH7N4M6tiS+H4g/9pROfBO53bnwyxCXUJG9b6uIjREVa4xDg5u9qtrXbXMdBrB7fpooLFVtcyieZWRRZ3OBKZp4uRkCc9Uxbh1821WzbYpK7W9SqZNmWWpjGjh59N1ylapapJGrabh5AtvX2aRkgkduR1fi88/9wE0Fqpq5POrFTdQ5tjQ/rxlCinhROdzAqfZHKRtuLomn50jhw/nA4z5fnm9aFu0K8+3UR0T+4ptq/JaqlUsEYLAnCtoopSYGQysglWKHrO8mzgle0RZcfE8jmOY8195ImtU1i2ea1NVAl1VIYpD5OXQ82I5cFUfqjVTgV6zTifBeGwhSTQdURd6pTQ0NDQ0NCqwabuR2KdWvZTJ8TU2j+3YkspvKG97OfBVCJl9VwytZ2HKX8t4PAEAtFqbC2Gvyprhc6tjrRqPYwAx6oTwVJFCm1LqyKRKr3cIx3FrZciU9VVldVo0zyqSZ7FVqp6ahtrXtUjVCSbO1k/k27z8ct5CVdceVaW4ef31abp/kWUqa5dX11xcNHHvXjHbpkptU/ZcDlKWX69lVTZl7cvUIzIhQiQHJzc8LwJgoddzcHIS5jJtTk7CSvLG86IceSNybiy88EKxFLmsCAKgzLWRr6WslDffR9Yp3o9KwWMzNqGMtFFlFY3HBgzxhn3eAAAgAElEQVTDUH7H2kccH5/segqauNHQ0NDQeP5BXwwmExtxbCIIygN2xb7t2Y2qQHJ8jeUxGpmYTOz0Borvz55vv2z1bQOtz6IMmdtEyBCWIWbWzXOpyripM8c6qpl1s2ZWGXtTBI3KXkT9t9sROp0J2u3RwqpXi/rbBEmjOj+KZhiNGnCcqspQ+c+LZbNsZItUWQUpHkxMbU5OrhDHHQDqTBoVkSOTNRxVihtO7CwicKgNDydeVm1TfB7l1l4FWVkjkzpVqpwycNKEP5dDgoMAab4NIKpJdbuZ8qbbLZI3RNrwR8rL8bwkDSimbZnAKSN06DlHWclwfi2L+uT7IsXLwF8j8btaXOt2O4JhrF+96y5BEzcaGhoaGluH728mOyG/b3nVy3jswfM8WFbmn9d2o/3DqrakwaCJMHRKibW79Louq5CJIhOmKUpG34Y126RaZhNYFEwsvwarqGZWAY3X63kYjUw0GkVbziarQy1W6KivzTDKs21WtTot6mPRNXM1Ta93iMNDC5ZlLV3yuyzLpkoRw9uR8oYg591kVa9aODioDiVWWad4v9ReJmZU/fB15eoaInD4Ng8nXp2wyWxTBFLgqIKJ86+NmuhZhsBZnHeTESDn5zY8L8kFFJNVij8n0oaqQPFHGocrX/hcgOrqTXS+PFeyUsmPqv5Xhep1UOUQCcXN/lWWukkcHHTx6adParXVxI2GhoaGxo2g6qZ7ETGzjN1IHFN/Ee/3R2g2tRXpprEqEZM9V5Ns8ut8F8KTt2VZ2jcrl0xw9Ps2fN9AkmSKjE2pZTYx1+nUxtUkhvm5x/Zvvnx21RxoTBU5NJ2KG+mTk5siaOqPQes3GlmIosUlsRfNbZky3HXOvXcvRKs1xPGxm/vbIRMjYpz1iRpZeZP19/+zdy/NjZz5ueAf5AUJEBeSIAtVLEqqqlZRKmnUKnVb1WqpJdXmxMyxwxt/hJnFOMJeeedZjGPmK8x8g3GMu20vfNpzjk9E+5yFZHdbsi6lW3eXVPdi8SIQBC+JC4EEErNIvEBmIhNIEJdMkM8vpCCITGS+SBIs4uH//b9md5/+5cCtqVyNhnX97NuDhDX2526/f5TpUWKM+XyvKkfss7uLbvgitvsFM84gxrmP+2sjKnCCGhbUDNs+qPlub4oUEI9bvWbsAY6uy92gJh5H97YIezKZlqPqRtNanWlYvelN9boz2BHn9QtwROhjr6hxrzzlDm282JsSD+KutHHfb/88FrOmSvVXLZOfmQc3Kyu5WZ+SiIhCpOvAV18loGnOX5gHTzeK7l/6yX/60XjTks731zxIBQkwn1OW3E5TLbO6Wke9Xkc6fTKxapSg/MbrGYxM8WsxztSmXg+eYH/dnkZA43VcMX5ZbkGSJDz33GRWhxoU0ojHj/JY91Sp006Tcu8bJNDxmiLlngL1+LEGXU/g5CQeKKzxnzrVX3HjPk6Q/jb2fSoVCblcDbGYhkJhAamUf2AjxuYX3oivU6Uidyt2vLgrcHpfF+/v/2TSGBo22LmnDLmnHokQJ5NBd1UpTWt3K27q9Zjj9upqE8Wi4qi+sf6POYIVTWt3lgh3Bkh+gYq7j01vOpfkCHHEala9/fobFntJpVpotVo4PHTe5+455PV1EMGNV88i8saKGyIimqpMBnj99RM0xBIFFDnDqjjE/ZVKDjs7CwGDmLPfHyYIcR1FDxn70qeDAhlnddF8Xcug04Os28GmMBmGCUlqTu06eAUV4vMgVTOjBiOjjsU9jklNq5pWQGM/dpCpTr3r593jZlDQEmR1KL9xDHrs4KlS3itKBZ0m5b1ClDPQ8drHqzGxpYHV1TqWlpojhzX+zYr9p0eJ+65dO0GlIg/sb1OpyHj6dBlLS72wRYQ7lYrcF9jk80a3KmdweOP8fvWaDuU3XcetVlORybi//s7Xsr2qxd3vxR6CWMFKqxuEWNOlegGO9Xm7G+aI0MYevtibEw8iKmH8mg3bx+b+KIjx2pcSdxu0vHc8biCZNNBuJ11/yPFeqt163baQTrcRi8VGqpg67xjcEBERnSHTnJa0v1/Cysp8rAAxTUGnKwH9PWScy4HPVyADjFYt0x/ohfd8g1TNWB9P1wtn1ObE41TPnIbVmN1Euaz6nm/cJsSDwp9hFTBBjzVOX5sg06Xs4VCQqVJBGw8HnSblngLlDmu8t5vd5cDt/XBOE9Z4VdcEqbjxCnDsn6+u1tFsLjgCG+e+UvfY7soad3hjD3TEfu79nd9/zmDAK0BOJg0ASc/vC8B7mev+z53nsfe2EZ+LAEfXY53lvtuO6VQi2LEf36rAOQHgDOOsihyxqlX/VCi/MMeq2ukdo3cOZ2WPX4jjVqupMIw2EgnvSqfea8MZ4IhVpVZXA52GwOCGiIgo0oIEMe6/DA6bTmPdH/0pNbN2mkDGum26rq/3G8v9/TJWVqLRQ8ZLraZAloMtQW3dnm7D31ENqpoBphOICF6hjX0M9gqISVW0+PEKPhoNBalUC/G4NHZAI47prn4BRg9/xPGePUvBNE20WgsjHWt4Nc3g5sN+j/ObKtVoOPvP+O1/2mlSfpU3flOkAGsKlX05cHtYI9ibDIsqF/f9o1TcWNe116/GHcK4P69UJKyv19FoJDy3+TUh9g5v/FeV8gtrel+X/ik7qVQLut7/893+udeS4F7b6vWY75La9qlIq6tN1Ouxvh444njFovUWPd5ZZFJVe/+eiEDGa2WoRkPqHsteAWT/aCfG3mg4++DYq4uGBTiyLOPkpD+kcd8GetU2VpWdzFWlRsTghoiIaIYG9YepVlPQNKtPgcBpSeObVCATdjAxLr8pTABwfKzBMBpYWXGuEtN7IxT+c/cLlryCmVmOvVKxmuvu1w2o3/emt/SPaTrLedsDAvs57cFFtVoFACwsBF8tZpSpTuMeL5c7giRJWFmpnuoYQfvajPI4+7l6U6Uk36BG7Dus+mbQFCj7PsPCGvt2+3LgQatuhEHVNamUiWvXvCpuer1w7FOb7NOe7FOiyuU6isXF7vUbFNgMC2/s97mnVHl/3b2rb+z312oq8nlnTxYv9ia9XoGGvUGxqLYRQYrofSO2iRWjRH8Z8bl9+pM4ZrPpPI97NSj7bfs53R/txBQpcbxBz9d9exC/8EZsE2IxZ69DGo7BDRER0SmNOy3J+rwXxJTLdWhaDEtLrt/SyJM7fDk6SuL4uL+HjNc1P0uBDDDaFCbrtvMaPPdcHbVaFdns4gxG68+vasYrWJrlFKxhU5sOm1WsaIluc+JJfk8NC2h6odDpr8Mkpzr5jXlQJUy1agIwAcT7juM3fcl9jCDnDxrUjDpVShhUfTNoCpTftCX7uLxWihLbNzfdy4GP3s/Gr1fNN98seFbc2KdMuQMc+9fIWq5cw9JSE42GVe0jplaJx4n9emMZHt6IAMhritSwqVLuMEFMlbI/3os9uBhWaWOvthGBjH1Kkqi6sU+lAtBdMSrodCV3RY1YdcorrPHrmRMkkPHbJ5VqwTSdzZ0HVduI7bFYDNUqp0qNgsHNEKVSKewhEJ17udxK2EOgc2Ka/WGCaLWaSCZNAOM3OJ1nQStkhk0JOwuBjOBXLeP1vXiaihNjhiuyBunvYt3uPYdZBUtBe8+4g5JSo4pEMzFWc2K/c086oLGfY9ypTvZjnmYZbvdx2m3vqhivQCTIGE4zXcqrkshvqlTv+M4VpcRYRp0mNUqYYw9yVlf17nLgflOh3Pd7hTjXrp30jd1+X++YvX28K25ajv339kwUixrW1qyvpb03jn0/r0bF7vDGazUpe4gj9rV/XbxeT/bPxVQpvxBoEHtoIyph7IGJCG1EVYyoynE/DhBVMG3HdKV43OyruLGfy/5Ye3WPeLw7wLEfdxzi2lQqcre5s9e17VVY2cPT3lSp1ZXKWOM4TxjcEBHRmeV+s18ua0gmNZycOPtNCMGmJZ2tQGCWph3IyHINqVRqcgOekfGqZaI3TW5YyNQ/3QYY9jwmGSwFDWe83vQbroGITxPNBOr1uqMiw0+tpnie3/qrP5BKGVheFoGV9zUJcj3EeQoFFc3mAsrlGLJZOM6xvOw9XcHv+O6xi+tmLadcRyrV8hyz1/FqNaV7nKOjDBKJOlQVyOet6VLu49iPYX9uYjzJpDH0sbWaEvgxx8e9c5RKi8hk2pDlFvL5E899xXFNU/zMqjr2q9UU3L/ff26xT62m4Pi4F4h4bb9/33tbsdjGw4dxnJyonW0nSKXM7vPtPaZ3//37KkzT7B6nVlOws+O8r1jUsLMjde+TJMmxz8qKFfzs7KhYXa1jZaWNQkHF4aH1/Gs1Fd9+K0GKtbD+3BFKpST2901kszpqNQVPn5pIpQzUagpOTkxksyc4OLAaaWezJ3j2TMPqarXbXFuWgWfPVKyuVnFw0HsbK8tNNBoKkskmarXeR/tiltY1OMHJCSBJUvfzRkNCuSxhebnS6RMjQ1VbaDTkzuOt12IyaaBW6399x2KA1iv0dNwGrP4xYp9GI4ZKxaqoabdNSJLUOVcMjYYMwJo6FYv17tO0NmS5AcNQYBgyJMmqxInHWzAMGZrWRLmsIB5voFSyVnlqNiXU6zGk03WUSgoAE+l0E40GUKkoAFqQJOs8fgzDug5u4jrYr02r1cLBgbPZs6pKODiQcXJiIJMBZBk4OFBxcGBtl2UZuZyK4v78/Ju9tbU98WPquo5GI9jvlAxuiIhcHj16BF3Xwx6GJ13XUa/XZza+ixcvTeQ4tVoVlcr4f1URv6xbt1XP++1BTDLpXIJckupotUyk071fMKyVEAa/8W25fnc5Ph5p2IFVq1W0Wma3j8csuN+IDlKr1rCPYv/9Hl8Xr/uSyd4vJ8lks/Oxd/61Nf8pYicn3reDjC9s4locHEgolSrdz/2uS5BrEuR6jMJsmTAMI/D3g/05BH0+Xs8l6PMYdXyDxmgfXy5nLUO9tNT7nnSPxz0ur3Cm1TJRMcqQa/bQTfI8vwiHkskTZDLW88nnvb/Otdrw5ynO5X+eKuJqGRcumJ5jH3QO+3HF1zeVanXHnsn0Xzev44lrUSolHeMTx1nMViDJkmN89uPYH29/brncEYD+6yce6x6/dc5qJ8Tof0ylItnGaFVw5HJHUJQTLC5K3Z/N9n3dx7Vfj2KxdzxJagNoIJerdc9tjU88r9757Nu3tnrnyOWOutfcvk2Wm7h48Rhra2ZnXCq2thRIUrt7vN7+8e6xkskmikXNsa9pmiiVVNy/n0Qq1UQuV4NpmtjaSjr2sY4lYXW1iny+jlIpieNjybFdkppYWmpA1yUUiyry+ToqFRnFoobV1XrnGvVui9DFui4KVlfr3e2VigRJkhz3FYsakklRgWP2fbR/r1hfI9FHR7Z9js52E8Wi2ldlIz73Cm3symXrtWfvCSPE4y3E423EYtb3T7ttIh5vA7DCF8Dshjmq2u67D0D3saraQrsdQywmdcObeNwKmtLpZncc7tuAFRyJMXqFMkFYP0ONbvgFAImENdXMmjZl2l4TVsgjSS0kkw1IktTdvrgYQ6Ui4cqVaP3hYdY0LT58pw4GN0RELuvrl7Ea0Um3W1vbWF1diez4/KiqimRywXFf0GlJ9l+WvCoxACCXs/+lxxnW2JXLJjQNUNVoruzTapnQNC3QX+0nJZn0fiMK9FeC1E4OYTRzjvsA59dlcdH6uly+7PW1sv8p0vVnyQnYRxErK7N9bYxSLZNIlLC4uNS9NrO6LkEYhuGYiuT3vNzPaXHR9PhaT/75uMfXG9vw6hn7GKcxvkpFgmkaaFZT2K9kumMQ50+nTVy8aD+/uLZxuHu6BDmXOL57+kcsBly9ap+60ztPtWr9zFtYWHAf0nHs4McdPHa/3jR+x6lWY47xDX+8eG7Ov9Z7PU6M32vsXtOaFhZ6fWKs/VOoVq03mfH4gmNf53is47qnHzmPZ43ZvY99fJVKxvF1WFgQ47e2ifECwIUL1lS0VqsB00xjf3+h75iVSqZvf0BBoZDD3p7zeRQKue7jX3nF6O5nv/Zin96UqAxOTjKO7WJ/a3pWGplMCblcGwcH1vhfftlAobDguJ1KmUgkgEIh2Z1e02rF8dxzJgqFTN99lcoClpeBSiXumGYlmhVXKnKnck22TZmKI5EAWi0Zy8sGKpV453YZjUYc8Xgcy8sGDKN3DBGODJPr/NMopiWJf1atKUky4vE24nHAKgqVHNOnBNHXRlGsqU9iNalqtQlNU2CaEuJxCe12L4ARU6NUFajXVaRSZuf+ZPc2EO+Oq/f70uDnZK1o1b9iZaUio9WKo9VC5/mIBsgyKhUrFEwkel8X67VoXVuxSlYiAVSrCmKxGD75JIf/6X98MPT6RsH6+uWJH1PX9cCVPAxuiIhc4nENmUwm7GF4EuOa1fgmcR5dB548WUCzKX5RHtwfZmnJfX+QElJ7Az//0EPu/EV3lsHIKGY1viBhA3C+esh4Gbfhr/v67O/XsLISnbJw+xv042MF9XoMCwu9vhnCNJasHnWchiGhXlewv+9sPj1satOkxyHO6w43TtomNBi4eHFyYxjUlHjc5ztq8+DxjjV8Op+YNtVqaSM9flBD4XH72tj3FZUK5bLqeWzvhr/O4w3qWeO/3X9Z8N4qTDL29lLQNK2zHHi9e7+92bC7YXE+bzhWjPK6r/c1GK2nDQBHH5vHj5VOjxvn48RteyPiXr+a3nO3BzOi/494jBUmOD8CwfrciNvtdgO6nkQ22+r741FQoiGwXwNgUYFj73VjNeS2uJsR21eVqlbR3d+9VLd95SjRO0fcL87rPOdwfitIefX9EdVIktS/RPug5tJWqBq95cCPDg/DHoIvBjdERDRVmQxw6ZKJRiO8N37nxWkDGWczZf83SfPaQ8bPtBv+hi1o1UwqZWJ1tY56vY50Oh7acxtUPZNISKjX27aKgdkHNNY5vcMNqyKojlTqdNV8ftUu1jlGX9XJfeyTE6vXSSLhFYyM3ozY3eMmSCPgQceQ5TYkScJzzwVvQhw04PF6zLDVpdz7ptM1pFKmYzn16YU13g2IBzcnrnebE9vvv3btpBtwiGXC7Y2Jh91nv24i1CkUVDx6lOgLcNxNjMXKUY8eJXDhgo5mU8GjRwvdoEccQzzGa0Up8XNXhDf2bQAc+/l9tH8P2L+m9p+PftOt3Z8PalZsX8rbiwhaRCDj3ld87g5mBh3Lfm73kuMisBGBjp37uO4xuz/3mj4G9K6nWFXKfl9/z0D3al8mYrHYqYOy84jBDRERTV0q1eqW/NJovMKXSQcyZ9F41TLzc628QgbxOTC82a5gGCYkqTn15x0kFPEaa2+q1GR/dR1U1QKcLtgIcj6/kGbc8/lVv5ycWG/8Ewl55JDG63i9sQZ7rXhVudhXi6pWraY0XlO5RqmQ8XqM4FeF4xXsuI9frVpv9MWqV35BjP3cpw1r7GPvXaNe+OL1uO+/B548SUKWZUcI41XB0x/Y9N9nvx72wOabb6zg5bXXqp4Bjv3xYptVcaNB0xRHxYx9dSh7KCNWlLKvOOVeZcor2HGHNe6vr7PSpvez0lrhqHfbq6rEi9c+wypavLZ7hTMimAlSISP2E8GRPfixBzbuJcsFsQJV0GocZ/jSv9S6375i/971lZBOt+fm39ooYHBDREQUAq832Va5ewKyLA8MZJyrXM1PyDBJXtUyup7Bzo71xm9QiDUP1TLCKFUzUXqOQQMa6/b0v4eHBTTjVrUAwIl8gix6PXimOdXJ7/h+z6cXjAy+zn7VNKMu6+01rqDH8A9q/K+Ve9zOx3hX4QQJdsRzefYsBatnijyxsMa9PHjQaVLuKppKRUYs1sT6eh1LS7Lv/iJosR/ffZ/4unkFNuJYlYrc97kIaexTprwqbgqFBc8qG3dQI5YMt1fhuKdLeQU19mtmr6pxvzbs3yeA1UsvmzXg19PFfvzevznD+94EqZixV8jYq268mhz7HUPs73cssb9X5U2QwMavCsl+/SSpd5+96sZd5dS7zztoI38MboiIiCZonAqZ1dU6NC0GVVVDf+MdptNWy6hqDcvLybn7RfA0VTNRCOxOWz0zizENC2gmff2K9TrqxWU8Kmjd804yFHJf61FDlVdeSaHZNJBM9jcUtl+rbBbIZkXVRNv2Ooth2NsGcRxZtsa2tibGJlZZ8j/G4aECXW+j2Uwhm/V6rPfjRMhgH/egx9j3v35dfF+2+vZ3P5ef/awKTTvpNNlXfI/nPrf4esmybBtfu7t90OOHbZNluXudJAlQFAUHBwuQZdmxf6GQRKUiY20NuHnTOn+loqFQUB339fYTIU4Mjx5lPfcRnz96lEY2C7zzzgkqFQWFQrJz7hYKBWs1rXfeMbC5mUW9nsCbb5qoVOLdY4jb77xzgkIhibU1UV2jdbdbX6Pefb3mxcHexvYqPLTu43r/DiuwpprJkCS5870nA1Bw86bX8UebCtloxDqrR/lvBzB0n1gsBlWNO+7zesyw841jUBWSYahQ1Xhnn4Rjf+v11QsDRfPoalUGEEM63cKVq9emMubTWFpa9t12/foG7t+/N8PRODG4ISKiqXrhBeBP/zQazZ4NIzu1xr9B/voG9JcW2xlGMrKNk4HpXj8g2DUU1+/6da/VgCazfP30TH5FCiKahXTYAxjC/83mbIx7faJ+fcMWzmqDwQUNtPz2+8GkBjJVKys53L8f3vkZ3BAR0dR5v8kOQxTGMeif3iiMb5AojI+/uhAREdH8y2Qy0HU90L5s40xEREREREREFFEMboiI5oiu68hmozHtiIiIiIiIpo/BDRERERERERFRRHGiOBERERERERGdS2Vbn5l0xruyPWgvmmmZeXCTy63M+pRERDQF5ZD/ATtr9PJx2EMgmgv82UM0mnKZrxmiYer1OpLJBdx848ee23d3d2c8IidW3BAR0ans7Gzxl0EiIiIimlv1eh31eh0AkEwuhDwafwxuhrh+fWPm51xZyc38nEREo1pbW8e9e3fDHgYRERER0UiazSbq9TparVbYQwmEwc0QGxuzD26IiOZBOpPBpbXL2N3ZDnsoRERERHTGNJtNKMpkI4t5C2wEBjdERHRqa2vrKOs6p0wRERERzZlf/SqHX/2z1YM2nzdQKKgAgFTKCjUqFbn7eSplolKRUKnIju3p9CGazQWcnMS791uPsfZPpUxcuaLjlVeKuHol2O+LmqZB07SJhjbzGtgIDG6IiGgsnDJFREREND8ePEjiV/+8gt3dePe+SkXq3hahi9fn9tAmlWqhUpHQbMrIZvtDmytXyrh9exsXVquBxiXLMlKp1FjPzW3eAxuBwQ0REY0lnckgnc6w6oaIiIgowh48SOLXv1nCV1+lbVU0sqtSptWtrLF/bt3uD3AkSUI+b+DkRO3uUyio+KM/fIY33/w+0LhkWWaFzRAMboiIaGysuiEiIiKKrl/9Kodf/2bJFsiY3alRQG9alGAFNnI32HGGNr3bmtZApRKH3Hl4MnmCv/rfvwo0pqgFNoeHBxMbx6RFJrgp6/xLLZGbXj4OewiRt7a2HvYQCGxUTERERBRFu7sa/uE/XcDubrwbznj1s7GzhzqDQptUysTengJVNfGDH9Tw5pvfB+pjE7XAZh5EJrhJZzLY2dka+Zd+lucTEcObaFhbW2dwQ0RERBQB7mlRfqHN4JBG9LPxDm0qFQnXr9fxH/7DVqA+NgxsTi8ywQ1g/dK/trY+UoDD0IbofBM/KxjeRAOrboiIiIjC9f/89RoePEgC6E158gtpvEIbd98ba7sztFldreI//sdgFTZAb6WoSTkvgY0QqeBGOE2AQ0TnF8Ob6ODy4EREREThsPexca/+5A5pAAwMbQZNj3rlxh5u394JNKZJBzYAUK/XUa/XJ3rMYXK5FZRKpZme0y6SwY0wiwAnnc4M3D7pL048rg7fiYhGtruzjUw6i3Rm8Guapo+NiomIiIhmZ3dXw6/+OdedFuXVw6ZSkTzCnFZnn2ChTTpt4k//1/AaD4cR2ExbJpOBruvIDHkPE+ngRjhtgHNp7fJYf4EvlfZx/8HDUz/eTzq1gHR6suvTExFw795dbGzcYHgTMi4PTkRERDR99j42QH9II1aFyucNRzAjPrf2lR1Lf/uFNplMG8lkY+iYGNhMhxT2AEaxtraOH/34Fi6tXQ60/+7ONu58/gl2dramPLLRlCtV7H6/h3K5EvZQiM6ce/fujrVKnc4V7iaC09aIiIiIpudXv8p1e9nY+9GkUiYA9IU07moae7NiUX3jFdpYjzNRqciQ5ZjveGRZxsLCAlKp1MRCm2aziePj43Mf2gBzUnHjNmoFzu7ONnZ3tseuwJm0cqWKcqXKChyiCRu38iabZcXOuLg8OBEREdHkiWlRovmw4F4Byrot920ftsy3/TEi7KlWZVSrMrziA64UNRtzGdwI0w5wcrkVXL++AQC4f//e2OP1U65YS6fF43H2wCGaEE6bCh8bFRMRERFNxoMHSfzqn1eg6woKBdXRn8b+OQDP6hrxueDe5rXalP12JtNCuSw7xsSVomZnroMbYZoBzsbGRvf21MMbVt8QTdTOzhY2MjfCHsa5xkbFREREROMRq0W52StmvD7vVdP0hzjDAh37Y1IpE6lUuxvuMLCZvbnqcTPMaXrg7OxsBeqBs7GxgT/8wz/qVuBMC/vfEE1Ouazj3ncMDcIkGhUTERER0Wj+7d9y+D/+zzz+83+xfpeyByxe3EGNdZ/su60/0Om/LfarVCSk0yb++39/CUdHixN5fs1mE5VKBdVqlaHNEGei4sZtlAoc9/YgFTgbGxu4d+/e1Ctw2P+GaHwivNl4yb/yZn+/NMMRnT+suiGi8+Dw8BBLS/1/EY+KccfXaBgTHE2/IMvhhinK44vy2ABrfK1WK7Kvj0mPr9EYvvJSoOMYBv7lX68CqHpudwcrgqii6e3nDGfczYrdj3HfviSIZgEAACAASURBVHbtBHt7ccRi1jm//iaDVNrEO2/vA+gt7DHq92AsBoY1IziTwY1w2gAnk84O7YsxywBHYIBDdDpBwhuannQmA8RklEr7YQ8FW1vbyGYyyES0AXXUx/fRRx/jpz99K+xh+Aoyvmm/+Rzkk08+xa1bb4Z2/mGiPD5d17G1tY0bN14OeyieOL7xcHzj2dqy3sesrwebdTBrYnxmO+SB+Ij6+IZx97Px2ib4BTqDbgNAuSzh2rWTzlSpFu7d0/DccxJyuTK+/e4+1tcvIyY5+98Ms5Cc3FSr8+BMBzfCqAHOLoI3MJ5FgMPwhmh8DG/C1Wg0Qn3DLOzvl5BIJCIxFi9RH1+rZUZ2bED0x0dERDQJYuqSWKbbvc0rhBlWbePexzqWs/GxqMApFFSUSmnkcuXZPvFz7Ez1uBlmlB44uzvbuPP5J4H63wDOJsbTwv43RONhz5vpCPpzkojoLCskC2EPgYjOEfdS3gD6Qhzn/oOrbez79PfF6QU4lYqMSkXG5mYWgDVF6viYK4hO20yDm1wuN8vT+VpbW8eltctTCXBmgQEO0emVy3qkXs9nQVnXUdb5DzYRnW/5Wj7sIRDROdSrlukPcbwCHfdtr4bEvWCnP8CpVCTk8wbu3l1GqZSeyXOkc1ZxYyemT817gFM6OGSAQzQisaIcTQ6bD09G1BtMEpG371ltQ0RTUqspjmoZL/0VM1Lf7UE9bMRjRUWNmC5lD3D6lxqXcf/+pUk/XfJxboMbYd4DnEbDsFagYnhDNBKGN5PH60lE06RHuLLvIqttKETZbCbSrw86nWlWs4iAxl1t454OZQ9wAPTddxarbg4PD8Iegqdz0Zw4CHcj4kBNjHeCNzGeNi4fTjS6Ya9zGs3uznagVfnOo6C/UNfr9Uj/8s3xjYfjC8avV4JY2SeKdF3Hg+YDZLai+fNP1/XIXz+Ob3Ti9dpo1FEshr9yox9d1yPz88VLVMdXq61ib+8qNK2BcllCs2kgFjNRrVq1F+7b+/sakkkDCwt17O+nkUwaaLebKJWSWF2to1w2USol8fzzZTx+rCEWa6BatY4RiwHttvW4558vY29PQyxWw96eif39tuO+ctnab3W1jr09Cb//fQ6XL3898vV78cWrWMxmJ37dpmV7exuffPLpxI+r63qgFeEY3LiME+BEgT3AicfjYQ+HaGSNRmOm57t/7x7iWsJ2/jq+/PIraFo0lygsFosoFoszG9/CQmqk5us7O1vYyPSv3HX37rd48uTJJId2KrO+fkLQ6U9RfGNgx/GNh+MLbt6mDGpaHIvFRWA57JF407Q4isV62MPwxfGdTiaTQTbbawwb5eXAV1dXsLq6GvZQPEV1fKVSGpqWgCQ1kUgkoCgKVLWJZlPD6modkiTh6Ejt3lZVFUtLbZhmHKqqYn29iWIxjaUlQFXjqNUULC0BzWYKmmbFAJpm4uhIxZUrVRSLi1haAjQtgWZzoXPfgsd9i53jLEDTgErlCtbXL498/eYptAGAy5cv49atNyd+3Lt3vw20H4MbH2tr6yiV9rH7/V6g/YPuNyvlShWwLSNORAPYXivxuIabN69F9k3D3bvfYn398szGd/nyaL8EiubP7hD8xo2Xkc9fmOTQTmXW129Uuq7jxo2Xwx6GL45vPBzfeLa3tyP7xlTXdWxKzyI9vnq9wfGdUtTHB0S7R5oYF8c3GsNIQ5ZlyLIKw4hBlmUsLZk4OJChqioAQJadt5eWJBQKKrJZoNFIQJatihxVjeHgQEU+bwBQu7crFWtfVVVxchLvLPW9MPA+We5Nq7p27QRPn6bRaq0jkznbRQMrKzncvx/e+c99jxsiIvK3sjL6aoC7O9tcZYqIzh2uKkVEYRE9Z9zLgdtXlgJ6K1C5e9Z49bYR9/Xv52xsLEkS7t27PqNnejYFWU6dwQ0REU0cGxUT0XlT4MpSRJ7YPHky7MtzO+/vX3HKL6wRwYw9fHEuDy4NDHB6+/W2ra7W8d13KyM3KW6Z5vCdzoGglV4MboiIaOLKZZ1VN0R0rrDihohmzR282D/3q8LxO4Y97PGrynFvAwDTtAKlL7+M7lTCs4DBDRERjaXs00+LVTdEREREkyeqaJz39Spy7MGKCGbsy3jb7xMVNe4Ax748OABbpU7vcfm8gWLRWs1qc3NxRs/+fGJwM8D+finsIRARRV6j0UC5XOm7XzQqJiI6677nNCkiCsmgqhsRtAy6zy/AEdzTpdzTpmo1a7pUoaCOPF2KgmNwQ0REYytXqmg0jL772aiYiM6Di5wmRUQhs1fh9Kpnht9nD2rcAY5gr9ixT5sS+9Zq1kdOl5oeBjdERDQR5Up/1Q3AKVNEdD6wOTHRfIpy82QRtPjxa1jc63MzvMrG2t6bDuXeNqg5caUiY3W1jlpNQT5v4O7dZVbdTAmDGyIimohGw8DX3/wOT55sonRw2P3/6eYmSiVOPSWisyuTie4bPyI6+9xTocR9flU2APqqbOyPEdvzeaNvH/e0KdM0YdpWiGLVzXQwuCEioonZ3y+hYRhoNJz/ExEREdH4/FaK8gppBHuo4+5l4xXgeFX62Kts3M2JRY8bUXVDk8fghoiIiIhoTFwOnIimQVVVmGb/dCn7st9e7NOj7KGO2OYV4Pj1srEe49+cWJIkx/Sszc3s+E+cHBjcEBERERGNiT1uiGhW/EIUewjjrrxxLuvtHeC4p1G5q2vsH+2PLRY1pFKt7vbf/Ob5qV+D84bBDRERERHRmFhxQ0RhsTcp7g9znA2MvQKcYdU17mbH9kbHq6t1xzSqVKqFzc1FNimeMAY3RERERERj+Cb3TdhDICJycFfeDApwBHdVDdDfjNj9UZZlaNpJ3/1sUjxZDG6IiIiIiMbwWum1sIcwEFe9Ijrb3OGMfdqT3z72+4H+qhoAfatK+X3M5Wp997NJ8WQxuCEiIiIiIiKaM+4Qpn97f1WNPcAJ0nzYOT3K7Pvobk5sxybFkzPT4CaXW5nl6YiIiIiIZoLNiYlokqxwpX81KcFr2e9RpkW5+9vYgxyv/XrH7v8otrurbuaxSfHh4UHYQ/DEihsiIiIiIiKiM0SEOv6Nib3DHfdy4EE+lkpJW3PiXjVOqZRm1c2EMLghIiIiIhoTV5UiorD4hTDW/d4Bjr1aZth0qEEfTdOEaZp9xxVVPPNYdTNL2WywHmQMboiIiIiIKDRsnkwUnFdII8KZYVU09u2jTocaNE0qmWz2VeGIqp3NzcUzUXUTdtsXBjdERERERGNijxsiCptfgCOIwMU9HUr0t/H7OGy6VDLpnCZlH08q1cLm5uLMrsFZxeCGiIiIiGhMnCpFRGGyNzL2CnCCrD7l99HOPV1KkiRIkrsaR3aEO19+yZ+P42JwQ0REREQ0JlbcENEklUrpgdsHVdWIj/2rTo3Wv8brHO7pUtZYk33TpJyPVfqmS5ktc5TLce4xuCEiIiIiGhMrbs4u9uChMFUqMpLJ5tB9/IzTv8a9JLm7kkZ8tI7vPU1qnpcGjxIGN0REREREY2LFDRGFIZUyux8HBThBuFeX8mo4bN9uX1XKHvI4H8OlwSeBwQ0RERER0ZhYcUNEkyQCj1GNMg3KbyUor0obezDkrsbJ5WqOY3nty6qb8TC4ISIiIiIaEytuKCycykVuo06B6j3Ou7+N12PsQY39sc7zy44wZ3NzEaWSNoMrcPYwuCEiIiIiGhMrboholkYJZLwf31+BA/SHPoJfX5taTXWtKmX2NSkWx83nDXzxBX9WngaDGyIiIiKiMbHihsgfK4Imx2u1qGEGrRQVtBGxdW7vkAeArbKm5bGP2d327bcMbk6DwQ0RERER0ZhYcUPkLZPJhD2Ec8erkqa3zb86x10tY7/fPW0K6FXhlEpJx/nsfW3cTYq9lgan4RjcEBERERER0bk1LxVBgypt/IIaa5t/UOPsQ9PqO1alIrvCHtNRhZNMNvv2cTcpdm9jk+LRMbgZoFTaD3sIRERERDQHOFWKaD7NS0XQoN41fsuA+02r6gUzraGVNV5Toez7VioSkknDtY87sHE2KS6V0iiVEqe7EOcUgxsiIhrLxsZG2EMITNf1ufkFjYjmC6dKEdE0yLIMwzB8tw+qsLGzLwEeJLARhq0cBfSWA3cHNuLxXk2K73xxYeRrcZ4xuCEiorHkciu4fn1+whsiomlgxQ0RzZK7ybB1n39gI7b7HcP+WHuFjP0YfqFOPF73DGxEmGMdwzmF6unTHPb3o7c0+NHhYdhD8MTghoiIxraxsYFcLhf2MIiIiIiowx7YBKmwEYGN/fNBgU0qZaLRSKBWUwIHNiLgabcVfPb56vQvwhnB4IaIiCZinqZMEREREUVZqaQN7Gtj5xfMjDolapTAxn4c9zbrGPZlwJ37i+bGv/vdSiSrbqKIwQ0REU1ELreCP/mTPwl7GEREoWCPGyKKqqA9bMS+AAIFNqKaxr4cuH2pcNGY2L2/uK/dVlDcj0/xmUdfJpMJtKqZMoOxEBHROXH16lUYhoH79++FPRQioplijxsiCpu90sa+ApTfvvZlvQdV0Vy7VvcMYMS2Wk31fJy9ase+v7jv4kUDn3++ipdfmo/l2HO5HEqlUt/9s1hOnsEN0QSwt0e0eP1AHcXxcXT/8Wg06pEeH2BNmXry5PHYX4dpqNfrM/nH9bROM75Zfj/ouo6tre2ZnW9UHN94zvr4pv3alzYl3FW+neo5xlEsFnH3Lsd3WudxfJN8zWxvb+OTTz6d2PEmLYrj29pKQpabqNVUnJzUcXBgQNeTyGZ1FAo5ZLMlVCo57O+XoOsZqGqtG6A0Gv37mmYGz57V0Gyq2N4GksnB+zx4oCCXq0HXk9jf17vbVBV48CDZWUkqi2y2BEnS8OxZq7ttfV2Hrjv3d9/35MkiXntNRqGQCvlKB3f37rd48uRJ3/3jrlgauYqblZX5enP71ls/DXsIRHQK9+7dO3XFR6NRx/5+dN/cF4v7AGaT7ANWKJDLrYz8uOvXN/AP//APUxjReM7iG1Mub04UzPr65ake/3fV3039HOMoFosc3xjO4/gm+e/LJ598ilu33pzY8SYtiuP7/vt11OtZxOMygEMsL2dgGCpWVjTs7CxgZUXC8bGGRCKPTEbF8nISy8vWFKXlZcNzX/c+h4cJrKxojuPE42ksL1sVO889p+HwcAGJRLK7LZVqwTCsbYZhPW5trQTDuIhr1+rd/V98ESgUsr73PX6cQKXSRD7fv5x5VN248TLy+ckvYx654IaIaBZEk9zThDfxuIb19cuRfjM8y/Fls6c7z9WrV/HHf/zHkZsypes6btx4Oexh+Ir6+La3tyP9xoXjGw/HN57nW89H+t8OTdM4vjFwfBRl9ilS9s+t261uo2D3Pm5iOpO9D417+pPYZm8+nM02cXjo3B+Aawyy47gLCy18/72KH/ygPo1LcuawOTERnUkbGxt46623wh7GucYlwomIiIiiwb3st/0+EcB4bRu0kpQ9pPHa39mQWHLsd/FiL8Sh4RjcENGZlcut4A//8I8YHoTorbd+yutPROcCmxMTUZS4K2169/dX2rircNwBj/uY7jCnVlP67nPvJ45rX8XKvcIV+eNVIqIz7623forr1zfCHsZE6Lo+d6XQYuoaEREREU2eX0jjFrTSBkC3SsYexIj9vapvvI5h368/xJFx8aKB77/vLUVO/tjjhojOhaB9b+YxGIm6XG7Fd/lEIqKzIl/Lhz0EIgDRXO30ypUrkRyXEMXxPf98GqmUgkpFxt5eChcuaFhbk5DPtyHLCq5diyObVZBKWbUYg7aJSpds1m9bG9msgnw+ibU1oFJJIpUykc2quHatjWw2hlRKc+0fQypl7b+3t4SrVxWsrfXuq1SSnXNa9wHoHm9tTUK1msTFi01Uqy0sLS2HcIUti0tLjs8HjUUs2BHG77Sxf/qn/9Ke1cneeust39VJyroOvXw8q6HQDJQjuioPnQ1ra+tInyJgGbbiVBRXFbCb9fgG/dwexb170WhSvL29jcuXo9fcVKy6eHysn7oh9CxwfOPh+MZzfKzj6tWrYQ+DiIjOsXFWr/UT5Pf7yFTciDdgevkYuzvRXaqViObbxsYGVlZy+Pjjj8MeyrkSlelSURmHn0mEZNPE8Y2H4xtP1MdHRERn38pKDvfvz/68kepxk85ksLa2jh/9+BYurV3GpbXo/VWUiOYfmxYTEREREdG8iEzFjdva2nr3487O1tSqcNLpzKmmWwj3p1j+n06npnZsIrKaFk+j3JGIiIiIiGhSIhvc2K2trXcDHAATDXHKZasPi6j2Oc3YpvXGr1ypIp1aYIBDNEVBmxYTERERERGFYS6CG2FaVTjlso5yWcfuzjYurV0eOcDZ2NjAxsYG7t27h1Jpf6JdpsuVKgMcoiljeENERERERFE1V8GN3bSqcHZ3trsBjjhPUNabv43u6imTfBNoD3AATqMimjTRtPiTTz4NeygErkpH88FvqvWsv3+5KidRMPPyb0ur1cKltcueyxKXdb37/odoFsQMlfOg2WwimVzAaz+86bn9zp3PUSrtz3hUlrkNbgR3FU5Z1yfyzSWCoNNU4Yi/3osqnEkHOHYMcIgmJ5dbwV/91V/h448/mmjl3Fl177u75+ofcyK7ZHIBN175Hzy37exs8bVBRKdSr9dRr9cHLtLCny9Ek9NsNlGv19FqtQAA1WrVd99Go4FGw5jV0BzmPrixW1tbB9asJHqSy4qPW4UjAhxgclU4IsDhNCqiyXvrrZ8yvAlg46UbuPP5J2EPg4iIaGaazSYUZfJvodxvHoloeqL2estkMtB1HZkBiyadqeBGSGcy3WbDk5xKNYkqnGk1MWaAQzRZudwKg5sANjZu4N69u2EPg0KQTmci9xrRdR0rK7mZnKvZbM7kPETnTaNhoNFo9N9vTO+v3KqiQJJiA/fRNA2KokwltKlUKpF5A0nny4MHSdy7n8K//VsW+byBVMrEN98s4LXXqigUVFQqEq5dq+PRIw35vPUaLBRUx32plIlPP43h5s0GGg0NhYKKW7cO8MILJVy9crrqMFmWu6+5SRH/bkcpsBnFmQxu7KbV0HicKpxpYR8cIpq1dCaDS2uXJ7raH0VfOp3Bxks38F//6z+FPRSHe9/dw3vvvTOTc83jL31EUba/X0K5XIGWSMzsnJIkQVVltNsm/F7S03gDKTSbzYHTMoimZXdXwxdfZvDf/tsyXnutilTK7AYyqVQLlYrU/WiXSpmoVGQAQD5vOB5Tqyn4wQ/KeO+96AU2kwprwvzD7pkPbuym0dB4nCqcaeE0KiKaJfFzj+HN+RHV/gqyIoc9BCI6hUbDwNff/A7r65dnFtyoigxVHfxWSNM0aJo28XNHbZoGnQ8PHiSh6wp+/ZulsUMasW+lImN1tYr/5X/extra6arioh7WRMW5Cm6E81qFwwCHiKZlbW19Ys3haT6UdR25XC5y06VmodlsIh5nSEQ0CeVypW/xjWnTNBWyJPlun2aVjWg+TDQr7ulQfkRIIwKbVMr0DXRyuTIyGeC9956eqrpGlmUoitL9OAnNZhOtVqv78aw5l8GNnajCmWRD46hW4YgAJx6PIx5Xwx4SEZ0xGy/d4EpTdC6cxV8IicJQOjic6QotkiQhoQ3+HZhVNnRW7O5q+PVvlvDVVylcu+YdFoqQxh7opFItFAqq536xGPDaa8d492dPTjUmVtec3rkPbgR3Q+NJLitur8IJW7lSBea0D05YS68RUXBra+tsVnxO7OxsYWNjAx9//HHYQyGiOdNoGChXKjP93W7Y1ChW2dBZEKS6xj4Fyh7SuKdAiX3FFKl02kStpmBwG+9+DGsmg8GNB7Gs+CSbLu5+vzexY02CvQ8O0TxKD1guj8KTzmS40hQREflqNAyUDg7DHoYDq2xo3g2qrgk6BUrsKwIfr9435XLwacKTDmzE6wk4n5WvMw1ucrmVWZ6OiIhCwJWmzodyWcfK6oWwhxEKLgVOdDph9LMZZmFhgUt809z64osM/u2jRZimdx1MKmXabvtPgQJ6DYjFvl7b9/biA8fD6prpYcUNERFNHJsV01l23n95JDqNWfezGUaWZaRSk28ZwCW+adp2dzX86p9z2N3VkM8b2N2N902LslfXnJZXdY4Iceym1WiYYY0TgxsiIpoKNis++3T9/H1tWW1DNJow+tkMM40qG77RpGnb3dXwD//pApLJdl/lzCCDlvq2BzN+1TdCOt1CKtVCubPPtKZC8TXkzX8dPCIiojFFYVU9okniL5REwYl+NlEJbWRZnkpoU6/XUa1W+fOBJk68hv6v/zuN/+8/L+LBg6TvvvbgBYBvWGPd9u5x4/U4e4gTi8VweJjFp5+9jEplZSKvpWaziUqlwtfQEKy4ISKiqYlas+LDw0MsLS2d6rGzeOOh6zoyEW687R7f0yePwxuMjyi8QWwYhuc4dF1Hq9U69ffgtE1yfI1GYwIjchIVXlF9jXB8Tn6vg7DEJAntNnByUgcw+gpPTzefYXlpse/6tdtttNunn44yqobR8GzuvLW1jWwmg0w2mt9/HN/pnPY1NCiY6d/XWX1jv8+u3QYuXGhga0uFpimoVpN4551dAMBvf/s7vPD88yNfP0VmHUlQDG6IiGiq0plMZFbW++STT3Hr1pthD8MXxzee/f3S1FerGbakMGA1YPUax92732J9/TLM9rRGN56oj+/b7+5jff0yYlLwVU1mieOLtkZjvCCpUNiDqqp910/TVMjSbN98ej2P/f0SEolEpMIyO45vsrwaDfvvO3halPtYg/Y1TRPttgnTtP4X16vVMk8V1irJya/mdlYx4iIiIiIiIoqQw8ODsIdA51A+b3hW6niFOKVSetbDO9cY3BARERERjamQLIQ9BCI6h7x61wzqZzNoX/dxvap67MdjeDM7DG6I5sSHH3wY9hCIiIiIiGhODVoe3CvwEdyrTHkFPTRdDG6I5sSlSxfx9ddfhz0MIiIi8pCv5cMeAhHRQPZqGb+QBugPcezs06nu37805RGHI4ypisfH+sDtDG6I5sRLL7+Mk5MT/PKXv8SXX34Z9nCIiIiIaMZyuZWwh0BzYthUKAC+U6iGHYMVN5MVZLU/BjdEc2RjYwPpdBo729v4x3/8R3zxxRdhD4mIKDIymUx3yWOiMHzPPjdEFKJBIY3gHdCYniGO89i9EEfcPm89blZWcqGdm8EN0RxZWlqCpmlIJheQWljAzvY2fvnLX+I3v/lN2EMjIiI69y5yuhQRzZi7+fCgffx63Lj72XhNpwK8A51SKY1MJjN0qg+Nh8EN0ZxRFAVqXLUCnAUrwDk8OMBvf/tbfPghGxgTERGFgatKEdG8GDaFSrCHQvZAx92smKaPwQ3RnJFiMciyDEVREFdVaIkEkgsL2N7awtHRERsYExERhYDNiYloWhRFhWEYIz3Gf5nvwY2IR+1nc1YbFEcNgxuiOXJ8fAzEYojFYpAkqRfgxONIJBJIp1LY7vS/+YoNjMdSKu2HPQQiIpojrLgholkZFMp4TZsKEuK4H+ueWjUo3KHpU8IeABEFd3x8jHa7jVgs1gtw2m1IsRhMSYIky5AVBaqqYntnBw8fPsRP334bly4xCSciIpomVtwQzS/RoyXI6j5BTbJZ/tLSMYrFJFqtVrfyRtw2DAmtltR3Ox5voVjUsLxsoNWSYJomDMNAIiHh8NBEPG6g1VI6jzMdtxOJhuP24WELqZT3bcPQcOFCHfV6Y+TnvJDUJnaNZmUaiyA0GnXE44OvBYMbojlxdHSEJ0+eQJIkxDqhjfgfnQAnFotBikndahxVVXHnzh3cevMWVi+shv0U5oqu65FcnaZer480rnEbxR0f6xNZenRra3vsY0yCruuRGYsXjm88xWIRmhYf+ft+lNfU1SvPI5dbHrjP9vY2Hj9+4nl/kF/OwsLxjede4V6kxzep6zetfxuLxWLnNRzN6+c3vpuvv4alpcWZjuWTTz7tu29er19UiO/r7e3J/Rs3yRCoVFqBYeRhGA3UalUAgGHEUatVUa8rqNfbA29LUgOlkoZMpoparQVJklCr1SBJLRweSpAk5+16PYbDQzPw7fv3G1haGv13hEQijsVsdmLXadqOj6fze1CxWMS1a9cG7sPgxgenSVCUHBwc4IsvvoAsSWhLMiQphphHgBOLxdCOtRGTbFOpZBlPnj5hcDOiqL5BHXVc4/7SkM1O7pcOomnTNA31emPkN6br65cnOo5MJuN5zEajjpWV1ci+rji+8ZyX8U3yzajd3bvfYn398tSOPy6/8Wna7Bu03rr1Zt9983r9okL8bjXpfw8mZXd3FaXSAhKJJLLZNgB0b2ezwN7eArJZBbIsoVpVh94uFFRks3Hf21evjnb70qU15HLe//YNMm8VN9lsBjduvDzx425tDX9dMLghiogvvvgCb7zxRt/93979Fvcf3IeiKJBlGbJsQpZla4pUJ7yRbFOn7P9LklV9U6tWcXh4iKWlpRCe2Xy6fPkyEolE2MPoo+v6VP7BmLao/CK0vb0dmbF44fjGo+v61N8YqMrwOf2ZTMaziWQ8riGbzUT2jQvHN554XEPtYg3rSjRfI1G/fnS2TWMqEvWbZe8Z+7lKpTRyufLIx2iZJmSJbXeDYHBDFBFvvPEGPvzgAxwdHVnzUjUNpf0S4vE41LgKVVGgKCpkxaqikWUZkixDkiS0JakT3kiIxdALcRBDTLaCHf34mMENERHRFF2s5QG+LyWiCPBrJjyp29bnoqHxKoDdWTytc4vBDVGEvH/7NgDgww8+wNfffINWq4VkMglN06wAR21CVVW0FAWKrEBWOtU3ncoaSWpDikmISUAMsAIcdKZVMc0mIiIiIqKAxMpSIqBx3xaqVbZkmLaZvZPL5XKzOhXR3Hv/9m38+Z//Od64eROGYeDo8BC6rqNaqaBareKkdoKTQamxZQAAIABJREFU+gnq9ToaDavre7PZRKvZRKvVRKvVgtluo91uA+12twKHiIiIpoPLgVOYxFQkokHEct/2pb8H3fZir7rJ5w0UClafp1qN4c008U/wRBH2/u3b+LM/+zPcvHkT5XIZh0dHKOs6KtUKatUqTk5OUD85QaMT4DQMA0aziVazZYU3tgCHc4qJiIimh8uBE1GYThvE+HFPkRIBjf2YNDu84kRz4P3bt/EXf/EXuPn66ygW93F4eAi9XEalUkG1VkPtxFZ9IypwDAPNlhXgXL58Gdk5WmqPiIho3rDihohmaZxQxnkcv342/sf32p/TpaaLwQ3RHHn/9m385f/2l50Ap4ijwyOPKVR11Bt1q/qmM4Xq+eefD3voRERERHONU5Fo3vk1Gfaq0LFzhztejymV0lMd+3nH4IZoDr1/+zb+8i//Eq+//kPs7+97TqE6OTlBOpXC66+/HvZwiYiIiOYap5zTvHIHLtbt0XrZ9I7V/xixH4Ob08tmM9D1wcEwV5UimmPv376N92/fxocffICt7W2U9veRSCbxwgsv4ObNm8jnOd+eiIhoFtjjhoiixh7WABjam8ZvuW+xmpR7P3H//r4CwECplEYuV57ocwjD4eEBlpaWwx6GA4MbojNALCNORERE4fk+WUAGrMwgounwWoq7f59eqOL1WL/9h53DHdb0mhWbqNVUALUxnhkNw6lSREREREQTcJFVN0QUIUHDGsC7GsevWbG1vzPsqdWUMz9dKpdbCe3cDG6IiIiIiMbEVaXGk8lk2PyXyMew6UdeQYwXv338V43yD36s/ZzbznpwEyYGN0REREREY2KPGyKKgmFhS5D9gk6pElZX6ygUzn7FTZgY3BARka8wS0KJiIiIaDxBKnHcU6K87hfbeitLmd0+N6qqdvdheDMdDG6IiIiIiMbEqVJEFDXBq2wG96/x2mYPeJLJZqCAiE6PwQ0REREREdEpmC3/1X3GcXR4OJXj0tnhroYZttT3sMfb7/eTzxuOihv745NJaxsrbqaDwQ0RERER0ZjY44aIpkVVVTSbhu92v+bCvc9PX2UzqPGxfT9RdcPgZjoY3BARERERnXFctYnofPCaHmXfNmqVTdAQhxU308XghoiIiIhoAr5nnxsimlOnqbKxNyi2P4bhzeQxuJmgL7/8EgDw5MmTkEcSTb/73e/w+eef48MPPgh7KEREREQTd5HTpYgowk4bzgzaz+9xQUyrR9RZxOBmgm7evAkA0HUdf/3Xf43PPvsMH374Ycijio5XX30VL7zwAvb2ivjbX/wCn332WdhDIiIiIpoIripFs5LL5cIewpmTzWag62dnKmHQ4MVtnCobO1bcTJ4S9gDOotdeew368TGePn0KwzDwN//v3+DlGy+jWq3ivffeC3t4oVpdXcUbb9zEt999h2ebm3j48CEWFxeRzWbx05/+NOzhEREREZ0KmxMT0bwRgUwqZXZCmNGqceyfS5K16lShoDK4mQIGN1Ny45VXUC6X0Wq10Gy1sLm5CcMw8Iuf/xwvvfwyarUafvazn4U9zFCsrK4iubmJeDwOrdmE0WhgZ2cHv/jFL/Dyyy9DPz7G+7dvhz1MIiIiosAKyQLWcTnsYRDROTSsquY0gYzX8UUT42EVPAxuJo9TpXzs75fGevzy8jLyFy8ikUxiYWEBqVQKmUwGmWwWm5ub3aDizp07+PijjyY06vmwtLSEC6ur0OIakokEkgsLSKfTWFxcxLNnz1AsFvF3f/d3nEpFREREc4MVN0QURe4+NG7Bpkc5p0pZj7M+F1U2YtukGhQvLS2P9fizhhU3UyTLMlRVRdtsw1RMmGbn/5aJltlCq9XC5tNNGE0DD3/+cywtLWFlJYef/OStsIc+dZIsQ1EVtE0Zctu6LqqqotVqoaVpaDabePbsGR4+fIilpSUsLS3h1q1bYQ+bfOzt7eH+/ft4++23wx4KERFRKFhxQzTYWeohM2u5XBlA1nFfKtXqBiajcE+P6t0fvBfOoDBo1AbFfg4PD8Y+xlkys+Aml1uZ1akiY2lpCeVyGZDaaLclmO022u022qYJ02zDNE204laA02q10DQMPHu2hYcPf4Hl5WWsrKzgwoULuHLlSthPZeJisRgkSQJigATJuibtNhRZtq6LqiIejyORSKDRaGBrawsPHz7ESy+9hB/96EdhD59cLly4gAsXLqBQKODB/ft4+513wh4SERHRTLHihsjfWWv+G3XuqU3++/WHP86eN7LjttfxUykTtZrWt61USncCp/lzdHg40/NlMsNfH6y4mSJd161wot1GG4DUbqPdBtpyG22zjXbbhNlWepU4ptkNcRqNBjY3N/HwwUMcHh52V6w6K3RdRywWA2JArB1DW45Z10eyAi653bZVKLXQ6oQ4W8+e4dGjR3j33XeRz/MXpKhRFAXF/X188803OD4+xjsMcIiI6JzIZDK433yAH+GNsIdCRNR12koad6jjrNTp31arKchme49jn5vJYnAzRfqxDsQAxGKIofOxDbTRBmJAG1InzLH+N02zU41joiUCi4TV2FjXdbz77rshP6PJePbsGdrtNgD0whvEOtenjRiAdrsNSZKsa9OpwlFME2anofFnn32Gn9z6CVZWz18lV5Tlcjmsr69ja2sLjXoD33zzDY6Ojs5tI24iIjpf8tU8wLYMRBQCe7AyeL/RGg2PPo5exQ1NDpsTT8nm5ibMthXEtNttoBNUWPlEDDHJmiokSRJkWYYsy1AUBYqqQo3HocU1aIlEt7lxrVbDv//7v4f7pCbkyZMnaLVa3Yoa5/WJdadRyeLadK5LXI1bK1ElEkgmknjy9Em4T4Q8vfjii0gkEkilU9ja2kJpfx9ff/01fv3rX4c9NCIiIiKiMy9onxl3yGOvzvGbHuW1LZ83UCol+85/FsObXC4XynnPVHBT1nXc++4udna2UA55DuXjx4/RajbRalnNiO0hhag2ATohjjuokGUoigxVUaB2er1omoZatYrDg/lu0nTnzh00DQPNZrM7LcwMEOKIgEtRFKiKCjWuolqphPtkyFMsFut+3yYSCaRSaWxvb2O/E+D867/+a9hDJCIimrjCQiHsIRARefJbIUrw2zbocZNqQkzBnLmpUuWyjnJZxy62AQCX1qzu/mtr6zM5f6lUwqNHj2AYBqRYDLFO6CACGvf/gJgmhO6Uqlgs5uyLA3SaGrcRk+bzxVEsFnH//n0cHhxCkq0QRgQy3esUiyEWE9eq3bkesW6VUq8fThtSO4a2JOHo6AiLi4thPz1ysX99raopGaqiYnt7G/V6HV9//TUWFxfxwgsvhD1UIiKiichX2XuPwpPNZrC1tR32MGgODVsuPIhksolKJQ7A+gO8WCJ8nhsUR82ZCm4aRgO73+8hHlcR7/zFf3fH+gEmPk4ryCkUCrh79y5KpVK3akaWJEh+AYU7zGnD0Qunry9OrA1IVlPfeQkqvv7qKzx+8gSqqmJ/fx+qqlrTwRTF/xp1rosUkxCTxLWx98Fx9cPphF8UHaLxdAwxxOSYR4CjYHtrG48ePcLR0RF++MMfhj1kIiKisX2z8g1e238t7GEQEY3F3fPGb2UpEc5cu1YHACSTBiqVuGP61VmcKhWWMxXcCI2GgUbDACpVAMCrr76KFddy5GVdRzqTGftcH37wAdR4HF9+8QXUuNWDRYQTwwIKZ6WJqDZBd4oQ4GreKz6fEz98/XVkFxfx9OlTfPfdd0gkEtDicaiq2g1xZEWBIsuQOtfJcX28Qi77dYjFkM1mQ36W5GZNd0P3+9Y7wFGgqgq2t7awtraG1dXVkc4R1txSIiIiPwxtiGgeDFva206EM719R2uAvLmZxU9+Mtnxn1dnMrhxy2QyEwlpvLx/+zYA4O2338aTJ0/w9OlT7BUKKB0cWP1YVBWqLaCQFcUR4siS1J1O5VmJY58uhPkJbYQrV67gypUreO+997rX586dO1aIo2nOEKfTw0ZcH1mSIEkyJMl7ytm8VB6N6/e//z2MRgPVahU/ffvtsIcz0NHRETY3N3sVN0B3yptfgPP06dORgxsiIqKoKSwUOF2KiELlVx3jXkmq/3H9vWuChjMAoKoqFhcPUShc7FbgiClYnC41GeciuJkVEVIIohrnq6++gqIoiKtxqKq1QlK3CXGn2kSEONKQIGd9fTa9eqbBHeJsPt3EnTufI5FIIq45K3EUWYGs9KpwvHripNPno/TulVdewUcffYSd3V38/Oc/x/Xr13Hr1q2wh+Xp8ePHaDabjmlvMWBggFOtVnF4eIilpaWQR09ERHR6DG2IaJa8wplRiHBmWJPhQQHQoJAnlTId1To0HgY3U+Suxtl8+hSFvT2USiWoYulvVXWEFN2gQpIhyVK314skSY5QaN6JEOfd9961rs3mZq8SJx6H2gm55L4pZ9Z1+cEPfoDnn38+7KcxMzdevoGyriORSGBnZwd///d/j5c2NrC0vByJ74v9/X08fPgQR0dHve9ddwAJV4BjWzVsnqYAEhER+SksFLCOy2EPg4jIIZVq9U15GsRv6pT7OHbJZBOHh7JjX7EkOCtuxsfgZkYGVeOISpNetUlnSpWt2uTFF188syvwdEOcd9/Fhx98AEmW8cUXX0DTNOd0qk7AdePGDVy9ejXsYc9UTIpB0zQotuXhN589w4NOWFKr1fDWW2/NbDzPnj2DLMuIxWL47W9/i8ODAyj2719336J22zvA6fw/T023iYiI/OSreWA57FEQEVlGnfIkPnduH15VY58e1avksY7LBsWTweAmJH7VOAelAyiqAlVRoagKLl26hFdfffXc9AAR1+Xdd61KnK1nz6CoKvb29vAHf/AHuHTpUsgjDMfi4iIUVYVkmlA6vYBUVYWmaXj27BkMw8Df/u3fYmNjAz/+8Y+nPp5Wq4WHDx/iiy++QKITsMU7lVKK6tWcu1OF01kJTPIIcIiIiOYZe9ycbVxue3yNRh26roc9DE/Hx3qkx6frDdRP6mi1WjAMA4ZhhSjic+u2BNM0u58nEo3uvoYhodWSbPsqODw0EY8bfceJx1soFjUsL/f2FceJx4HjY9Wx7/GxBsMwYLZMtFotx3ETiQYePkzilVe8r6ssS1hdma9FR3RdD+X7hMFNBLircZ48edJ9o3v58vktt3Vfl/NOTDsyOxUssizDNE2oioJmpwpna2sLjx8/xosvvoibN29ObSzia/P+++/jww8+wOe2htNaXIMa96ggM3vTANuS2VlRzVpJLYq9mx48eIBqtRb2MBzEPxLz+ItjVMas63pkxuIlKuPz+4WkWCziq6++QjyuzXhEwWxvb6PRqE91fFevPI9cbnBJxfb2Nh4/fuJ5/7THN46oj0/XdXz55VeR+2OWeL3ouo4DHGB7O/zXsBcxTo7vdOr1uucbtuXlRbz+w9muKHb37rd48sT5M8ZvfFFRr9fRaDQi+/Ol0aijWNyP7PgAwDDWUa+foF6vQ5KanfviqNWslZRrtRZqNQWZjPV5vR7r7luvK6jX2919JakFw5BQq1m/6ypKDKVSA8mk976HhxIkyXvfw0MF+XwVhmEgkzlCsaj1jeH+/QaSyWLfc1paWpzL4GYav6sNe+0yuIkghhXkdnx83F0CXW630YYV5LTNNkxZhmyaUDvTqJrNJp49ewZd1/Huu+9OfWzv376N92/fxocffIBPPv0UC8kFaAmtb9UwEeKYYhqVJKEtSXghot/vyWQycsGNpsVRLNbDHgadA+vr3n80aDTqWFlZRTY7nZUaxxWV8WUyGc9rGJXx+Yn6+La2trG6uhK54CbTWblU/CLv9/oJG8c3HvFm7caNlx33q4rs84jpuXHjZeTzFxz3+Y0vKuZhfPG4FtnxAcBnn2m4cCEJIIlsVlS0JJHNtgFY1SuFgops1nqLv7CgIZ2OI5Uykc0Ce3sL3W0nJyoqFQnZbHzovr3j+u2bhCzHoCUMJBIZVKu9MVy9KqFQSOHKlSvI5Vb6npMk+TdFjqrLly8jkUhM/LgMbojOgOPjY6DdBjrhjTXNKIa23EasbU09aneqcMQ0qpOTE3z88ccz631jD3A++vhjpFIpx7LvcVW1+uDYmnGvrKxEtsn0tH4oj0PXddTrjcj+UjtIVMa8vb0dmbF4ifr44nEN2Wym+0Y1amYxviBv0jKZTLeM3I7XbzxiXFEdH8DmxEQ0H4atJDX4sf0rS7m3uU2zQbEsW+dTFAX1+tn9A+eZCm7290thD4FoKjafPu028hWrMln/de5zVOGY3WlUtVoNBwcHWF6eXadEe4AjyTLu3LmDZCIJLaEhrqpQ43EoioJ8Po833nhjZuMiIpqkw8ODsIdAEdPtccPmxEQUAe6AZZR9vZoM9/btX1mqUpHRyU88H7u5mcX167sTeV4iqNE0DYrSizOqtWhVyk/amQpuiIZ58uTJ3E1Fe/z4MZrNptUTprN0dkwsqQ14VOHEEGu3e8vKh1SCKBpNm60WYpKEvcIe4loczz//PNbW1pDPs4EjERGdHWxMTERR5l4dalgY4+a3slQ+b3SmUtn3dYZA46ws5RfUNBoGGg0D5UoFjYYBSZKQ0AY/hyjLZDLQdd23qpTBDZ0rlUoFf/M3f4ONjQ3k8/lIhzj7+/t48OABjo6OOiFMJ7ixBTiSCG08qnDa7TYQQ+hLbYsAh4iIiIiIJivIkt9uQZcIH2U6lCCCHPv+hYJ6qulSf/AHP/G8/1/+9V9GOs5ZwOCGzpVXX30ViqLgd7/9LR4/eoSPPvoI/z97d9bcRpqfC/7JTCyEQEAgwJ0iKalKa0kllbqWdi0q+7jHbbevZu4cDn+Bccz1XMz1mfBEnO/gC3d1244zM444E57Tc+yOI1VXu9Qql9aqlkrcQIqQSAEgiCRIYsnMuUgkgAQSKwFkAnh+0WwCiczEiyySIh7+3/97/vx5R4Q4r2KxUgjz3XffIZlI6ktrV/SEkSSpFOIYAY4oCBCMSpyKKhx9WhWMLURERNRj7HFDNJiMaodBUxmoWOm8j03jChyr6VDVFTfV+3Zi3KaeZk6cDs3gZsgN4tSgXrt48SLS6TTib+IoKPoKTOvr6/i3f/s3nD//Fj788ANbxjU3P1/qC/Ps97/HmM8Hj9tTXJlJX5VJcrlKAY4R4lR+lKZRVVXhEBERUe+xx83oUVQNvZic4cQ3juRsVr1oKgOTdvrY1Dt3vUodv19fitzYF0DNuXvZoHgUMLgZcsvLy3j86BHyhQKOj4/xySef2D0kR3C73RjzjUFVFCheL5RCAQVFwfb2S/zjP6whHIkgGAziww+ty/N6xZhW9Omnn+LunTt48PAhvB4PvF4vPB49xHEVl9eWJAkuyQVREmtDnIoqnIWFhb6+BiIiolFUak5MHQkGA6UlwYnIfo164LQS5FTf72aDYiuq2t50sU6FwxEkk/1fFInBzQh498YNPHv2DGtra/jlL36B06EQJicnMTMzM7LVOOfOnsXBwQE0yQVVU6G63aUQp1Ao4PjoCHJaxj+s/wPC4TBOnw7iww/7s6y2wVidKRqNYjO6iUePH5UCHGNpbbfLDckllYIcSRQhVoQ4o/rfl4iIqN8Y2hDRIKuuwGm2b2WQMz2dx+qqD2fOGI/XBjsnaVBMfQxuIpFwv56qK5LJhN1D6KrLly8jnU7jze4u8vk8tra2sLa2hrt37+Lq1avIHh/j41GqxhEEvUO5qEHTRKiaVgpx3EaIo6p6iHN8DFmWsbb297hy+Qpu3LzR16EuLy9jeXkZn93+DHfv3IEkSXj46BHGvF54vN7iVCq9CqeyH87bb72FpaWlvo6ViIholLHHDRE5VSdVM61OpWr2XNUNi6l9rLgZIRcvXsSBfABFVaCqKhRFgaIo2NzcRKFQwC9/+UuEQiFMRiZxdHyE27dv2z3knpFlWV8mW9OgARA0zRziuFxQVT3EURQFqqKioBSwubUJj9eDK1eu2DJuYyrVJ8WpVA8fPoTH6zVNpZqbm8PVK1cQmZy0ZYxERESjij1uqB/smqpBg6XdsAVAx0GO36/i6MgczFg9N/vcdI7BzQgRBAEejxuq5oKmqlA1DaqqlqpLFEVBPpfD1sst5PN5/PznP8fVq1dxfHyMjz/+2O7hd5em6Z8Ffc0lQRDMIY6mQRP1EMdlhDiqHuK83NrCzMwMwmF7q8iMqVSA3oTa5XJBEATMz/MvfURERP3GHjdEjQ3iqk2DpjJcaWXf6gqckzyXz5dHJuMzTbWqDnq2toIMbjrE4GaEnD59Wl+VSNOgFT9UTTOHOFVBjlGN8/d///cQRRHnz5/H+++/b/dLObGtrZcQ9MSmtHy2VYgjGteqKsTZ3Ny0PbipxF42RERE9mJoQ1RfwKZlncms8cpRjadSNZtaZXW+6vvsc9O5zhZUp4FlNK+VJAmSS19i2lXskeLxePQVjMbGMDY2Bp/PB7/fj8D4OILBIMbGxrC5uYnvvvvO7pdxItFoFAWlAEVRoSpqKbDSipU2APQQp7gyk1i8Zq7iKk5ulwuZTAb7+/v2vhAiIiJylN1Tu3YPgYiGlM8XP9HxnVbU1L+vmoKeYFBAOm1+vurpVOxz0zlW3IyQdDptqjARNEAT9KBCDy0ATSpX41RW4miqBlXVK3E2Nzfhdrtx8eJFW19PJ9ZWV7GxsQFRFEuhjCAI+vLZxY9SaAOYKnH0a6ZBgwRR0/R9iYiIiIrY44aI+q3VvjS1j7XfA8fq3AafLw9ZPgVALT1uruBRsLvLiptOMbgZIel0GpqmVQQSQDGSqJgepN/XNA0QRfOUqoreOC9fvhyo4ObNmzd4/vw59vb29GqjiiWzSx/FChsjyEFlmAOUQx39jq2vh3qPTf+IiIiIyMlO2pem+lzVFTLVwU5r9wuWjxvnY4PizjC4GSGbm5umSpJSIFG8XwolYO7zAk2DCJQrcYof+6kUTodCNryS1ty9cwdnz53D//Nf/gu8Y2PwuN1wGctmu1ylAEeSpNIUMj3AESGIQqkap/oD0K9PMBi0+RUSERGRU7A5MRENGqsgp1Gw0+i+z1cwHa9/mM/v9ytdaVAcDodH7o+sIxHchMMRu4dgu4cPHyKfz5dCCVMYAQEQtIogR6/GMU0RAkxBjgYgLcuODm6MFZf+57/+a0Sj0VJ/HpckwV1cOtsIcVySEeSUAxypYjpVZTWOIAhYXFy0+dUREZEdFFUDZ+iTFYY2RGS3dhsI1x5f21C4OnhpdN/nyzd9DjYo7sxIBDejLJFIYGVlBalUqmZKUHUYYfrQUJoOZBnkaBioHi/Ly8tYXl7GZ599hmg0img0ir3kHnZ2XsPt8cDj8cDl0hsPS5XVOKIEUTJPqRIEAWfOnLH7JRERkUOFw5GR+0sg6XZP7WIB83YPg4io5CRBzkmfz2hIfO5cFgAwPZ039b1R1f6Na9AxuBlCr1+/xqtXrxCPx5FIJCqqScwVJdVhRL2pQZVBjqk/zgAFN5WMEMdw984duD0ePHz4EF6PBx6PFy63RYhTnFL1oyFYDp2IiKhaIBBAOi1z2d4TcHJz4mAwgO3tmN3DIKI+spre1GiJ707uVwcze3vmhsSVDYwBYGvrdA9e6fBjcDOEZmdnkc1mcXBwgLNnz+LJ48elJb+t+rvUNOm1aNRbu+KSgIWFBbtfalcYU6r+4A/+AHfv3IEoSfj+++8hSRLcFddtbnYWV65cxcSEQ38jIyIiItuwxw3ZKRAIQJZlu4dBPRQMBrC3l4fb3b8Ju9YrQzUOZszH1zY8BoCtrSAWF9P1DhtZjf54wuBmSFVWlfz4xz8u9Xhxu914+uQJJJerYZAjVVbjVC+bLYpYWlqy+RX2hhHifPrppwCAaDQKl8s1NCEVERER9QZDGyIaBJVBS7NgprXzmYOZly/NK01Z9cVJJscZ3FRpVu3K4GZENA5ynkJySfqqS3WmB1VOrwpPTIxMc97KKVVEREREjbDHDRHZ6aQVMs3Pb11BUz2GeitTGcc8ezaBGzc4dbMdQxXcXLhwoXR7ZeWFjSNxvoZBztOnpZWXXJILLlc5xLl8+TIuXLxo8+iJiIiInMfJPW6IaPh0UiHT+Hy1wUzlfYPVylKNzlnZB8fvV1AotDaeVGoPoZA9P1TtfG4rQxXcAOXwxvicTCbsHM7AaBTkuN1uLCwsQBAEzMzM2DxSIiIiIudhjxsiGjT1ghnzPrVTnZqdszqoMU/PUvH0KRsUt2vogptq4XDE7iEMpOqVl4iIiIioPoY2ROR0nQQ1rZxzd9eNSMR8fKPn9PuVgW1QHImEsbLS/+ftfIIbERERERERETlSK0ENgLb63hhBTfm+UvO4VVDTj2XBFbW1sGkQMbghIiIiIuqC3VO7dg+BiIaUzxfvyXlbmfpk7ntTu38rQU2l6ek8traCbY50tDG4ISIiIiI6Ifa4IRpsgUAAsizbPYwTa3UqVP3Ha4OaZvs3Mz2dr2minEyONT2OyhjcEBERERGdEEMbIuq1boQoVqrDnnaCHatxNZuipT/uRTLp7Wi8o4jBDRERERERURPDUI1Bo6fdsKfTnjWNHq9/DgY3repbcMPVnYiIiIhomLHHzfAKBAJ2D4Goa9qZCtUKv19FMumr+xxWz+P3q3j0iJWKrWLFDRERERFRF3C6FBE5XbPpVJ1MhbKq0mk+DlbctIPBTR3JZLLtY7766itEo9EejGbw8boQERHRMGO1DRHZoZXlvrvNKsg5OnIjn8/X3ae6QbFepcMGxa1y2T2AYfLJJ5/g8ePH+Nu//VtMTU1hamoKhUIBZ86cwfLyst3Ds9Xy8jIePXqEra0tTE5OIp/L4bPbt+0eFhEREVFXsNqGiPrNqrLFCEzqVb34/UrNCk/1KmyMcxgVNo0qaURRwtGRC6dOmc/buPrGhUTCi0gk22Cf5kRRD4gkcXjrUhjcdNm7776LdDqNnZ0dbEY3UVAKWF932FcjAAAgAElEQVRbx68Lv8bk5CSmpqaQz+extLQ0cmHOjRs3kE6nsbW1hUKhgL/7u79DOBzG1NQUstksPvvsM7uHSERERNSRYDCAB8mHWMC83UOhIZFK7SEUmrB7GDTgmoUura5EVd0HxyrsqWRVYWNVHRSNBloOblKpPQCA2+2C16ufe5jDmkoMbnrg008/xa/+63+FqmpQNRWKokBVVeRyOWxtbqKgKNjY2EAhn8fM7CzC4fDIhDnvvPMODg4OoKr6dcnlctjc3EShUMDPf/5zQAMuXb6EXC7HSiUiIiIaKNNHrLohouFjNTXKytGR23J79XmM46en84hGA7h1K265fyq1h+jGeul2pVEJbAwMbnpkZnYWe3t7UFUVmqbpn1W1Jsw5OjrC5uYmlEIB0Y0N/Gs+j5mZGUTCEeQL+aGrQgmHw5ibnUWyeG1KH4oKRVWgKEqpUmljYwNf/eY3uHjxInK5PD7+5GO7h09ERERk6Un4KcLbYbuHQeRYgUAAsixzhS4H6mRqVPUxk5NZxONeAJrpHNWqzxvdrP/1YIQ2oyAYDGB7O1b3cQY3PXLu3DkcHBxA07TaD1WFWhnmFG8bYc7x8TE2tzZL04muXbuG9957z+6X1DXnzp/HwePHUCuuSTnY0j8UI8xRCohubkJRFPziF7/A1atXcfPmTbtfQs/cvXMHtz//3O5hEBERUZuuJ69hG/V/6abhpKqtTTPppkgkjJWVvj9tx2RZBgDkclmk07LNo6nP6eNT1XHk83koimJqAlx734V8Po98Xv/a9HgUxONeTEzki/eBdNrd9WP093EK8vnylKmxsRxSKaUU1ExM1J5X0051pc9NPxlf092UTsvI5epfAwY3PSIIAlwuFzRNAzQNGmAd4rQQ5kQ3ovB6vbh69ardL6srBEGA5HJB0gAN1tfBCHMqPxRFQTQaxdraGj777DNMTU3Z/VK6LjI5iZ//3c8RjoQxOTmJmZkZThezSaPE2y6yLEOWZUeOrRmnjNnp188J42v0y0gsFkMul4XH48zlO/sxvlDoNM6fa/xzORaL4dmz55bbnXz9ZFlGNpvtyS+k3eC08VWPI5vN4vXxa8eMr5px7Ti+zsViMdy//03N9s9vf9LXcaTTsuU46o3PbkaFTTyeANCbN73d4Pzx6e01stljHB0dlrbn8x7T/WxWQDabhSgWivddyGa1rhyTTObg8+n7iKKCVEqEKB7pO2hZpNOTHZzXd+Jr00/pdG9+V2sU2gAMbnpKFERogla6r2la+XNFaIHKyhNTiKFPq1JVFVubm5gt9sMZBpIowrgy1dejNtTSr0NpqpmqYn19bSiDm3feeQdutxvff/89Njc3sba6ii+//BKXL19GNpvFJ5/09xeDYfDg2/uYndMbRc7NLdg8mpPxej2IxwfnrxGG3V0ukTtIFhbqN1bN5bKIRCYRDDqzzL0f4xNbmFM/Pz+PnZ3XNdudfv22t2OYnIxgcnLS7qFYcuL4Kqd8yLKMye1JXL58ycYR1WcEwxxf5+7f/wYffPC+3cNAMBiwHIdTxtfIwsK8o6dKOXl8R0cJZLOnkM2eQjBYfhs/NuZDMFh+zzk15QbgQzCoV7VIkojDQ3fNMZIklCphWjkmEvFgfDxQOkaSROzuuhEMegAAh65DuN0eSNKE6byZjB8zM/rvr8Eg8OaNefy5nIh//3YSf/I/bHfrUvVUMBjoyc+pZn+8Y3DTI7IsAwIgQChtEwRBn/InaObQoupzdZhjBDrRaHQoghv92pSvjH5dNGjGlooKJf06FEMdVYOm6RU5h5kj7O3tYWJi+DrtX7x4Eel0GvF4HKqiQFFUbG1tIZ/P4xdffIFwJIJIJIKjw0NOq2rR61ex0ufZufmWApxGb17tov+1OefIsTUyPT3tmDHHYjHHjMWK08fn8XgRDAYc+0ttP8bXSnADwHIMTr9+xrg4PiKi4Va9AlTt49b9aZrx+fIAysdVNzWu3Gbqp3Pgafu5es1pq7oxuOmRl1tbgKAHEaX/F4w7VaEFUAorTLerAgy3q3GX7kFhhFHm61IRcQkChMqAqxjcQNSgQSod//Lly6EMbgDg7bffLq2+pZV6/ujNm3PZbGklrl988QUuXb6MqakpLC0t2T1sRzo4yAAAxsf9APTw5vWrGMbHAxgPBAa+CoeIiJxhx8fqQiLqnUAgYOox045mIYzfr5iW7rbex9ywuJXmw63to2BjwzqQD4UmalaTGlUMbnpgs7jktyAIpWDGqLYpBTUwMpzi/ergAqgJcw4yB/0Yfk9tbm7i5cuXenQl6NdDD2kqQi5BMAdcRuWSZq5UkqT2U+BBIQgC3G53VfPm8tQ5RVFKQc7W1hbW19exv7+P69ev2z10xznIHJY+j/tPAdBDnIMDGQcHcqkKBxj8qVRERGSfmaNpNic+Iaf2FiFysuoKltrHO2ugXVsZYx3uVK8sdXAw1nCf6el8zXn8ftWyQbETQ5twOGLL8zK46bK9vT2srq5CLIY2pfCm8j5QDGcEQNBMAU7TMGeApVIprK2tQRAE0/Wpf2304wSLqpzKUGwYCYJQCqYaNbIuL6euYGtzE/Nzc4g4aO5/r3T6A7M6xPF4PPB43DVTqQLjwa6NlYiIRseubxeX4dweLU7GKXBE/dPKct+tnafxlKtW9zk48CCe8AzUylL9xuCmi3744QesvFiBIAoQRVEPJyo+C1VhTk1YYQouUDPVKuDQZoatSCQS+N3vfgdRECGKxetSvCZ6iCNCECuviaC/fCOgqahWMq5NMDjcb65FUdSrjIqvu9TzR5JKTZuNnj/GUuoPHz7EH//kJzaPfDAcZA6BzKFpm94Q7JGje4wQEZFzTR9N2z0EIhpxrUx7qj2mW9OeVOzsmPdpZYrVzEwemQMvAFbd1cPg5oRev36NJ48f49Wr13C5XBAlEZIkQZIkPbwRRUhGSCGKEIsBhVgR5FRX55iqUIDS7UH7S8TOzg4ePHgASZKQiMf1JcAlSb8eFden9GFcmxaDLqOh8zCS02n9hmUTZ+h9f0QN0MSaFclSqRRCoZBNIyciIhpNT8JPEd4e/EUkiGg4NZpOZaWVffUQprZpf7MpVlbTuw4c2KDYSRjcnNDs7CxmZ2cBANFoFC9fvoTb7UYikcDrV6/hcuthhUuSIEoSJFGCKJUDHaEUWjSuzgmFQjhz5ozNr7Y9MzMz+NM//VPcvXsXS8vLePPmDZLJZKl/i35dKsKuykCnsjKnohrHCLmWlpcH7nq0Y+vlSwCVVUZV08Wq+/5oGkToVTmyLDO4ISIi6rPryWvscUNEjlQ9XamVMKXVfaxWjWo+ntoqnOhmEODP0LoY3HTR8vIylpeXa7Z/efcuJJcLbrcbuzs7eBOPw+1yQ5TEcnBhVYVSDHEi4chAN529fft2zbYv796Fy+0uhTmiIMBVDHNKHxUhV+VHOBwe6hWUotEoCoVCbRWW1ijIKTe0HubeP0RERE7GHjdkp0AgAFmWB65Kn4ZPs6lR9UIhqo/BTR98ZhFcRKNRbG5uwuVyIZFIIJlMAgBcLhckUYRUDHSuXr2Ky5cv93vIPVd9TSqvRzweL4U5ksulX5NikHPl6hVcujS8vxCtra1hY329ptLI8sO0GldFkMPgpiSZTNg9BCIiGiHscUNEw6Q2cGner8Z61ajaqVE1fW6mO1vqfFQwuLFJveqcaDRaCizm50enQarV9TDCnHPnzkEUxaG+Hm/evMHz58+xt7dXnEZXrDaq6InUtPdPMcjhX1nIaRigEdEo2PHt2j0EIqKWWFfB1IYyVqymRmUyIpr97djq3JmMiEBgePuWdhODG4exCnNGVb1wa5hsbm7i23//dySTe5BcElzFCiOX5ILkKvf9kSqmilX3RaoMb5aWloZ+tS0iIiInmjmaZo8bogGXTg/+VLNWQpl2NOtp08rz16vCodYxuCGy0dLSUqlfT2Vz60ePHsHtdsPtcsPlkvQpY0aD62IvJFNz62KQs7i4aPMrIiIiIiIaPIMe2JxUp31njKBmfNy8vdkqVsZxgUCho/GOmr4EN+Ewl0bst2g0OvTVKsOmssLoww8/RDQaRXRjA2NjY3j48BG8Y159Ja5iiFO5vPrk1BQuXLhg8ysgIiIabWxOTET91mk1jVXfmVafq/o8u7tuTEy4cXR0WNrW6nHUGlbcDKnUXgq//vWvIYkSIpMRhMNh5PP5kZh+NCxMQc5HHwEA7t65A4/Xi92dHX1JdZcLN2/exPQ0myESETldIBAYijJ8IiLqP58v3vGxnYYk9UKhVgKf6uNaaVBM9TG4GVI3bt7AjZs38H/+5/+MTCYDOS1DUQqIbmwgXyhAFEVcvXoF+XwBSqGA5bNnGegMgNuff273EIiIiKgOripFRIPKqioGsG5G3Ow4q542Vs+nn1/C+Hj7vXeGTSAQgCzLdR9ncDPk/ug//Ad8/fXX0FQVqqZBVVWoigJFVbGxHoWiKlAUBesbGyjkC5iamsTM7CzyuTwWlxYZ5hAREREREY2gVpoRt34uFbu7bpw7lzWdn1rD4MbCMC1dGw6HMTs7i729PWiaBk3VoGpq6bOqqnqoo6pQVBW5fB4bGxtQFQXrG+tQFAXXr1/H3NzcUC/HTURERHRS7HFDRE7QSv+aTqdBWR1nPJ8omvexGlP1uXZ33Rgfz4IaY3AzAiYnJ5HJZPTgpt5HsSLHVJlT/IhGo1hbW8OVK1dw7do1u18OERERjaBgMIDtbWcvt82pUkTUa73sC9PNpsKt9LTx+xUcHrLPTSsY3IyAUCiE7e1tQNOgAdA0DdAADQ2CnKpAR1VVbEY3MTc3h0gkYvdLIiIiInKUHd+u3UMgoiHX7spRlcf1clWn8tLejfcBzBU9fr+KjQ1nBjf7qZTdQzDpzoQ1cjxRFCFKkr58tCRBcklwFZeWdrtccLvdcLvd8Lg98HjKH16vF16vF2NjYxjzjSEajdr9UoiIiIgcZ4bVNkQ0BFqZ4tTqNCir/ap1s4/OMOMVGgGyLEMQhNKHKIrmj2KY4yoFOq5ioOOGy+2Gx+0uBTmZTAYph6WPRERERE6w6+Cqm2YrlhDR4OpmA+Fu7KPv11qYM4jC4XDfn5PBzQh4+fJlcXqUPkWqpCLMEQQBQk2gI5YrdIrVOS6XC6LALxsiIiKiauxxM9wYfpGdgsEACoV8zfZurszUavVL9X5+v4qjo9b73pi3qdjZ6c6UrWHGd+BDbmtrC4qilFaNqlxJqrKXDbSKREeAdaAjiJBEERDsez1ERERETuXkihsiuwUCAaTTDL76oZVVnVqtfmmnSuboqNxCt/Xzc0nwVjC4GWKpVApra2soFAoo5PP650IBiqKUPtRiqFP5oalVgY6R6QgABKY2RERERFZYcUNEw6ZeFU4n/WusA6XhmD7Va1xVakglEwn87v59iMWKGaF6WlT1BwRTpQ0A82etWGgjCAgGg/a9MCIiIiKH2vXt4jIu2T0MGhKp1B5CoQm7h0EjpvUqnNowp53pUpW9cvx+BQcMbxpicDNE3rx5A1VV8fTpUyQSCYiCAFGSyj1rTNOezIGOKAgQhOJ9USgW1wjlPjjFYGdpacnul0lERETkSKy4IaJBUh2inLTxcCrlqtmWyUgdL2NOZQxuhsjU1BQA4Pj4GF6vF263G6IoIh6PI5FIAAAkUV85ShT1fjWmhsSCCEHUV50yhTmiHt6cO3cOi4uLdr5EIuojOzrmExERUWPhcMTuIZBNfL44gLmOju00RGmnV0314sN+v4LdXXMVzvR0Hru7bpw7lzU9x/ffn8ZP/6StoY0UBjdDaHl5GcvLy5aPRaNRbG1tweN24/XODjxuDxKJODSgtHKUIAiQjEqdYmXOpUuXcPbs2b6+DiIiIqJBscPGxETkEFaBSTvHVk9lqt3HOszRt2m1BzQxPt7aalajjMHNiGkp1PG4IUku7Ozs4NatW5idne3zKJ3jN7/5DRYXF+teMyIiIiIAmDmaxjZidg+DbKCoqr7yKtEAaqUKp16YU7nN5ysA8FQd11ozYjYobo7BDZU0CnVG1YULF/D//epXKBRX4ZqanMTM7CwKhQIDHSIiIjJhc2IicjKrvjSdslpFyufLI5Px1DQetmpGbLWN6mNwQ9TAzMwM/uxnP8OXX34JVVWRy+exsbEBRVFKS62riorJqUnMzs6ikM9jcWnJ8YHOl19+iaUBGCcREdEgYXNiInKqest61+5n3QuHTYbtxeCGqInJyUl8/vnn+N3vfgdN1aBqKlTV/JGvDHTW16FpGq5du4bZ2VksLCzY/RJqfPbZZ/jVr36FX//61wiHw5iZmRmY0ImIiMipWHFDRP12kmlGrfbCsQpsrAIen6+ATMZXVUlTu5/VtpmZfEevYZgEAgHIsoxAIFDzGIMbohaEw2GMecegaSo0TYOqadA0rRTkaJpWE+ZsbGxgbXUNV65ewbVr1+x+CTV++tOf4ssvv8TOzg6i0WgpdFJVFZORCKamppEv5DklzEHSaesf5ERE5AysuCGiQWcV5rSyze12w+PJIJM53dH5qDEGN0QtmpyaRCqVgqZpgKZB0wANxQCnGOJomloR6ui3o9Eo5ubmEIk4b+nGd955B5mDjF5FpKhQVQWKqiKby+lhjqpgvRjmXLt2DT/60Y/sHjIREZFjseKGaHAFgwFsbw9Hg/FBaPZr1aCY6utLcBMOO+8NK1G7QqEQDuQDaNCAYmgDTYMG1A9zih/Rjagjg5twOIyZ2Rns7e3VVA9pqgqlooIourGBtdVVXLl61ZEVRERERHZjxQ0ROVXjJbw7U32sz1dAKtXaKlL68SLGx9tfPnwUseKGqEWCIEAUBWgQyhuLwY1+U6v9XHw8c5hBKpVCKBTq76BbcP78eTx5/KQ2cFLL1UOqWg50nFxBREREZJcd367dQyDitGpqS6PeNa1sa/15Gq0ipQGV76/IEoMbohal02lAEMw/Voz7GgChHOKUKnKAUngjCs78gSQIAlwuqaJyyLpqyFxBtMHghoiIqMLM0TS2MRzTLGgwMbChXmt1We/qbfXPJ2F83JlTpFKpPbuHYMLghqhF6f19oCJ8EYDyff1OOdQRKu4Vg5u0LCN42tysyylEUawInaqqiCqCnHIF0aE9A21TOBzBRx99hEQiCQBIJhNIJpM2j4qIiIiIhpksy10/ZzotQ1VVKIqCfN68AtNJt6VSiiloGRvLWW7L5/PI59WKY12mbapSHl/lfmNjIlIpFR5P+bknJhTE416Ew3l4vd52L4etZFnuyX/jXC5b9zEGN0Qt2NzchKIo5Qqbis9AMaSpKKgxhzr6voJDK25kWTZXEtWtIireNoKo/X3HBlGVwuFIRZ+tCwD0AMcIc1ZWXpj279UP4m7I5bLIZnMtjy+dPtnrOD4+PtHxlZzS7E+WZceMxYrTxxePx+H1ek78tdUrnYyv3e/3UOg0zp9rvNJeLBbDs2fPLZ8rm8069meM08eXy2URjyfsHkZduVwW32d+DzyzeyT1xeNxy6/NVvX6ayMej+M3v/nKsW/i4vF48eeMeXw33r2GUKi/vxPdv/9NzTbjv08s5sx/R5w+PuPnXze+zntR/ZTLZZE5mEM+n8PRkfmPqPm8x3JbMpmDz1cobXO5BMtt2WwWoljels22vi2VUiGKR8XnzEMUD5BKiaVtACCKOSSTXgQChxXHupDNasjnBy+4CYcjePLkadfP2+j3FwY3RE2sr68jurGhBy+CAMH4KIY1ginMKW4r3gfKoc7CwoKNr6K+9H661JfHGLGeNOm3awOdYoDj0CCqFZVhzoULepjz4sULzMzM4re//a1j3zgbvyy2Or6T/tLQrV86nPomn9rn9XqRzebg8TjzF6xOxhcIBBAMtv61Lopi033m5+exs/O6Zvv2dgyTkxFMTk62/Hz95PTxGT9LFhbmbR6JtXRaRsQXwcKsM8cH6P+OnOT69XoqzrNnz7GwMO/YKT/1xuf19n9Z4w8+eL9mm/H7gVO/R5w+PuOPJ5cvO3NlOFmWEY0GMTbmQzBobuhrtS0S8WB8PGCqmjl1yovxcU9H26am3AB8CAbzVduAYNADQA9uTodOYXfXXdoGAJIk4vDQjWCwHD8Eg8CbN6dw6tRgVPJXCgQCPfk6edYg+GdwQ1RHIpHAix9+QHJvT29MLIgQRKF4uyLAqQ50LEKdxaUlu1+Opc3NTewV529WBlDQzFVE5kCnqs/PkDACnFu3biGZTODevXs2j6jW9rb+i2K/fuHp1i/OwWDAMb+kxWIxx4zFitPHJ8uyo99U9WN8rQQ3gPX3j7HNqdfP6eMD9P/GTh7forzo6PF5vV5Hj4+IGjt1Km65vZ2+Mq0wmhE3O5/fr2B3t3lwWW9FK33cEgIBrizVDIMbC8YUChpNsVgMOzs7+O7pU0guV3E1KRGiKEIqfhaKn0VBgCCKpX2E6gBHEDAxMYHFxUW7X1aNVCqFtbW1BoFTbUVRZaATDAbtfglERERERHQC/Q1puhcujRoGN0RV5ufnMT8/j/feew8AEI1GsbW1BbfbDUmSsLuzg0QyWQxuREhSMcSRpFLAY1TnXLx4sVTJ4SQvfvgBKyurEMRyJVG5iqhcWSTA2IZyVREELC45L4giasbpf6knosG369vFZThzmgUREQBHhTTT03ns7noQCOSaPteoY3BD1MTy8jKWl60bUUajUQDAq1evIEkSdnZ24JIkzM3PY3Z2FjMzM/0calO/+tWvIEkS3rx5A0mUIBqhU7GaqLqSqLKiyJgidvbcOUdWEBEREdlt+mja7iEQ0ZAKBALI5w9OdI56QUom09o0YKuQpp3nbiU0ImsMbohOwAh06gU7TvPTn/4UQLmKyONxY+f1LiSXhEQ8DlGSIEmSKdTRp4dJpQqis2fP2vsiiIiIHCi6HMXRs+6txkdE1A9GdUzz/awDl3rVNdUhjVUVj9+vYn29/NzxuB+Tk5l2hj8yGNwQjaB6VURGBVEsFoMkubC7uwOXy4X5uTnMzs1hepp/SSQiIrJyLXkN91G7RLMTPA4/AQBsLG/AG3bmqnAAEDsbQyKQaHta67vJ6z0aEdHgOkmFy0mnQOnHt1bFY+zLSpzGGNwQUcmgVRARERE5ya5v1+4h1Pji7S/wOKIHN/KMjG+CzgyXAH18gWB7oc2T8BP8zb2/YXgzIGRZtnsIQ6HToKPV3jXtnbM2ILKq4qkXBlFrGNwQEREREXWBU3vcvJu4jr9c+Uvcv/8NPvjgfbuHU9ezZ8+xsDDfVsXNF29/gSfhxwxuBkAwGGBw0wV+v9Ll8520usY6DGr1nH6/goMD9r5phsEN2eLBgwf4+uuvMTszg3yhgIX5eSiqCmgalos9VFj1QURERIPEiRU3RETd0vrS4a2HMH6/inicsYQhnbZeBZVXiGzx3nvv4b333sO//uu/Yuf1a6yvb0DVVGiahpXVVaiqClVRAEHA1OQkVE3D3OwcVE2FqqoNV3oiIiIisoNTK26IiLrFqndN69U11sEPp1DpGlUbMrghW/3xH/8xfvvVbxGPv4GqadCMD1Ut3c/mctA0Desb63qgo6pYW1uDoii4efMm5ubmMD8/b/dLISIiohHHihsiskO9PjMnmcJk7NtK75rWx1k7pvHx7k79GhZPn4ZN9xnckO2uXL2Cb+4fQAPKwU3xA1X3NU0rBzyqhvX1daytreHqlSt459o1u18KERERjTBW3PTf9eS7+OLCF/jLFbtHQuR87U5han3fcqCTz+fhdrvbWtWq1SXJB1F1APPkSaTuY0+fRkz3r11LlG4zuCHbTUxMYHpmBqm9PWiAHtYA5eDG4nZ1sBONRjE7N4dIJNLwuYiIiIiIBsF+KmX3EGiEWVXHNFsZyu12V+zb3vEHB86dLnXnjvn+P/1TGInEBQDthS/6/WTp9l/8xQvTYxMT/zcAYGGhdjYJgxtyBEmS4DK+0YsBjX5TM2+rDHJgDnSi0SiDGyIiIrLF0/BTu4dAPRYIBOo2DiXqB58vbvcQTsxqWtbMTB47O91dprzao0cT5vuPQ6Xbj2seM9+/fdt8rusVi9hVhy/Xrt3reIzb2/UfY3BDjhAKhXBwcGDeWBHgQANK90y3jUAHyGQy2N/fx+nTp/szaCIioiHDpXo7dy15Dffxjd3DoBERDoeRTCab70hUpZ2mwe0ePzaGmm3dVB2+AK0HMDfe3as59t0be6XPN94tV7j9FdZx48Yebty8hVCo9jlfvEhiZeVFzfZeYnBDjiAIAkSxOK/RSGuEiuCmkmaxvbhNEIReDZGIiGioBYMBBjcnxObERDQs2glejGlRlcGNwSrkefHCh+npfGnbq1dj2Nlx45//3+mm1S/VAYwRvgDAX/3Vuumx/3Tj25bG365IJIyVPvfV6ktwE4mEm+9EJ/btt9/i3tf3oKgK5ubmoCgKFhYW9Ia+qv7NUrmEtpOW096urAsTyjcsYxiharsGQLCMeGhI8WcKERE5EZsTE5FTdBK8tCMW85RuZzIStrc92NoKw+c7VXosk5GwuupDLOY1HXv6dAHRaHk1qTNn8hgfVxCNBvsWvgwaVtwMkVu3buHWrVt48uQJnjx5Aq24bLbRB0bVNKy8WIGm6Uttq6oKQRCgKAoURcH8/DwKhUIp7Pn000/7Mu6XWy9LwRJg5DYCqlMbofKWUP2AviEYDPZolERERESNseKGaHAFAqNXdVgZsGQyImIxDdvb3tJjRvBS3r8cwMzPZ03ncrk0hMNuFAp5fPCB/tjurr661AcfyJifzxWfS8TurhvnzpWPlyQRa2te/E//4xqWl0frv0GrGNwMoevXr0NOpxGPJ6ChdjntestsZ4+PoWr6EtuaqmJ1dRU3btzAzZs3ezrevdQeCoVCMX8xYptyOFO5ve59i6CHiIiIqJ9YcUNEdtjfdyGTEVEo6G+IjPBld9dtCrOR2CEAACAASURBVF4A1FS/GAFMJiMhGlVKAcv8fA5utwq/X4XfrxS3JSyDFwB4+vQUlpZ24POdKq0u5XLpsyIqp0XVqwRqZ/nxUcTgZkhduXoV39y/b7G8drGxb4Nlto19tGKI4/V6ceXKlZ6M89tvv0Vqb684/UkPX4w+NTWfjcf1jVWPAYtLSz0ZIxEREVErWHEzmlRFhWT0aiTqUPWy0k+eRGoek+WrSKVOY3/f/DZ+fj5bCl70+7nSYx98YK5gcbnSAMxhSr0wZn3di+npfFtNi30+8zarKVhWDY7Hx5Wa/aiMwc2QmpiYwPTMDFJ7KYsVmGqX27b8XAxwNqNRuN1uvP32210bXzwex/Pnz5FIJCAIgvVHRZAjGH1tirf1m+V9zp07h8XFxa6Nj4iIiKhdrLghGm2thC/m/cuPX7uWMD127Vp51TBjyelvv00gFpvAhQtHptCjURVMZYgDoE6Q0v0VoNrFipvGGNwMsfDEhHmJ7erVmEzLbdeGOZXbujXf8+XLl4jFtiGKEnxjY/CN+aCoCgRBgJxOI5fPQxRFiBWrTAnF+4IgWgY8Fy9dxNmzZ7syPiIiIqJOOb3ixujhEQgE7B4KkaO1E8A0Cl/0bcnS5+vXq8OZe22NK5GIIpP5cVvHVFe2tMNqmfBGU50ODtw12+rtaxU0Mbypj8HNEBNEEZJkkZzqZTdVIU7Vtqr7h5lD7O/v4/Tp0yca05kzZ3DmzJmW9t3c3ASgV9YYVT+iJOkhjihibm4Os7OzJxoPERERUbew4obIOToLX34GoLXql/Jj7YUv/WT0pqne1s4KUplMa9MA/X4Fb964APO7TMtpUcY2ah2DmyEmVFStACh/DwkajE6+dRfRtgh3BKG/3X+XKnrWDOs0qK2tLdy7d6+0fDuK1U7LxQoiJy3ZTkRERETOFQwGsL0ds3sYXdVp5QvQWfhy//43+OCD9zsf8ABrJ2Cx2rddVpU48cQpTE5mOj7nMGNwM8TS6bR5g1Bzo/5CTMUltrlQU28tLi5icXERjx49wqOHD0vLtL948QIaAFVVoaoqFEWB2+1GJByGKIqYmZ2Fqqp9W7KdiIiImnP6VCkiOxgBSzrthiy7USiESwFMu31f9G16AFMdvgAvTOHMsMrn8813chir6VbUHgY3Q2x/f990v5Vls4XqexUbgsFg18ZGZjdu3IDX68Xvv/8eWsWqXpqmQVM1aJoKVdOQzeWgaRrW1tagqRrWVlfxbh+WbCciIqLB9TjyBH+5YvcoaNB1o/rF6LHUzb4voyQYdE5/Kqsw5ujIDcDcDHl6Ot/yylKjrlHV3NAEN9HohuV2j8eNwLgeOIzXacSWTCaQSCSRTOo/NB49egRN07C1uaW/gVZVUxPfZYtGuE6b0rK5uYlCoVAT1liFN5XLa5u2VWxvtS8Nde7y5ctIp9NIJpM1y7RXL9leua3XS7YTERFRa5zY4+Z68l08jjyxexjkEP2eelRJlmVsb8dw+fKl9gZNfdNOI2Irfr+CoyMX3K230KEWDU1wk8vlsbJSXS4HfPTRR3UDGwB48eJFzXFGP5WlpSU8fPgQDx8+NL1hfvHiRcV9QNVUaJoGQRCgqmqpSmJ+YV6/r+rVEmfOnIGmaT2f3rK2tob19fXystnGstpAKYhp5XblsVx9oD8uXryIBw8elJZiBxov1W6EN5vRKGZmZhAO15abEhEREdHwuHMHWFmJIFnMTYzwRZZlPH36Uc3v7e0uOV02GlOPBonPFz/xOdoNY6zP0W6D49ZXliJrQxPcdMIqtKl28+bN8hQW1HsTrdU+pmk4Pj42VUesra5Bg4bV1VXc6MH0lng8jufPnyORSJRDG0EoBzeCUApmTLeLn439TZ8h4NaPbp14NSlqTSgUgtuIqCvCm/q3yw2ko9EogxsiIiIbsccNtePRownz/ceh0u3HxcdOFzfdvWs+9tq1MIBwxf0kAoEAlpej+OlPvVX7curRqLJazrv9c5xsSlOj6hyuLNW6kQ1uWgltDFeuXIGcTiNRjLWNgKbyTXPptkWlRPmx8uf19XUsLCxgamrqxK/l5cuXAIDXr19jzOvFmYUzgADs7OzoAU3Fx5s3b0qrTVVuB2DeF8Dk1BQuX76MiYmJBs9O3eaS9GX0alb80qq2Va385XaxJpGIiMhOTpwqRb319Km+cITbpb+tsgpfDI8em+/feHfPdP/dG+X7f/VX6wiFQlg+qx/z+efm57137wWSSXM1DKcija56VTTtnePkVTQ+XwGZzBiCQXNYUy/8OemYR8nQBzfhcMRye6uhjeHipUt48O23VW+cK4ObqrfaVqFO1e1v//3f8dM//dO2xmHF6D/TaR+aaDQKwFxtM6zLbw8CURTQdLn20oPlr6eDzEFPx0VERESNseJmMJ2074sklqsGqsOXSv/pxrdtjSsUAm5w/QnqkV5U0fh8ecjyKQDNz9vqcy+fPYdQqLaQYH19vdSjtpIgwPQ9OSyGPrixYvUfuJlQKAS3x1PzZrmkuhrCapvFsalUCqFQCHZyWmPlkWfqMdRoP/3/uGQ7ERGRM7Dixj5Wy0q3GsC0uuT09nYMf/7nAXz8sXk5ZrdLgts9km+raED5/Uob+9afbtVq+FPvHEYlTqPFi0OhCcvgZnw8jtevX9ds93qHcxbCSP6ESSQ6a7LlkqT6FRBa6f+s96kT+Lzceml7cEPO8fLly/IUuzrqLdm+sLDQq2ERERFRC1hxc3JPnoRNSx43D19+BuB/xf+Gk6961MzERBJAEsB828eSTpZlu4cwctrpI9PO1CWr8CcQELC9bb1vO9OwqNZIBjedEoslV43fVluoCHWqjxel4Svjos5tRqOwXK4dqLNke3nfZoEPERER9RYrbnSdTz36Wdvhy+PwE3xx4Qv8H/f+5oSjpl7jKrX9104D4EZNhHsVuhgrSwWD+eY72yCV2rOs9rHDSAY3kUgYKysdHFi5ZHZbx5mPqjxeEDjRhXQPHzxALq//0GplifbKx5aWljrucURERN114cIFRCLWq/yl07KpmsBpejG+ev0G62lnAQmnGaaKm3bCF+3zO3gcfgLt9n8HANyI/S8Q7pS76ba65PSzZ88RCASwsMCKFiKnqzf9yefL12yvvwS5HixpmjZQ74vb/XetG0YyuOnkQrcyhcVg/SUnWD4YbDShj0ZCIpHAyosXSCSTtcuxWyzPXsptiqt/TYTDWFpasmHkRERUT73fNez4Za8dTh+f0zmx4ubp0zBwQf+8vb2MBw+umx8z7VvbeNd8P1n6fP16+TH19gv878kPgMMP9A1/AuBP2p+KxIoMov5o1nOm1cbB7S7nzZWlOjeSwQ0AvP32hbb+mrO5uVmzzVRD0yAgrNeTBOA/UKNsZ2cHr169wu7uLgRBQDqdLi3TriqKHsxULM8uCAIEYxl3CNCg4cqVK7h8+bLdL4WIiIjQu4qbk6x69M5f/194+nYEv/zlBcjyLK5dS5Z+/+xG3xcAQPJ6832IqGvqNQvuhWbVMtX0JcE9lqGQ1bmpNSMb3Fy4cAHJZALJZPNGxRsbG8jn8jXhTL3eI+XHagOdymOWlpZYcTPCZmZmMDMz03Q/Y7l2gyTpPzg5NYqIiMhZGlXcnHTJafP91pvuPg6/gHIhgf/4H+/h2bPnWFiY5x8OiQaYHnY4u0qlnUocPQCSMD4+WCFOLxptp9P1z9mX4KYfZbedLPH90Uc/bjiPOplMYuXFCz3cqdNjxPo+LJZ0Nu9z/vx5Tm+hlnC59v7b2dl15KoHuVwW2Wyub2Nzu7vXiM4J1zOdlpHLZR0xlnqy2c7G1+gf+m6Kx+Pwej19e7529WN8kiTi/Dn+XO4lWZaxvR2zfCwWi3UcOvTje/+//bcf45/+6Uel+5UBzPLyRs3+y8v6H2fC4Rgu+35X2v7xgjmcaahqt+hd8/3Yh4coCKuI3v0Su/v7kLa2kPR6Wzt3n+2pKtRkEoXJyZaPqXx9vVZvfGOXLuDc2f7+XNh78LDmj3sZlwv7m5uI7p6s8sv4XvHt7JzoPFb2CgWsPnnS9fN2i9PH91qSkI19hrwk1fxMEw4msft0Hz5fudHvYW4Mx0kfZHXPtO/hfgBHRy745KrtbyaRyexD9ZmbBVudGwASm3OYVF+V7uc0QMp5cbB3quY5hf0ANmMunJmtfc7j0DjGxz2Wr7leg+C9hw+x+o//WLN98S//AqHQactzdVO9f6dOIpfL1n1sZCtuDEYDwUQiWQp/kskknjx+gp3dHQgQkNrfB2DuNyJUNY41prNAEKCpaqn/SOVnAJianMLlK5cx2cY/SETUXz6fryc/jE9Kf1Pq7dvYuhXcpNP134T1Uy6XRTyegMfjzDcsQOM3rI3066/nXq8X2WzOsdewH+NjpcLg6kfD29u37yAUKldTLy//SxtHV/9Brzt/4AsEnsD19lsIv3cT++vrOBWZdGyD7KPtGLzLSwi38Xty5evrtXrjc7v6X/3gevsthMPmN7OutIzCuB/hc+dOdO7lHv6cS97/Bm998H7Pzn9STh9f/tlzrBbm4Xa7EZg2hyinRC/802HT9KMAgDdPTyHwlrmQQsyI2N11I3DOvH0q4AYw1dK5AWDs6BQCb/lL9w8PD6FmRBR8p2vO3eg502kXJifrhxZWJm7exFvj/prt/fp+vHz5UtfP2ej3wJEPbgC9IkivCroAALh372tcf/c6rqOz+brV6Xdlh2xW2RA5XzAY6MkP45Pa3tZ/kerXahvhsPWqOO1yyvWUZRkej9cRY6lHlmXHj8/J0yz6MT5R1Mu/JUnCgYOrt/pFPki3tb9SKPc4OLNo/TtRo1WFYrGYo1cc8nq9VZUy9n+vGN8PgUAAHo8XwWDAsd/DlWPt5TGdqvdcdgQ3gUAA+XztEsqyLDv2v+8gCAQCjr+Gp07Fkc/P2T0MANbNjP1+FTs7rX9P+P0Kjo4YSzTDK9QDnNpCREQ0nFRVxXE2D5dLxb3ffd3WsdvbMQQDAQQcWu0gp2Wki+FXN7hdLoiiAEWpbUgJ1A9uiIjIPvX607TbENkq0Km3gtTBgf6cibgfuPSmjdGODgY3RERERG1QVRW5XPtNFHO5POKJJLxjYz0Y1cnl8nkkEklMTU115XyCAEhae0vFElFZKrXXfCeiLqq3UlS7qz9ZrSBVef7qQIea47+mRERERERELXByg3uiVjWqfrHev36g0855Go+H0YQxVc8Krw4REREREVETTmrq3I9Ve2k41AtdennueoFO4+lSzl7i3G4MboiIiIiIiIhGXPcqaOoFOtbbZ2byrLhpgleHiIiIiIgG0rvJ63gSfmL3MIj6ot5qYr3WrUCHOsfghoiIiIiIiGiEdGMKVSdToqz3VxgMNcHghoiIiIj6jivmEBF1T6+nOXVDsxWkDtoYfyQSPulwBgqDGwvJZNLuIRARERERERE5Qrt9azrZTvUxuCEiIiIiIuqQomp2D4GooUGZhuS0BsX7qZTdQyhx1pUhIiIiopE2auXvRES9VG96UjcbDhvncbvdKBTyDc9fb7u+stRgBEwAEA73998qBjdERFUSCU6XJCKizsiybPcQaEQFAgF+/dGJtRu4NOpb085UKWqMV4yIiIiIqAsCgYDdQyAi6ple9qxp1rh41A11cNPv8iUiIiIiIiKiXvH54j09f6+bB1tV7mhsE9XUUAc3RERERERERKPMjilLzXrocGWp9jC4ISIiIiIiIhpCvQ5Deh3QOGllJzsxuCEiIiIiIiIaYHZX0Fgf015oNDOdb2t/K4o6nPOuXHYPgMhpotFo6/tubJju3/788y6PhoiIWhUIBJBOy2wQS0TkUMbKV/w57VydBjSZjAiPp/Xn2N1149y5bAcjHE1DE9yEwxFIYjlhPB2aQCTC5sTUnnv37uF39+4BggBBECAA+u26nwUIAkr7//DDC9z60S3cunXLttdARERERETUyEkCmlZXgDKeo3p/LgnevqEJbi5cuGD3EGgIfPTRR/joo4/wL//yL9jZ2SkFNAAgQEDxfxXbKm4XP6+urCCdTuMP//AP+zz69jWqLlpeXu7jSIiIiIiIaBAZAU11xY3fr2B3123PoAZUvaq0ngc3XJK7N6LRKH7zm99AFAQoilKu/hCFUoAgFLe9ib+BKIoQABwfZyGIFY8XPxYWFnDmzBl8+OGHNr4q5/jJT36Cr776CvF43BTOAOUAp/Z2eb/DTAZff/01fvzjH/dz2JZ++9vf4ut/+1r/by2W/5uLoghVVU1fB6VKouLH+++/j/fff9/ul0BERERERH3SbmVN++e3rvaJJ/w9eb5hMDQVN6NmeXkZy8vL+Od//me8evWqHNaUqkLK1SGBQKD0htw/Pm6xL3B0dISVFy+QTqfxk5/8xK6X5ShXrlzBN998U7pfG+A0vn+YyWBvbw8TExO9HmpDH3/8MT7++GM8evgQjx4/tpzuBQGmwM/4vLqygtXVVfzRH/0Rpqen7XoJREREdEI/+7M/B/7M7lH0xvXkdbuHQORYnUyJanYuq6lPu7tuWL3tqffcvQ6Hhg2DmwH3s5/9DN999x1+//3vy5UflWGC1ZSeBrcPDw/x1Vdf4ZNPPunH8B0tHA5jenq6uARdubIGMG6at5W2V1z/ra0t24Mbw42bN+HxevHs2TMAdaZ+1ZkWtra6yuCGiIhoAL2bvI537/0NAGB7OwYAWFiYt3NIdTl9fDQaRqnJfT8qa04qldrDnf/+r5aPnfJ5T3z+QcHgZgi88847kGUZyWQSQCuVIdbTe4z7h4eHWF1dxVtvvdXjkTtfOBxGJpMp3W8Y2Fg8JkndSbe75cqVK6WvlbpTviyCv4xDqoeIiIiIiHplVAKbZppV1lhpt7Km3nOQNQY3Q+LSpUv49ttvrUMbq2oRwZw8VG87ODjo1VAHSigUQiwWK92vF9DUI4rO65Z+8eJFPHjwAEDzEM9UPbTpnOohIiIiIqJR5PcriMed9R6jk/CFjYvbw+BmSExMTMBT0ca79HZbqE0XmlaNCAIymQz29/dx+vTpro91kMiyfKLwJRgMdnE03REKhTA5OYn9/f2WQjxjW+YwAyIiolZls3mIogipuCiCKOn/nkoO/KMGERGdXCYjwupHPCtrTo7BzRAJh8NIp9M12xuFODX7GPcqmtVSBa3mRsUti921Ro/aRxJFuCSXZdVQvWDPScLhiN1DsIUsy5z3T0QDRVVVqMbv6gUFAOB2SXC7+SsoEVG7gsEA3O5Xlo81akLcbi+betUwzZ6j/rhq05xuNk0eBfxXc4iIomiqDqlXa9PqG3InVov029bWlnmDpv9fTRyjVW3TgMXFMzhz5kwvh9cxQRQhigKcHtAQEREREVFv9KPPjBEa0ckwuBkisix3XiVTVUkSYGiDzc1NKIWC6dKU4hnT7XJoY1TYhE6fxuLSUj+H2xZZlq0rsKq+DirDqIWFhV4Pi4iIiEacLMt2D4GIGmjWbLid/s7GucbHnTlLIZXas3sIJQxuhsTLly8bT8vRat+IN3p8fHy8a2MbROvr61hfXzcFNJqmlUKaytuAXgoOTYOmAeFIGDffe8+2sTdT+lqprhICaiuKKl6/U6uHiIiIaDgEgwEGN0QO0Ok0pkxGrAluhnVKVDgcKa3q3A8MboaEpmlQFRU103gspvCYtmi1b9KXl5exuLjY4xE71w8//IDnz59D0zQIAFRN06+vqkJTVUQmJ6GpGlRNhaqqmJ6ehqZpmJ2dBYDSZ6fSVA2FQqF4x7qKyAgB9YAHWD67bMdQiYiIiEZaKrWHUIirelJvdHNlJ716xo18Pt/GMXqoMz5e6MoYhhmDmyEQjUYRjUYtp+yUttV7U47ym3MNGt566y0sL4/mm/RYLAZRFOE/5cd7770HrRjYLDl4ylO7NjY2sLG+oX8tWFQPGa+5NOUrFMLbb7+NSGQ0mwETEREROVEkEsbKit2joFHVbl+c+tOrjOBIAxtvNsbgZsCtrq5idWWl7htwAICmlapGKj9EUYSqqpiYmICmaXjnnXcwPT1t58ux1fz8cK/Ws7Kygh9++AGaWqwg0lS9okjVoKoKwpFIcfUPFYqi4MaNG5iZmbF72EREREREdAKdNCFu1Mum0XOwVWpvMLipkkwm7B5CSxKJBL777jsoigKX2w1ogKIoUDUVszMzUBQFmqZhYWGhFOBUlq2NalXNKHr06BEAvQ/PrVu3UCgUhrKaiIiIiIiIequT6VX1gqNh7X/TCwxuBlQkEsHt27ftHgYNgBs3btg9BCIiIiIicqBuBid+v4Kjo9qIoVnYo69G5cyVpZyCC6oTERERERE1EQhw1Styvkym9bf47Uyd6hW/X7F7CAOBwQ0RERERERHRgOtmCFJvGlPnS4XXP6adsGkUpNO1ATGnShERkaVwmKuJ9Uq9v9hms1lH/zU3l8ta/jLhFLlcFtlszrHX0OnjS6dl5HK9/xoMT4Sa7lM5hsqvOVmWsb0d68m4uiEej8Pr9Tj2+ySRiNs9hIZkWXb8f2Or8UmSiPPn+t8/snIcxvdMPB7Hs2fP+z6WVsViMeRyWXg8XruHYkmWZUf/W5zLZZFKuXF4mEE6nal5/PDQj4ODLBTFvLy2prkQj3sxNlZ7zPGxgHR63+JcPqiqirGxbMvHCIIP+ykNwWDtY8fHobrH7O5KmJ3tzrLk/RKLxXD//jddP68sy7h06VLNdgY3RERVevWD+KTi8XjxTUF/ftk5dcqPCxcunPg8T548dcT1NH4Rc8ovY4FAoGab09+wxON6A3+nXMNqxveHU6+h08eXy2URjyd6/obq6OgQZ5frN8dPp83fB1bfK07l9XqRzeYc+6bU6bxeD+Lx2jeJTldaybWPqsPBhQV9ddR4PF667US5XBaRyCSCQWd+X29vxzA5GcHk5KTdQ7GUTss4dSoPr3cMPl/t153XOwavV4DPZ54CpaoivF6v5TGhkARVHa+ZNhUKiYjHT8Hnq62Ucbs98PlOWZxLRCrlszym0fMoyhgAvVooHvdjcrI2YHKa+fl5fPDB+10/b73fERjcEBFV6dUP4pN69uw5Fhbm+/YmZn6+O7/4OeV6GqHI5cu1f8VwClmWHT0+AH39GmzX9rY+Lqe+aXH6+GRZhsfj7fnXoNvVuMQ+GAzUHUMsFnPs9QP0a+jk7xGDU6+hXu2Qc+z4AOuvQVHs/zSPYDBgeZ2MwMGpX4MejxfBYMCx4zPG5dTxAYDHcwBJkuB211aoGNvdbnM44naLXT0mGARyOW9NCON2ixDFQkfPYwQ3ZI2TyYiIiIiIiDqkqvY3eKXR4fcPXlWaoV7PnIMDxhLN9PwKsUcCERERkf4XcqdOMyMiIjopv1/F0ZF1r5pGK1jpDY8Z3jTCq0NEREREREREJY1Wj+pkZSm/X2E4cwK8ckRERERERNRzgUDAsauuDbtuhjD6+ayjBJ8v33ZA4/crODhofwyjhMENERERERER0ZBqNE2ps/O130i4eQUPo4lGeHWIiIiIiIho5A1DL7JOqmfq6XR6UzfHQDoGN0REREREREQDrpPKmm6HMz5foe3nGh9XHBv2pFJ7ltsjkXBfx8HghoiIiIiIiIha0igg6qTHDTXHK0pERERERETkcIFAAMfHx319zu5OvWrU54arTjXCK0NEREREREQ0xDoJRhpV1jQ6H8OZ7uNVIyIiIiIiIqITCwYFKEpnq05xSfD6GNwQEREREQAM/GoqRETUnl5NX2rnOE0zGhQznqiHV4aIiIiIEAgE7B4CERENiEaBj8+Xb/sYaozBDRERERERERH1XL0qnkahTig00ethOUYwGLCsfmVwQ0RERERERDQAAoEDAAXLx/o1tanZc3VaWVPvnKnUXtvnGjYMboiIiIiIiIiGWLNeNu0eQ/3F4KZKIpG0ewhEREREVAcbKBMROVsvqnFGHYMbIiIiIuobRdU6PpYNlImI+q/dnjSNNAt1yBqDGyIiIiIiIiKqUW8aVeNjOgt1xscVRKMM6K0wuCEiIiIiIiIaUb2onun2c406BjdEREREREQOVG81nXA40ueR0KA7yYpT/Xo+TpWqz2X3AIiIiIho+LhdEkRptP5GGAgEkE7L7MVDREPDqJDpZqhihDpW5/SPM7yxMlr/mhIRERFRX4iSCEm0/iB7BIMBrspFRJY6qcbhtKf+4b+cRERERERERCOqWQPiboc6jR9rvxnyKOh5cBOJhHv9FEREREREREQjrRcVMI2ClMZLe3f2mNM4pc/UYFwtIiIiIiIaaoEAp3IREVlhcENERERERNQChks0qNiPZrAxuCEiIiIiIhoS6bSzgyUGX87TeT+a7j9G1hjcEBEREVHXqQqXdCXqN6cvRR8MOnt8g+LUqazdQzixen1uLl96Y8NonI/BDREREREREY28QZgKFwgEcHx8bPcwTLrVhPjSpd1uDWnoMLghIiIiIiIiIkvNVoiq5HK5kc/n+zGskcLghoioSjKZsHsIRERENEAUlVMDabD1e4nu6j43mqZxmhTqV30xuCEiIiIiIiIacnaHM43GwtCmMQY3RERERNR3qdSe5fZwONLnkRARUafaCWcauXBxp5vDGjoMboiIiIiIiIiGQC+qapot393J81We8+23X3c8tlHB4IaIiIiIiIhoxDUKZ+qpbk7cCQY3zTG4ISIiIiIiIhphfn/9BtudVvE0q9Tx+xXMzXEJ8Fa47B6AUxjzrGV5H25X+0ljI6HQBADgdGgCKysvunruToii/k0niYLNI2mNKDFfJCIiIucyVgDJ5bLIZnOWK4I4QTotI5fLOnZ8AJDNOnt8uVwW6XTt+LzecN/HYnWdnP41uL0dgyzL2N6O2T2Uupw+vng8jlwui8ND6/dIx8cajo/zEIRCm495AQCHh9maxw4PReRyPhweHlo+trc3jpkZ/bFs1nx8LueyPM4Yjyi+xPb2a0xNDr5MMAAAIABJREFUhhEKnbbcz6l69XVSfQ2BEQpuKhvgpVJ72E+larYb3O72L0s5nAmVblduN/QzuKkMaIzwQxIZghA1E4vFsLERtXsYNWKxGHK5LDweb1+eb2ZmtivnicViePbseVfOdRK5XBbxuLOXeo/H4464VobqX/zj8Tji8Ti83v58DbbLGG8s5sxfuI03pE59QwXo1+7+/W+6cq7l5UWcXV7q6Nh6Y3Dq12AgEACA0tic+qbP+DnY7X9HrH6/7HR57F6+ae7G78GFfAF7e0kcZjKm7V6Pu+9vOl+/qp1eks1lkcvmLB9zAp9vDIVCHpKD/zAbOn266+MTu/gH87m5GXzzjYLpqXIYEpnUvx5P+eK4esUNny9veeyPbgFHR+XHfafiDZ/r6HCyfPvIfN7Do/Jj58+nEQ4fAf9/e3fbG9d13gv/4lDkyAb2aDSk05ZMQkl2LCVwbJ/USlonR+pJzosmQD9BEX+S+7zv50hfFAUK5AYK3G3POQ0goQ1iyInTukhkS7XJnHJ6kgxH1Gwk9gwt8n5BjSKRHD7M014z8/sBguUhZ8+ltWc//ffaa0XE/Hw9Fs6de3ItelI9+zXMx9yEdCooylQFN90Qpvvf48KZfjwdwjwd0BwMZ8atu1EsLPyup5CAhmk1ju0ty7JYXV0Z+eecVafTjqWl5ahUsqJLObXt7QdRvZDFlctrRZcSERGdy51YXFwsuoyePrv6B0nVlx34ruWt/NBrqRl2jcM+nj5steJCpTLUZU6jmze+XnQJDMnOzqfxaHcvdk8Z5OR5HteuXR16HaVSKc6XF4a+3CK99torRZcwlVI5ZznOl1/pdSPq+cf/Pem73v35WcP1p5f72x5/r57wvoP6C/hTMKrrhaNuQE1ccPN0ONMNZp5+fVCphzN6z8DoZVkWOztH3xko0uJiOSqV7Mmd3VEb5HO2tx/ExvpHT/bNk9b1laNNwnpMvUahDbNmYeHck0u2nZ39xzN2Ph18MFOAWZJkcHNUODOsYOYoTz/mdFwtw3CW8XMENMCkORjYAEBXdziChYVz8Wh3N3Yf7QpxgKQ93VmkSIUHN9vbDw492nSUcfR4GcdKeeGFF0b+Gad1VFAFqSu69xtHE9gAcBbzpVLMl0pPwpzuI1UAk6JWq0Wz2RzLZxUe3FSrF12IAUlYX1+PX/7y/45tBzwNBDYADEP3kSrjGwGjNKnZQ+HBDUCRms2tuHdvf7a3f/iH/xnXr79RcEWToRvYdE3qQTAFej8yq47bb6xdunzi78Cse+31rzz5u20FRmN9/cOiS4gIwQ0wg7phjZ41/atWL0b1dSeJwGhcunSl6BIgecIamB0jD25qtaVRfwTAiYQ1AADAJNLjBphKzeZWRISwBgAAmGiCG2BqCGsAAIBJlmVZ5HkeWZY9eU1wc8D+Bd9W0WUkw8UvAAAAsyiVsaQENwc0m1vCCgCACVT0zbdWK49KJTv5FwuUeo3qG8xJ9W1tFX+dU6/XY2Vlpegyekq9vjzPIyKe6Y2Rmn7acH6+FKXS3IgqOpuH29tP/n6hWk0ivBHcADBSqfRkzPM88jxP+mTs7t3349q1q0f+LIWbCnfvvh+rqyvJnixubtYjImJ1Nc11nOd5bG7We67jFNy5805cv/7GUJa1cG4+FhZ6n2quXbrcc/aov/u7/+/I130HBzNr38FR8B0cTPc7+Nvf/qboUnpK/Ts4rev4pGPGrNMyAIxcCqFD90Ti/PnzRZfS08bGRnzmMy8UXQYAzKyjxheBopWKLgAAAIDZ0H3UBzg9wQ0AAAAjpxcL9EdwAxChSywAMPEqlUyPFphCghsAAACARAluAAAAABIluAEAADiFLMui1fIoEjBeghsAAACARAluACaEwQYBmAWOd0Aqtrcf9PxZrbY0tjoENwATxMxXAEwzxzmAwwQ3AAAAAIkS3AAAAAAkSnADAAAzIMsy48cATCDBzQHNZrPoEgAAAIAZ1Wo9G7ILbgAAAAAScNQg7YIbAAAAgESNNLip1WqjXDwAAADAVNPjBgAAhqBSMfgvQD/7wUe7eyOoZHoIbgAAAICBHTU+C4MT3AAAAAAkSnADAAAAE8AjmbNJcAMAAACQKMENAAAAQKIENwAAAACJEtwAAABA7M+K1GoZQ4a0nCu6AAAAOI3uBZXpZgGGZ9iDHbfb7TMvs1Qqxflybah1jNrSUi3efXf4IV+n047FxfIzrwluAB7rdM5+kBmnfg6CKcjz/Ex1j+ouV7eOzc36SJY/DKnX12g0olxeTPZO5NZWo+gSjjXM7+Co9gWNRiPu3n1/KMu6tPa5qNUu9vXeXjXkeZ70vrDTaUejsVV0Gcca5joehXq9fuRFS7+G/V3pLq9eT3Nf3d0+Ut1GIvbb7s6dd4ouo6dZXMfDDsP7OdbNzc3FC8tpBjfb2w+iWj18PGu1RnPe1mg04vLly8+8JrgBeGxUO99hGfdF/e/93u/HF77whaEs66x1j+Juerm8GI1Ge+jLnSXlcjna7c7QLqhmzTC/g6urK0NZzkGNRmNkyz6LXjVsbtZjeXkplpeXx1zR6XRDzRTasJdU1nEvnU47lpaWo1IZznFg2MeT7vEs1Tbsnitcu3a16FJ6unv3/VhdXUm255x1PLg8z89cX6k0eaO4VCrZSNbD5ubhbUNwA/DY8vLy1B0EB7GyMpwTliwbzUHtrPbv1HeSPRGL2L+7l3J9eZ4nfbLdlWobTsJ3sFwuD239Lpyb7/u9vWrovp7ydzDP036Ua5jreBQWF8tRqWRJ1wgwbpMXawEAAADMCMENAAAAQAIqlezQGEaCGwAAAIBECW4AAACmQJYdvlMPTD7BDQAAAECiBDcAAAAAiRLcAAAAACRKcAMAwNA92t0rugQAJsTu7m7RJSRNcAPAyDSbW9FsbhVdBnBKwxzYdHd3Nx45EWfKHDVNL/Asg2QP37lRLrxWWxrl4ofOxQXA7ywt1QZ6f7O5FW+//faQqhlcq5VHlmVFlwEzpd3eiXJ5IeZL7hUCQL9GGtwAMJvu3bsX9+/fK7oMIAE7O49iviy4AYB+CW4AGKq33/5RNJvNossAErG7uxuftHfifHmh6FIAYCIJbgAYivX19bh//17s7OwUXQqQmN3d3djZ+TQWFpx6AgzK+DGzR79VAAbWbG7F97//fT1tgJ52Pn0UOzufFl0GwEQzXt9sctsDgIEYzwY4rZ1PH0VEnNjzplarCYIB4DE9bgDom9AGOKtueAMAk2B7+8GRr49zFm3BDQB9aza3ii4BmFAPt7eLLoEEZVkWrZbxOwCeJrgBAACAiKhUMoP/khzBDQAAAECiBDcAAAAACciyw72+BDcAAAAAiRLcAAAAACRKcAMAAACQKMENAAAAQKIENwAAMCOOGvQSxinLsmi1fAfhLAQ3AAAAAIkS3AAAAAAkSnADAAAAFOrR7m7RJSRLcAMAAAAMjXGMhktwAwAAAAxFlmVFlzB1BDcAAGNgNh8AoB+CGwAAgCkhJIbpM9LgZmmpNsrFAwxNq5Xr1gkAACRHj5unbG01iy4BAAAASMTD7e2eP6vVxtNZRXADAAAAE8LjcLNHcAMAAACQKMENAAAAQCIO9qo6V2AtAABJG3ZX9Ha7nXT39k6nHa3W6Ot7/rnysT/P8/zIdup02tFud5Jtw1Yrj05nNtfxsJa5tdUYynJGpfvd3NysF11KT41GI8rlxbFsy/2Y5XU8rH1DvV6PTqcdi4vH70uLkud5X8e7K5fXolq9MKKqRqNer8f6+sbQl9toNGJ1deXJ/wtuAB776KOPkj7ZbjQacffu+0Nb3kn/1i9+8UtRqy0d+zt3774fGxsbT+rbP1lM9yQiYv8Am6p6vR537rxTdBk9zeo6HuaMc+lf8G1FxPADq4N+7zPLx/68Vzt1v38pt+HmZj3Zi6mI0a7jWZidsVxejEajXXQZxyqXy9Fud5L+HqZslOv46QvxQXQ67VhaWo5KJc1tbnOzHsvLS7G8fPy+/qC9vb0RVTQ6WZYNbb0+rdN59jsouAF4bHV15cwHmHE6mLwP6qQT7NOcDFy7djU+85kXImI/xFldXUn2xL17oTeKg+uw3LnzTly//kbRZfRkHQ8uz/O4du1q0WUcK4V1vLKyEufPnz/0+ubmfl3W8WBSWMcnSXUd7/ck6CRbX8R+jdZx/yZhHS8ulqNSyZJdx926zlpfubwwinJGKsuy2NnZGfpyDwavghuAxxYXy8keACP276ClXB8ATDuz+QBFMDgxAAAAhHCONAluAAAAABIluAEAAABIlDFuABiKavVCzM+XYuHc/DOvP9rdi93d3YKqAopSKpViYWH+5F8EAI4luAFgYAvn5uPK5bVDr69duhy//OWvotlsFlAVULT5ks7dADAoR1MABrJwbj4WFg7fB1i7dDkuXbpSQEUAADA9BDcA9G1h4ZzQBgCAZ/QzM9fuI4/W9yK4AaBvRz0GIbQBAJhdlUpWdAlTR3ADwNAIbQCA41QqWV+9MWCWCW4AGAqhDQAADJ/gBoCBCW0AGAa9MYDUbG8/6PmzWm1pLDUIbgAYiNAGAABG5/BUIEM0rvQJgGKsXboc1erFossAAICp0mrlkWX7Az3rcQMwAVLtNi60AQCA4eoGNl2CG4AJcXAHDjBrjH8CwCwS3AAAAMCEyLIsWi0h9iwR3AAAAAAkSnDzlGZzq+gSAAAAAJ4Q3AAAAEwRj9HAdBHcAAAATAmTGcD0EdwAAAAAJEpwAwAAAJAowQ0AAABAogQ3AAAA8FiWZZHnBngmHYIbAAAAoFCPdveKLiFZghsAAJgRWZaZKhpgwpwrugAAYPJsbGw8+fva2lqBlQAATDfBDRNnY2Mjbt+69cxFw2ldvHgxXnzxxfjTb397BJUBTL+N9Y14992fPLMPPv/cc/Enf/In8cYbbxRYGQCQglkaI2hpqRb374/+cwQ3TIxhBDYXL9aiUqmMoDqA6ffv9+/Fu+++e+j1UqkUP/nJT+Lh9sP41n//VgGVAQCMzvb2g6hWLxb2+YIbkjeswAaAwRwV2sTcXJRKpSiVStFo/Dp+9KMfxR/90R+NvzgAgClRqWSxuVl/8v+CG5J1+9atuH37dl/vvXLlxXjxxReHXBHA7Lp969aRr3dDm1KpFHOlUjxoNuPhw4dx4cKFMVcIMB7dx0CyLCu6FGBGCG5IysbGRmysrwtsABLTa7/8dHBTKpWiND8/5soAAKab4IYkDPI4VITABmBc1tbW4sbNm09mkvrnf/7nWFxcjJ///Of7vW7m5iLPcz1uAACGRHBD4bq9bNbW1s48pez8uXNxbt7XGGCUbt+6dSiw6fr6178eERHlcjk+/PDDKJVKxy6rG9R3Xb5yJRYXy/HVr14ffuEAAFPAFS+F6yew6fr5z34erVZryBUBcNB333rr2J+/+uqrUS6XY3Nzs+fsfUeNXVb/z/+MLMuiXF6M1157bWj1ApCmWZoqGobl+NtiA6jVzOIDANNg7dKlU/3e1atX4+LFi9HpdA79rNeA83NzczE3Nxfv/et7cffu3UFLBYCpV6kIv2aNHjcAwLHO0ivy8uXLUa1WD73ea3Djubm5mIu5mJuL+OCDD+L3f//3j3w/s6VWW4pms1l0GQATI7Ugp91un7mmUqkU58uT1wFkFG3faj27zKkLbprNrbh371587Wt/VHQpwITJ8zy5g15Xq5VHp3P2A2AK8jyPzc160WXE1laj6BJOlEpbHbS6unLq322324f+DT999yc9f3+/x01EPO55s7GxEb/5zW/7qnMS13Fq23S9Xo9Opx2Li+WBlzU3Nxf/5fUv913H3bvvH3q902lHo7E1aGkj1Wg0jqw9FXme93VBNS691nFK9TYajWg0GlEuD76djEK3rer19I4nXfV6Pe7ceafoMnpKfR13t+GD20VKU9T3c04zNzcXLyxPVnDTao3m3K3TaT/z/1MT3HQDG3dngH6letEc8bsT2WFcTJ1Wq5VHrbY08HJSOtlm9J5//vlDd4kOHpuf7sHzq1//+snjUhEReSuP5eUXRl9oIrIsi0olnRPtTqcdS0vLQ6nppIGqj7OyshK//OX/PfR697t1ljBx3BqNRtL1bW7WY3l5KZaXl4su5Ui91nFKF6R3774fq6srSdX0tO65TMrfwzt33onr198ouoyeUl/H3XPWa9euFl1KT3men7m+QY4bRalUspGsh4PXJRMf3Ny7dy/u379XdBnAFFhZWUn2JCfP81hcLI/1AD2si8mVlZU4f/78UJY1DKmu44j9O5Ap13caWZb1PNG9ceNG3Lh589DrP/7xj+ODDz6Iubm5qFyo9N0GlUoWm5tpt2Hq63hxsRyVSu91eBaDnoD3qiHP82QvpiL2Z1hLub5ubSnXmPo6Bhi3iQ9ums20u8sCwKzb2NjoGdpERPzhH/5hlMvl2NjYeNLz5rhlRURsrK9HRMS5hYV48803h1ov47G9/aDoEgBgIkx8cHOUfme08pgVAAzfcaFN1yuvvBLlcvnY8QT+8nvfexLcdD33/PNRLpfjc5/7XDz33HNDqZfh2N3dLboEAJgKk/cQGQAwMTY2Nk4Mbbq+8IUvxFwc3ePmqNCm68c//nH84B9/EFtbeuECwLRau3S56BIKI7gBAE7l7t33zzzY9FmmEo+IqFyoHHrt9q1bPUOb2Nv/sxd7ce+eMe8AYFpdunQlbv7Jt+K1178ycyHOVD4qBQBMpgsXLhx67fbt28e843FyExE7Ozuxt7c3msIAgJE66RHb7e0HUa1efPLn0qUrsb7+YTSbzchbD8dUZTEmvseNcWkAYLY9iWqENgPLsuzQdO6c3Vl7pgHQn0uXrsTOzqfx24/bsbPz6dg/v1ZbGsvn6HEDACTr4CNSa2trcePmzVhbW4uNjY3Y3NyM99577/HjUhFPxThQCNNYDybLMsHXgCqVLDY360WXAZHn+Vj3iTufPoqdTx/Fwrn5iIhYWJieuGN6/iUAwNRaW1uL77711qHX1tbW4s0334z33nsvfrHxi4KqA2CadHsfCmL7V2Tb7Xz6KCIiSvOlmC8N5yGj7mNa43IwxBbcAABJOyq0OejLX/5ylMvl+PTT8XeTBgAYpYkf4wYAmG6nnZnq5ZdfHnElAADjJ7gBiP1ncCsV3WEhRTdu3jz171Yqh6cTBwCYZIIbACBZp+1t03XUdOIAAJNMcAMAAACQKIMTAwBT7ekpxc/agwcASFutthTNZrPoMkZKcAMATI3NzXpcu3Y1IvYDm9u3bj0T3CyWy/HN//bf4o3r14sqEQDgTAQ3AMBUyPP8yd9v37oVt2/fPvQ7e3t7cefOnXj/gw/iz//8z8dZHgBAX0YW3NRqS6NaNADAsY4KbSIiYm8v9vb2Ym93L374wx/Gm2++Od7CgInT7bV3+9atiIj4zW9+G1/60pfixZdejNXV1SJLA2aEHjcAwFTpXlwdZW+v+2c3Gr/+dTx8+NBMVEBPvXrv3b59K27fvhXf/Na3olKpxCuvvFJAdcyqLMue6WXK9BPcAABTpWdvm4jYi8c9bvb2YndvLx5uC26Ao/3l9773zBhZR/nBP/5jzM/Px8cffxzXjZ0FjIjpwAGAqbe2thZra2v7oU3shzZ7u7vxy1/9sujSgASdJrTpevToUfzD3/99/M3f/M2Iq5oeeozA2ehxw8zJKlnRJcBEMFYZ0+C7b711aArwt99+O5rNZnz88cexcM6pEPCsg7PRndbdn/88/uIv/iK+853vxKuvvjqCyoCz2H20G/Ol6eir4myFidZqtYouAYBEHRXaRER87Wtfi4iIn/3sZ/HJJ5+Muywgccc9bnmST3d24m//9m/jk08+ia9+9atDrAqYZYIbAGDq9AptnvalL30pPvzwwzFVBEyCfnraRMST/U33v598/HH89V//dXzzm9+MF154YWj1AbNJcAMATJXThDZd1Wp1xNUAk2Rjff1Mv7+2thY3bt489T4HON6j3cl7vKlWq0Wz2RzpZ0xlcGNcBgDgNGq1WtElABPqxo0bcePmzaLLgJmxvf0gqtWLhXz2w+3tsX9mdxDvLMvMKtXVbG4VXQIAM6x7YGZw7nwDoya0AcZJcAMAADOiUjEN83HWLl061e8JbYBxEtwAAADE6Xrs3bhxYwyVwGTLsixaLSHxsEzVGDelUikWFuajvvmLqG/+4snr1erFWLt0ubDn4QAAgMlw48aNY6cE19sGGLeJDm6649J0A5uDo08LbABgOv3l974XEb+buveb3/pWtNvt+IM/WCmyLGAK3Lh5MzY2No6cGtwYWrPDI4WkZKKDm4iIcnlBYAMAM2JjY+NJaPO0H/7wh5FlWZTL5QKqAqbNjZs3j9zXMBuMBUVqJnqMm1Kp9Exos3bpcrz2+lfitde/IrQBgCnU80Jqb//Pxvp6fPDBB2OtCZg+a2tr8f/8j/+hhw1MgKWlWtEljNzE97jRuwYAZsPtW7eO+el+crMXEfc+uBcvv/zymKoCptl333orbt+6deyYNwCjNtHBTbV6MaqvC2wAYBYcd+H0uMPN47/vRethKyoXKmOpC5hu3cGIb9++feS4NwCjNtGPSgEAPGNvL2JvLx62HhZdCTBFbty8GX/6p38aESG8AcZuonvcAACza21t7cn4E/X//M/YfrD9uNfNXOzt7R33ViZUlhkwlOK8cf16vHH9ety+dSvpsW9sJ0yrjfWP4uH29pE/Wzg3HzufPhpzReMjuGGmVCqVqFR0nQco2sbGRmysr0dERGl+Pr7xjW+c+r03btx48ujC0+7cuRMPHz6Mjz/+eFhlAhzy4ktfiDzPI8uyokuBmbO9/eDI1xcWzsXCwrnY2fl0KgMcwQ0zY/Wzq/HZz3626DIAZtpRg3wulsvx3r++F1//xtfj1VdfPfJ93UcTeoU2ERHXr1+PiP2pwUOHGyIK6XXQ6bSj1Uq3t0OrlUen0066R0a7nXZ9nU47NjfzWF1dOXV4M+5/z2nbsKjvaqPRiHJ5MdltJc/zyPM8NjfrRZfSU+r1bW01+nrfC8u1qFYv9P25Twc4eZ5HrTb6MXHr9Xqsrw//EcpGoxGrqysRIbhhBlQqlVj97KqeNhyr02nHRx99FIuL5aJLOVKn045GY2usn/ntb39nKMt5992fJtEDIs/zpC8G+lnH4/63NBqNxyfb/W0n9+/fi3+/f//Q63NzcxFzEe/9679GnudHbofNZvPY0OZpL7/8cty7dy9++atf9VXnKNXr9bhz552iy+ip+52q14dzMXDzxtf7et9x7XSWNiyiR0R3O059X5Pq8S4i/QvS7n5wc7MeWZZFpZId+10r4t9zls8sYjspl8vRbneS/R6Wy4vRaLSLLuNE09jza1iPOi8snBtLaBOxvw11A5Zh6nR+9x0cWXAzC3Opk74vfumLAhtOZXGx/OTkK0XdO1KjOCiM2ksvvRjNZrPoMmJzsx7Ly0uxvLxcdClH6mcdj/tk7e7d9890h/mgf/j7vzvy9bnohjdz0Ww248/+7M8O/c7Gxsapx5RYXl6O3/zmN0mOQXHnzjtx/fobRZfRU/dCr+h9zcrKSs92Sr0NI2Kg7WTUuuHotWtXiy6lpzzPk65vc3N/3Z52O8mybOz/ntTbMM/P1mNp3PZv9nQK3xceJ/U27DprG5bLCyOqZHSyLIudnZ2hL/fpYFOPG6aSx6Lox0l3zIo2qXdVRnUw66eOp/+bokldx6dx+9at3j+cm4u5x38iIra3t6NarQ70eSmGNgAA/TAdOFOlUqnEF7/0RaENQGKOmz53bm5uv9fN4z+/+MUvDv2OIAYAmDXdHtmCG6bG6mdXPRoFkKhjg5uIiMePSsXjXjfA7DKdNTBJarWlkSz36V7YHpVi4hl8GGCyrK2tPRlkeGN9PRYWF+Pf/u3fYi72H5ca9DEpAIBh6jUN+bgIbphoetgATI61tbX47ltvHXotIuKP//iP4wc/+EF88vEnoc8NAMym3Ue7MV/yYNBBWoSJJrQBSF93RqiDoc1B3/zmN/dnpfS4FMBUy7LsydgdwMkENwDAyJ0U2nR94eWXB/qc7nTWAEBxKhVjVQ2TR6UAJoC7UqRkY2Mjbt+69WTA4RdfeileeumluH79+sDLrtVqce5cf6cneZ47SQQApo7gBmBCPD2yPBTl//3+9w/NEPUf//Ef8XB7O8rlcrz66quH3mMqbwCA/gluHtvaahZdAgAk7Qf/+L+j2Tx8vCzNzcVcqRT/9t57US6X4+rVqwN9jvHLAAB+xxg3AMCJbt+6dWRoExExVyrF3OPw5oMPPojt7e0xVwcAML0ENwDAQEpzc1F6HN6USqV4+PBh0SUBAEwNwQ0AcKLbt28f+fpcqfSkx01pbi7m5uai1WqNuToAgOkluAEA+tYNa7rj3JRKpaheqBZdFsDImOZ4+mWZdUxaDE4MABzr6Vmk1tbW4sbNm0/+/k//9E+xuLgYP/vZz/bHuXn8BwCA4RDcADBSvQa0ZXJsrK9HRMR333rr0NTe3/jGNyIiory4GP/+4YdRKpUi5DbMsCzLotXKI8uyoksBYEp4VAoAONGNGzcOhTZPe+311+PGjRsxF3Om8wYAGCI9bgCAY3UfjTrJ8vJy1JZqI64GAGC26HEDABzr6TFuTnLlyhU9bo5hwMvTWRIAAjDjnh4IXXADABzruEekDqpWzSgFAMyOcdxsENwAAADABOkOhM5sGFlwU6stjWrRAAAAAGOzvf2gsM/W4wYAAAAo3KPdvaJLSJLgBgAAYIoYCB2mi+AGAIBCFNntHAAmheAGADiVu3ffdwcXAGDMBDcAAADA0Hhcb7gENwAAAACJEtwARESe55FlWdFlAMBIuQsOMHkENwAAAACJEtwAADASj3Z3iy4BSFCloucXnIXgBgAAACBRghsAAACARAluAAAAABIluHms2dwqugSAqXPv3r1hQjoMAAAOJ0lEQVSiSwAAgIkmuAEAAABIlOAGgJG4d+9e3L+vxw0AMHmyzMxXFOvp76DgBoCRENoAADDtarWlkX/GuZF/AgAzJ6Wxbbp3KjqddrTbnWTvnrVaeXQ67WTri9hvw1Yr3fq0Yf+6NW1tNYa63BeWa1GtXujrvZub9SNfz/O8589SMOw2HIXU27DTacdHH30US0vLRZdy5P6k02lHo5H2+Jj1ej06nXYsLpaLLuVI2nBweZ5Hu53GMa9XDfV6Pe7ceedMy5qbm4sb//XNYZQ1Vmf9d55Wt20FNwCxv1Mc1Q53GLo77Xp9fCfa3/72d/p+71/91V8NsZLBZVkWjUYjyuVyshcr3ZPYVE8QI+LJSXYKJ4lH0Yb9y7JsNMut9LfcFMMtZlOWZVE58D3ufj9XV1eKKOlUOp12LC0tH6o9FdpwcJub9VheXorl5eIDzl7HkDt33onr198407JKpXQfCtrefhDV6sUjf3bWf+dpda9PBDcAsX/AGdUOdxi6YUPKJzhd9+7dS7ItNzf3TypSbcM8z2NxsRzXrl0tupRjra6ujOwif1DacHiK3k4qlaxnDfV6vfD6TiPlGrXh4PI8T3o7XlwsR6WSJV2jNhxMt65U62O40o2zAJg4zeaWsW1gwqXWGwiAwyoVgyfPEsENAEOztdUsugRgAKk+EgDAbNjd3S26hCSN5FGpWq02isUCkLBbt27Fb3/7m6LLABKys/Mo5svuEwLAIBxJARiKW7duFV0CkJjd3d145O4pAAxEcAPAwFKa/htIy87Oo6JLgKHKMmOLAOMluAFgYAYkBnoxXgHAbBJyDo/gBoCB6G0DnMTjUgDQP8ENAAPR2wY4icelAKB/ghsA+qa3DXAaBikGgP4JbgDom942AAAwWoIbAABGzuNSMF6tlkFhYVoIbgAAGDmPS8H4ZFlWdAnAEAluAAAYC71uAOD0ulOqC24AABiL3SH1uMlzj4AAMDsENwAAjM2gj0t5BASA1NRqtZEuX3ADAMDYeFwK6D7+AZyO4AYAgLExSDEAk+jh9nZhny24AQBgrHYfCW4A4LQEN481m82iSwBghPI8j0rF2BgAAEwWwQ0AAAA8JcuyaLWMw0MaBDcAAABAEoyDdpjgBgAAACBRghsAABiSSsU0x8DomVJ9tghuAAAAABI1kuCmVlsaxWIBAAAAZooeNwAAAMBQmZlreAQ3AAAAAIkS3AAAAAAkSnADQF+aza2iSwCgD2ajAZgs54ouAIDpUL1wIUqlw/cDdnd3C6gGAAAmX6uV63EDwOAWzs3Ha6+9EufLC8/8uXr15aJLAwCAiZRlWUR4VAqAI9RqtTP9/sLC0R04L126MoxyAABgZgluABjIwrn5I19fu3R5zJUAMA0qFWPwAJOlVlsa6fIFNwAMRG8bAAAYHcENAH3T2wYAgFmwvf2gsM8W3ADQN71tAJhVHucCxkVwA0Bfjpr6O0JvG+Bkj3b3ii4BBtKd6QVgHI6+VQoAfdLbBugqlUoxX5orugwACnaWHmrl8tlmN01Bnucj6YXX6bRjcbEsuAGIiGi320l3ee502tFud8ZW48LCQl/vO6q3TSrt2um0o9U6XMtRrxWhe8Df3KwXXUpPjUYjyuXFZNrsIG04uINtOOj2e+XyWlSrF878vlYrj7t33z/yZ/V6/cmJbIo6nXY0GltFl3EsbTi4g22YyrGuq3teU6+nuz+s1+tx5847RZfRU3edasP+Pd2GZ+ml1v7k4/j85z83qrJGZhTnH41GIy5fviy4AehK/2KvPLYa+w1ujuptk0q7di8CDp5cp9LdvVxejEajXXQZxyqXy9Fud5K92NOGgzvYhlmWRaXS/zaS9fneSiWL1dWVI3/W6bRjaWl5oLpGqRvK9ao/BdpwcAfbMJVjSVc3gL127WrRpfR05847cf36G0WX0VP3/CXl7+G0tmG53N95aJGyLBvJ9ra5ub9vEdwAxP7FVMonN92d9rhOHmq1s3dR7TW2TUrturq6ktzJdVee59Fud5I+QczzXBsOSBueTq221LONFhfLUalkybZhxH47plyfNhzcJLRh6rIsS349U4zdR7sx32MsxVmlNQAYCmPbAADTJLVH4JhdgpuIaDbTfoYWIM/zZLu0R5hJCgCYLimfdzF7BDcADExvGwCA8eo+bsb0E9wAMBC9bQAAOKhSESwNi+AGmHkOKIPR2wYAAEZHcAMQ6U3jOSn0tgEAgNHo9loaSXCztHT2aWQBmDx62wAAwGjpcQNAX6rVi0WXAAAAU09wAwBAIba3HxRdAgAMbNRPHQluAAAAABIluAEAAABIlOAGAAAA4ARFPeIruAEAAABIlOAGAAAAIFGCGwAAAIBECW4AAAAAEiW4AQAAAEiU4AYAgJHYfbRbdAkAMPEENwAAAEASHu3uFV1CcgQ3AAAAAIkS3AAAAAAkSnADAAAAkCjBDQAAAECiBDcAAADA0OV5XnQJEy3LssjzXHADAAAAB6UeOmRZFq1WujVmWVZ0CVNDcBMRW1vNoksAAACYGUIHOD3BDQAAwBmlHjqk3lsEOL2RBDe12tIoFgsAAMyA1EMHvTGAp406A9HjBgAASIZQBOBZghsAAJghqY8tAsCzBDcAAAAAJ9jeflDI554r5FMBAGAKGRR2fEql4u5Bl0pzMTc3V2gNJ0m9vklow+qFC2nXV70QeZ6fWON8aW5MFR128eKFWDg3f6b3lObTbfOiCG4iYn6+lPQGyWQqcgfJ2Sycm+/roDJOtVo1aherY/u8hYXhHR56teu4D8rLSxdjebk21s88i/Yn5+LK5bUolxeKLqWn1NuwXK5FeXEh6Ta8cnktssrpxu+YL+Dc5PnnynH+/GI8/1x57J99VC1HefHFS3GhUhlzNWfz+utfTqINe/nCS5eLLuFEN298vegSjvXilUtFl3CiG//1zaJLONYktOFrr71SdAnHOl+uxQsJH5cjIl79ctptOClmPrhZX/8w/s8v1uN8wid5wGjVahejVrtYdBnHurT2+bF+3rAuGNfXPxxqCDSIz3/+c0WXcKyLYwzm+pV6G0bs331MWer1RUTyoUjq9UVMRo0ATI40zqYLsL39IDbWPyrsGTWAWbCx/lHRJQAAwESbyeBme/tB/MtPf1J0GQBTbX39w6JLAACAiTdzwc2//PQnetkAjIHeNgDMomp1OI9fu2Zhmj29nfiun2xmghuPRk2mYR34BjGN35nj2nUa/72M3yT3tjlpv2Mb2VetXoy1S8UOcNo9tjNeR20jtgumTbV6MV57/SuF1uCGM9NsGr/b/cwo2Gqd/J52uz0bwc36+odO7CZQCgfM9fUPp3KnMo3/JhgW28fppRCub4Tj+7jZRpgF3aEVij4XBSbH5ma9r/dl2cmzTU51cKOXzeRau3Q5Ll26UmgNAj/oj14Qs+FCNf1ZsAAGsb39INbXPyz8nBSYDNeuXR3Jcuv1+vQGNy66J5fQBiabsByAabGx/lFUqxeT6GEIzKYsy6JUdBGj8C8//YmL7gkltIHJZ/sBYJoYawYo2lT1uDHN92QT2sDkm+RBiTkbd5+BWbKx/lFUX7ffA4oxNcGNC+7J9trrXyn8IsB3CAZnG5ot9+7dK/TzH7oDDozJ9vaD+MEP/le02zsR8btBSFdXV0b2maVSKc6XF0a2fGByTHxwYwDiydcrtGk2t+Ltt98eSw0L5+ZjYWHiNwcolN42s2V3dzfu3y82uHFRA4zTfKkUC+fmY+fTR2P5vN3d3djZ+dQ5KkyIWq0WzWZzJMue6L2AHhKTrVq9GGuXLgttYEo83N4uugTGaHt7O0qlYofKmy/NFfr5wOxZWDgXpflSXLmyFnkrj7LwGBiDibxa1ctmemysfxQbcTh8295+EM8/Vy6gIqAf6+sf2ifPmP/zi3W9XYCZNP84tK5WLxRcCTArJi640ctmerjIAwAAYFIU1cN8ooIbU/EBpEmgDgAAozERwY1pvgHSZVBiAAAYnaEHN7VabajL82gUQNrsowEAYHSS7XFjAGKA9OltAwAAo5VkcKOXDcBksK8GAIDRSiq40csGYHLobQMAAKOXTHCjlw0AAADAs5IIbkzzDTB5hO0AADB6hQY3pvkGmEwekwIAgPEoLLjxaBTA5LL/BgCA8Rh7cGMAYoDJprcNzLZq9eJUfQ4M24VqtegSIGn272eTZdl4g5tuaBMxnpVlpwlHs7NkENXqxai+Pt3fIdsIFO+1179SdAkAkISxBjezcLIPMO2EGgAAMD6logsAAAAA4GiCGwAAAIAB1GpLI1u24AYAAAAgUYIbAAAAgESNfTpwgGnUbG6NdPmtVh6VSjbSzzioV3fPXv/WImo8i9Tri0i/xkHq29pqDrmao9Xr9VhZWRnLZ/Ujz/OI2J/aM1XjbMOlpdqx+5qjvjfT2IajPoYcVK/XI8uy5Nsw5RrzPI88z5Pe30xTGzab4zmGHHT37vuxurqSdBtubtbj2rWrRZfS0+ZmPSIiVlfT3Vbu3Hknrl9/o+gyjjX04KbZbMbbb/9o2IulYEXtLGEcJuGAMu4Th1qtFrXa0dv9/fv3Dr02CScOTr4Gl3obRqR/8jUJ+5txtuH9+/v7m6P0OvfQhoPb2mrG1lYz6TZcX9+I1dWV2NnZKbqUI3X32efPny+6lJ604WzohtlMt5H0uHGRDzDZms2mfTkwFvY1AP1J+UYKw2WMGwAAAIBECW4AAGDGeLwCYHIIbgAAYIakPAg6AIcJbgAAAOCALMui1dI7jeIJbgAAAAASJbgBAAAASJTgBgAAACBBlUomuAGYBHmeR5YZTBIAAGaN4AYAAICxyrLMtPRwSv8/3mio7oGwQ1MAAAAASUVORK5CYII=;" vertex="1" parent="1">
          <mxGeometry x="80" y="50" width="1134" height="883" as="geometry" />
        </mxCell>
        <mxCell id="CeXZWkVqTg6pYlPyMge9-2" value="" style="rounded=0;whiteSpace=wrap;html=1;fillColor=none;strokeColor=#f5c211;strokeWidth=10;" vertex="1" parent="1">
          <mxGeometry x="150" y="630" width="310" height="250" as="geometry" />
        </mxCell>
        <mxCell id="CeXZWkVqTg6pYlPyMge9-3" value="" style="rounded=0;whiteSpace=wrap;html=1;fillColor=none;strokeColor=#f5c211;strokeWidth=10;" vertex="1" parent="1">
          <mxGeometry x="770" y="633" width="370" height="250" as="geometry" />
        </mxCell>
        <mxCell id="CeXZWkVqTg6pYlPyMge9-4" value="" style="rounded=0;whiteSpace=wrap;html=1;fillColor=none;strokeColor=#f5c211;strokeWidth=10;" vertex="1" parent="1">
          <mxGeometry x="500" y="633" width="240" height="250" as="geometry" />
        </mxCell>
        <mxCell id="CeXZWkVqTg6pYlPyMge9-5" value="" style="rounded=0;whiteSpace=wrap;html=1;fillColor=none;strokeColor=#f5c211;strokeWidth=10;" vertex="1" parent="1">
          <mxGeometry x="160" y="110" width="210" height="150" as="geometry" />
        </mxCell>
        <mxCell id="CeXZWkVqTg6pYlPyMge9-6" value="" style="rounded=0;whiteSpace=wrap;html=1;fillColor=none;strokeColor=#f5c211;strokeWidth=10;" vertex="1" parent="1">
          <mxGeometry x="150" y="360" width="220" height="240" as="geometry" />
        </mxCell>
        <mxCell id="CeXZWkVqTg6pYlPyMge9-7" value="&lt;font size=&quot;1&quot; color=&quot;#f5c211&quot;&gt;&lt;b style=&quot;font-size: 40px;&quot;&gt;A&lt;/b&gt;&lt;/font&gt;" style="text;html=1;strokeColor=none;fillColor=none;align=center;verticalAlign=middle;whiteSpace=wrap;rounded=0;" vertex="1" parent="1">
          <mxGeometry x="390" y="830" width="60" height="30" as="geometry" />
        </mxCell>
        <mxCell id="CeXZWkVqTg6pYlPyMge9-8" value="&lt;font size=&quot;1&quot; color=&quot;#f5c211&quot;&gt;&lt;b style=&quot;font-size: 38px;&quot;&gt;B&lt;/b&gt;&lt;/font&gt;" style="text;html=1;strokeColor=none;fillColor=none;align=center;verticalAlign=middle;whiteSpace=wrap;rounded=0;" vertex="1" parent="1">
          <mxGeometry x="1070" y="840" width="60" height="30" as="geometry" />
        </mxCell>
        <mxCell id="CeXZWkVqTg6pYlPyMge9-9" value="&lt;font size=&quot;1&quot; color=&quot;#f5c211&quot;&gt;&lt;b style=&quot;font-size: 38px;&quot;&gt;C&lt;/b&gt;&lt;/font&gt;" style="text;html=1;strokeColor=none;fillColor=none;align=center;verticalAlign=middle;whiteSpace=wrap;rounded=0;" vertex="1" parent="1">
          <mxGeometry x="310" y="220" width="60" height="30" as="geometry" />
        </mxCell>
        <mxCell id="CeXZWkVqTg6pYlPyMge9-10" value="&lt;font size=&quot;1&quot; color=&quot;#f5c211&quot;&gt;&lt;b style=&quot;font-size: 38px;&quot;&gt;D&lt;/b&gt;&lt;/font&gt;" style="text;html=1;strokeColor=none;fillColor=none;align=center;verticalAlign=middle;whiteSpace=wrap;rounded=0;" vertex="1" parent="1">
          <mxGeometry x="678" y="831" width="60" height="30" as="geometry" />
        </mxCell>
        <mxCell id="CeXZWkVqTg6pYlPyMge9-11" value="&lt;font size=&quot;1&quot; color=&quot;#f5c211&quot;&gt;&lt;b style=&quot;font-size: 38px;&quot;&gt;E&lt;/b&gt;&lt;/font&gt;" style="text;html=1;strokeColor=none;fillColor=none;align=center;verticalAlign=middle;whiteSpace=wrap;rounded=0;" vertex="1" parent="1">
          <mxGeometry x="310" y="550" width="60" height="30" as="geometry" />
        </mxCell>
      </root>
    </mxGraphModel>
  </diagram>
</mxfile>
